{"accessors" : [{"bufferView" : 0, "byteOffset" : 0, "componentType" : 5123, "count" : 1236, "type" : "SCALAR", "max" : [1222], "min" : [0]}, {"bufferView" : 1, "byteOffset" : 0, "componentType" : 5126, "count" : 1223, "type" : "VEC3", "max" : [9.448819160461426, 8.267716407775879, 0.3937007784843445], "min" : [-2.220446049250313E-16, 0, 0], "name" : "POSITION"}, {"bufferView" : 1, "byteOffset" : 12, "componentType" : 5126, "count" : 1223, "type" : "VEC3", "max" : [1.0000044107437134, 1.0000044107437134, 1.0000044107437134], "min" : [-1.0000044107437134, -1.0000044107437134, -1.0000044107437134], "name" : "NORMAL"}, {"bufferView" : 0, "byteOffset" : 2472, "componentType" : 5123, "count" : 300, "type" : "SCALAR", "max" : [290], "min" : [0]}, {"bufferView" : 2, "byteOffset" : 0, "componentType" : 5126, "count" : 291, "type" : "VEC3", "max" : [6.299212455749512, 7.4803147315979, 0.3937007784843445], "min" : [3.543307065963745, 5.905511856079102, 4.949524199844952E-17], "name" : "POSITION"}, {"bufferView" : 2, "byteOffset" : 12, "componentType" : 5126, "count" : 291, "type" : "VEC3", "max" : [1.0000044107437134, 1.0000044107437134, 1.0000044107437134], "min" : [-1.0000044107437134, -1.0000044107437134, -1.0000044107437134], "name" : "NORMAL"}, {"bufferView" : 0, "byteOffset" : 3072, "componentType" : 5123, "count" : 36, "type" : "SCALAR", "max" : [34], "min" : [0]}, {"bufferView" : 3, "byteOffset" : 0, "componentType" : 5126, "count" : 35, "type" : "VEC3", "max" : [5.118110179901123, 5.511811256408691, 0.3937007784843445], "min" : [4.3307085037231445, 4.724409580230713, 8.7607241305973E-16], "name" : "POSITION"}, {"bufferView" : 3, "byteOffset" : 12, "componentType" : 5126, "count" : 35, "type" : "VEC3", "max" : [1.0000044107437134, 1.0000044107437134, 1.0000044107437134], "min" : [-1.0000044107437134, -1.0000044107437134, -1.0000044107437134], "name" : "NORMAL"}, {"bufferView" : 0, "byteOffset" : 3144, "componentType" : 5123, "count" : 756, "type" : "SCALAR", "max" : [698], "min" : [0]}, {"bufferView" : 4, "byteOffset" : 0, "componentType" : 5126, "count" : 699, "type" : "VEC3", "max" : [6.69291353225708, 7.4803147315979, 0.19685038924217224], "min" : [0, 0, 0], "name" : "POSITION"}, {"bufferView" : 4, "byteOffset" : 12, "componentType" : 5126, "count" : 699, "type" : "VEC3", "max" : [1.0000044107437134, 1.0000044107437134, 1.0000044107437134], "min" : [-1.0000044107437134, -1.0000044107437134, -1.0000044107437134], "name" : "NORMAL"}, {"bufferView" : 0, "byteOffset" : 4656, "componentType" : 5123, "count" : 132, "type" : "SCALAR", "max" : [126], "min" : [0]}, {"bufferView" : 5, "byteOffset" : 0, "componentType" : 5126, "count" : 127, "type" : "VEC3", "max" : [8.661417007446289, 5.511811256408691, 0.19685038924217224], "min" : [7.08661413192749, 4.3307085037231445, 0], "name" : "POSITION"}, {"bufferView" : 5, "byteOffset" : 12, "componentType" : 5126, "count" : 127, "type" : "VEC3", "max" : [1.0000044107437134, 1.0000044107437134, 1.0000044107437134], "min" : [-1.0000044107437134, -1.0000044107437134, -1.0000044107437134], "name" : "NORMAL"}, {"bufferView" : 0, "byteOffset" : 4920, "componentType" : 5123, "count" : 168, "type" : "SCALAR", "max" : [166], "min" : [0]}, {"bufferView" : 6, "byteOffset" : 0, "componentType" : 5126, "count" : 167, "type" : "VEC3", "max" : [5.905511856079102, 7.08661413192749, 0.19685038924217224], "min" : [3.149606227874756, 5.511811256408691, 5.551115123125783E-17], "name" : "POSITION"}, {"bufferView" : 6, "byteOffset" : 12, "componentType" : 5126, "count" : 167, "type" : "VEC3", "max" : [1.0000044107437134, 1.0000044107437134, 1.385865412762937E-16], "min" : [-1.0000044107437134, -1.0000044107437134, -1.385865412762937E-16], "name" : "NORMAL"}, {"bufferView" : 0, "byteOffset" : 5256, "componentType" : 5123, "count" : 24, "type" : "SCALAR", "max" : [22], "min" : [0]}, {"bufferView" : 7, "byteOffset" : 0, "componentType" : 5126, "count" : 23, "type" : "VEC3", "max" : [4.724409580230713, 5.118110179901123, 0.19685038924217224], "min" : [3.9370079040527344, 4.3307085037231445, 8.743006318923108E-16], "name" : "POSITION"}, {"bufferView" : 7, "byteOffset" : 12, "componentType" : 5126, "count" : 23, "type" : "VEC3", "max" : [1.0000044107437134, 1.0000044107437134, 1.385865412762937E-16], "min" : [-1.0000044107437134, -1.0000044107437134, -1.385865412762937E-16], "name" : "NORMAL"}], "asset" : {"generator" : "Aspose.3D 21.8.1", "version" : "2.0"}, "buffers" : [{"uri" : "data:application/octet-stream;base64,", "byteLength" : 68984}], "bufferViews" : [{"buffer" : 0, "byteOffset" : 0, "byteLength" : 5304, "target" : 34963}, {"buffer" : 0, "byteOffset" : 5308, "byteLength" : 29664, "byteStride" : 24, "target" : 34962}, {"buffer" : 0, "byteOffset" : 34976, "byteLength" : 7200, "byteStride" : 24, "target" : 34962}, {"buffer" : 0, "byteOffset" : 42180, "byteLength" : 864, "byteStride" : 24, "target" : 34962}, {"buffer" : 0, "byteOffset" : 43048, "byteLength" : 18144, "byteStride" : 24, "target" : 34962}, {"buffer" : 0, "byteOffset" : 61196, "byteLength" : 3168, "byteStride" : 24, "target" : 34962}, {"buffer" : 0, "byteOffset" : 64368, "byteLength" : 4032, "byteStride" : 24, "target" : 34962}, {"buffer" : 0, "byteOffset" : 68404, "byteLength" : 576, "byteStride" : 24, "target" : 34962}], "materials" : [{"name" : "", "pbrMetallicRoughness" : {"baseColorFactor" : [0, 0, 0, 1], "metallicFactor" : 0, "roughnessFactor" : 0}, "emissiveFactor" : [0, 0, 0], "alphaMode" : "OPAQUE", "doubleSided" : false}, {"name" : "", "pbrMetallicRoughness" : {"baseColorFactor" : [0, 0, 0, 1], "metallicFactor" : 0, "roughnessFactor" : 0}, "emissiveFactor" : [0, 0, 0], "alphaMode" : "OPAQUE", "doubleSided" : false}, {"name" : "", "pbrMetallicRoughness" : {"baseColorFactor" : [0, 0, 0, 1], "metallicFactor" : 0, "roughnessFactor" : 0}, "emissiveFactor" : [0, 0, 0], "alphaMode" : "OPAQUE", "doubleSided" : false}, {"name" : "", "pbrMetallicRoughness" : {"baseColorFactor" : [1, 1, 1, 1], "metallicFactor" : 0, "roughnessFactor" : 0}, "emissiveFactor" : [0, 0, 0], "alphaMode" : "OPAQUE", "doubleSided" : false}, {"name" : "", "pbrMetallicRoughness" : {"baseColorFactor" : [1, 1, 1, 1], "metallicFactor" : 0, "roughnessFactor" : 0}, "emissiveFactor" : [0, 0, 0], "alphaMode" : "OPAQUE", "doubleSided" : false}, {"name" : "", "pbrMetallicRoughness" : {"baseColorFactor" : [1, 1, 1, 1], "metallicFactor" : 0, "roughnessFactor" : 0}, "emissiveFactor" : [0, 0, 0], "alphaMode" : "OPAQUE", "doubleSided" : false}, {"name" : "", "pbrMetallicRoughness" : {"baseColorFactor" : [1, 1, 1, 1], "metallicFactor" : 0, "roughnessFactor" : 0}, "emissiveFactor" : [0, 0, 0], "alphaMode" : "OPAQUE", "doubleSided" : false}], "meshes" : [{"primitives" : [{"attributes" : {"POSITION" : 1, "NORMAL" : 2}, "indices" : 0, "material" : 0, "mode" : 4}, {"attributes" : {"POSITION" : 4, "NORMAL" : 5}, "indices" : 3, "material" : 1, "mode" : 4}, {"attributes" : {"POSITION" : 7, "NORMAL" : 8}, "indices" : 6, "material" : 2, "mode" : 4}]}, {"primitives" : [{"attributes" : {"POSITION" : 10, "NORMAL" : 11}, "indices" : 9, "material" : 3, "mode" : 4}, {"attributes" : {"POSITION" : 13, "NORMAL" : 14}, "indices" : 12, "material" : 4, "mode" : 4}, {"attributes" : {"POSITION" : 16, "NORMAL" : 17}, "indices" : 15, "material" : 5, "mode" : 4}, {"attributes" : {"POSITION" : 19, "NORMAL" : 20}, "indices" : 18, "material" : 6, "mode" : 4}]}], "nodes" : [{"mesh" : 0, "name" : "Component_1"}, {"children" : [0], "matrix" : [1, 0, 0, 0, 0, 1, 0, 0, 0, 0, 1, 0, -4.724409448818898, 4.163336342344337E-17, -0.1968503937007873, 1], "name" : "instance_0"}, {"mesh" : 1, "name" : "Component_3"}, {"children" : [2], "matrix" : [1, 0, 0, 0, 0, 1, 0, 0, 0, 0, 1, 0, -4.330708661417324, 0.3937007874015733, -0.09842519685039351, 1], "name" : "instance_1"}, {"children" : [1, 3], "name" : "SketchUp"}], "scene" : 0, "scenes" : [{"nodes" : [4]}]}