{
  "accessors": [
    {
      "bufferView": 2,
      "componentType": 5126,
      "count": 548,
      "max": [
        0.41579419374465942,
        0.40687310695648193,
        0.20198820531368256
      ],
      "min": [
        -0.53694999217987061,
        -0.46981021761894226,
        -0.22857533395290375
      ],
      "type": "VEC3"
    },
    {
      "bufferView": 2,
      "byteOffset": 6576,
      "componentType": 5126,
      "count": 548,
      "max": [
        0.99999994039535522,
        0.99999457597732544,
        1
      ],
      "min": [
        -0.99999994039535522,
        -0.99999457597732544,
        -1
      ],
      "type": "VEC3"
    },
    {
      "bufferView": 1,
      "componentType": 5126,
      "count": 548,
      "max": [
        0.99666368961334229,
        0.93509000539779663
      ],
      "min": [
        0.0027242624200880527,
        0.0027176286093890667
      ],
      "type": "VEC2"
    },
    {
      "bufferView": 0,
      "componentType": 5125,
      "count": 1524,
      "max": [
        547
      ],
      "min": [
        0
      ],
      "type": "SCALAR"
    },
    {
      "bufferView": 2,
      "byteOffset": 13152,
      "componentType": 5126,
      "count": 76,
      "max": [
        0.51310449838638306,
        0.038055062294006348,
        0.16126811504364014
      ],
      "min": [
        -0.51310449838638306,
        -0.036617398262023926,
        -0.074035763740539551
      ],
      "type": "VEC3"
    },
    {
      "bufferView": 2,
      "byteOffset": 14064,
      "componentType": 5126,
      "count": 76,
      "max": [
        1,
        1,
        1
      ],
      "min": [
        -1,
        -1,
        -1
      ],
      "type": "VEC3"
    },
    {
      "bufferView": 1,
      "byteOffset": 4384,
      "componentType": 5126,
      "count": 76,
      "max": [
        0.9680476188659668,
        0.7717244029045105
      ],
      "min": [
        0.0027226167730987072,
        0.19323213398456573
      ],
      "type": "VEC2"
    },
    {
      "bufferView": 0,
      "byteOffset": 6096,
      "componentType": 5125,
      "count": 156,
      "max": [
        75
      ],
      "min": [
        0
      ],
      "type": "SCALAR"
    },
    {
      "bufferView": 2,
      "byteOffset": 14976,
      "componentType": 5126,
      "count": 546,
      "max": [
        0.48406592011451721,
        1.3281668424606323,
        1.4399312734603882
      ],
      "min": [
        -0.46248522400856018,
        -1.5598224401473999,
        -1.2055535316467285
      ],
      "type": "VEC3"
    },
    {
      "bufferView": 2,
      "byteOffset": 21528,
      "componentType": 5126,
      "count": 546,
      "max": [
        1,
        0.98209452629089355,
        0.96650230884552002
      ],
      "min": [
        -1,
        -0.982094407081604,
        -1
      ],
      "type": "VEC3"
    },
    {
      "bufferView": 1,
      "byteOffset": 4992,
      "componentType": 5126,
      "count": 546,
      "max": [
        0.98864650726318359,
        0.97179585695266724
      ],
      "min": [
        0.0027260221540927887,
        0.002719278447329998
      ],
      "type": "VEC2"
    },
    {
      "bufferView": 0,
      "byteOffset": 6720,
      "componentType": 5125,
      "count": 1428,
      "max": [
        545
      ],
      "min": [
        0
      ],
      "type": "SCALAR"
    },
    {
      "bufferView": 2,
      "byteOffset": 28080,
      "componentType": 5126,
      "count": 54,
      "max": [
        0.56171500682830811,
        0.74292540550231934,
        0.68891197443008423
      ],
      "min": [
        -0.56171530485153198,
        -1.6007066965103149,
        -0.53423917293548584
      ],
      "type": "VEC3"
    },
    {
      "bufferView": 2,
      "byteOffset": 28728,
      "componentType": 5126,
      "count": 54,
      "max": [
        1,
        1,
        0.9674379825592041
      ],
      "min": [
        -1,
        -0.99992161989212036,
        -0.99990260601043701
      ],
      "type": "VEC3"
    },
    {
      "bufferView": 1,
      "byteOffset": 9360,
      "componentType": 5126,
      "count": 54,
      "max": [
        0.84555542469024658,
        0.68687134981155396
      ],
      "min": [
        0.0027182935737073421,
        0.0027179068420082331
      ],
      "type": "VEC2"
    },
    {
      "bufferView": 0,
      "byteOffset": 12432,
      "componentType": 5125,
      "count": 144,
      "max": [
        53
      ],
      "min": [
        0
      ],
      "type": "SCALAR"
    },
    {
      "bufferView": 2,
      "byteOffset": 29376,
      "componentType": 5126,
      "count": 76,
      "max": [
        0.47327518463134766,
        0.35977333784103394,
        0.35839205980300903
      ],
      "min": [
        -0.47327613830566406,
        -0.28572803735733032,
        -0.26140749454498291
      ],
      "type": "VEC3"
    },
    {
      "bufferView": 2,
      "byteOffset": 30288,
      "componentType": 5126,
      "count": 76,
      "max": [
        1,
        1,
        0.94572997093200684
      ],
      "min": [
        -1,
        -1,
        -0.99974775314331055
      ],
      "type": "VEC3"
    },
    {
      "bufferView": 1,
      "byteOffset": 9792,
      "componentType": 5126,
      "count": 76,
      "max": [
        0.92418783903121948,
        0.65473616123199463
      ],
      "min": [
        0.050547249615192413,
        0.23132616281509399
      ],
      "type": "VEC2"
    },
    {
      "bufferView": 0,
      "byteOffset": 13008,
      "componentType": 5125,
      "count": 228,
      "max": [
        75
      ],
      "min": [
        0
      ],
      "type": "SCALAR"
    },
    {
      "bufferView": 2,
      "byteOffset": 31200,
      "componentType": 5126,
      "count": 78,
      "max": [
        0.47327518463134766,
        0.27584266662597656,
        0.16420364379882812
      ],
      "min": [
        -0.47327613830566406,
        -0.3696587085723877,
        -0.099259138107299805
      ],
      "type": "VEC3"
    },
    {
      "bufferView": 2,
      "byteOffset": 32136,
      "componentType": 5126,
      "count": 78,
      "max": [
        1,
        1,
        0.98983287811279297
      ],
      "min": [
        -1,
        -1,
        -1
      ],
      "type": "VEC3"
    },
    {
      "bufferView": 1,
      "byteOffset": 10400,
      "componentType": 5126,
      "count": 78,
      "max": [
        0.97320133447647095,
        0.71083861589431763
      ],
      "min": [
        0.37012568116188049,
        0.29664903879165649
      ],
      "type": "VEC2"
    },
    {
      "bufferView": 0,
      "byteOffset": 13920,
      "componentType": 5125,
      "count": 228,
      "max": [
        77
      ],
      "min": [
        0
      ],
      "type": "SCALAR"
    },
    {
      "bufferView": 2,
      "byteOffset": 33072,
      "componentType": 5126,
      "count": 264,
      "max": [
        0.080695629119873047,
        0.27023839950561523,
        0.27023816108703613
      ],
      "min": [
        -0.032404422760009766,
        -0.27023911476135254,
        -0.27023923397064209
      ],
      "type": "VEC3"
    },
    {
      "bufferView": 2,
      "byteOffset": 36240,
      "componentType": 5126,
      "count": 264,
      "max": [
        1,
        1,
        1
      ],
      "min": [
        -1,
        -1,
        -1
      ],
      "type": "VEC3"
    },
    {
      "bufferView": 1,
      "byteOffset": 11024,
      "componentType": 5126,
      "count": 264,
      "max": [
        0.99656808376312256,
        0.99260914325714111
      ],
      "min": [
        0.0027233243454247713,
        0.040827415883541107
      ],
      "type": "VEC2"
    },
    {
      "bufferView": 0,
      "byteOffset": 14832,
      "componentType": 5125,
      "count": 564,
      "max": [
        263
      ],
      "min": [
        0
      ],
      "type": "SCALAR"
    },
    {
      "bufferView": 2,
      "byteOffset": 39408,
      "componentType": 5126,
      "count": 264,
      "max": [
        0.080695629119873047,
        0.27023893594741821,
        0.27023816108703613
      ],
      "min": [
        -0.032404422760009766,
        -0.27023860812187195,
        -0.27023923397064209
      ],
      "type": "VEC3"
    },
    {
      "bufferView": 2,
      "byteOffset": 42576,
      "componentType": 5126,
      "count": 264,
      "max": [
        1,
        1,
        1
      ],
      "min": [
        -1,
        -1,
        -1
      ],
      "type": "VEC3"
    },
    {
      "bufferView": 1,
      "byteOffset": 13136,
      "componentType": 5126,
      "count": 264,
      "max": [
        0.99605125188827515,
        0.95450937747955322
      ],
      "min": [
        0.014628092758357525,
        0.0027262840885668993
      ],
      "type": "VEC2"
    },
    {
      "bufferView": 0,
      "byteOffset": 17088,
      "componentType": 5125,
      "count": 564,
      "max": [
        263
      ],
      "min": [
        0
      ],
      "type": "SCALAR"
    },
    {
      "bufferView": 2,
      "byteOffset": 45744,
      "componentType": 5126,
      "count": 264,
      "max": [
        0.032409191131591797,
        0.27023893594741821,
        0.27023816108703613
      ],
      "min": [
        -0.080690860748291016,
        -0.27023860812187195,
        -0.27023923397064209
      ],
      "type": "VEC3"
    },
    {
      "bufferView": 2,
      "byteOffset": 48912,
      "componentType": 5126,
      "count": 264,
      "max": [
        1,
        1,
        1
      ],
      "min": [
        -1,
        -1,
        -1
      ],
      "type": "VEC3"
    },
    {
      "bufferView": 1,
      "byteOffset": 15248,
      "componentType": 5126,
      "count": 264,
      "max": [
        0.99564158916473389,
        0.95450925827026367
      ],
      "min": [
        0.0027254782617092133,
        0.0027228523977100849
      ],
      "type": "VEC2"
    },
    {
      "bufferView": 0,
      "byteOffset": 19344,
      "componentType": 5125,
      "count": 564,
      "max": [
        263
      ],
      "min": [
        0
      ],
      "type": "SCALAR"
    },
    {
      "bufferView": 2,
      "byteOffset": 52080,
      "componentType": 5126,
      "count": 264,
      "max": [
        0.032409191131591797,
        0.27023839950561523,
        0.27023816108703613
      ],
      "min": [
        -0.080690860748291016,
        -0.27023911476135254,
        -0.27023923397064209
      ],
      "type": "VEC3"
    },
    {
      "bufferView": 2,
      "byteOffset": 55248,
      "componentType": 5126,
      "count": 264,
      "max": [
        1,
        1,
        1
      ],
      "min": [
        -1,
        -1,
        -1
      ],
      "type": "VEC3"
    },
    {
      "bufferView": 1,
      "byteOffset": 17360,
      "componentType": 5126,
      "count": 264,
      "max": [
        0.99728214740753174,
        0.95450246334075928
      ],
      "min": [
        0.002725040540099144,
        0.16600798070430756
      ],
      "type": "VEC2"
    },
    {
      "bufferView": 0,
      "byteOffset": 21600,
      "componentType": 5125,
      "count": 564,
      "max": [
        263
      ],
      "min": [
        0
      ],
      "type": "SCALAR"
    },
    {
      "bufferView": 2,
      "byteOffset": 58416,
      "componentType": 5126,
      "count": 216,
      "max": [
        0.67172431945800781,
        0.67754232883453369,
        0.17542815208435059
      ],
      "min": [
        -0.671722412109375,
        -0.67754262685775757,
        -0.22301983833312988
      ],
      "type": "VEC3"
    },
    {
      "bufferView": 2,
      "byteOffset": 61008,
      "componentType": 5126,
      "count": 216,
      "max": [
        1,
        1,
        1
      ],
      "min": [
        -1,
        -1,
        -1
      ],
      "type": "VEC3"
    },
    {
      "bufferView": 1,
      "byteOffset": 19472,
      "componentType": 5126,
      "count": 216,
      "max": [
        0.96522819995880127,
        0.80211353302001953
      ],
      "min": [
        0.0027175247669219971,
        0.00271636713296175
      ],
      "type": "VEC2"
    },
    {
      "bufferView": 0,
      "byteOffset": 23856,
      "componentType": 5125,
      "count": 564,
      "max": [
        215
      ],
      "min": [
        0
      ],
      "type": "SCALAR"
    },
    {
      "bufferView": 3,
      "componentType": 5126,
      "count": 498,
      "max": [
        10.375
      ],
      "min": [
        0
      ],
      "type": "SCALAR"
    },
    {
      "bufferView": 4,
      "componentType": 5126,
      "count": 498,
      "max": [
        94.525398254394531,
        100.26020812988281,
        110.82810211181641
      ],
      "min": [
        94.525398254394531,
        100.26020812988281,
        86.863967895507812
      ],
      "type": "VEC3"
    },
    {
      "bufferView": 3,
      "byteOffset": 1992,
      "componentType": 5126,
      "count": 498,
      "max": [
        10.375
      ],
      "min": [
        0
      ],
      "type": "SCALAR"
    },
    {
      "bufferView": 4,
      "byteOffset": 5976,
      "componentType": 5126,
      "count": 498,
      "max": [
        100,
        100,
        110.82810211181641
      ],
      "min": [
        100,
        100,
        86.863967895507812
      ],
      "type": "VEC3"
    }
  ],
  "animations": [
    {
      "channels": [
        {
          "sampler": 0,
          "target": {
            "node": 5,
            "path": "scale"
          }
        }
      ],
      "name": "Engine|EngineAction",
      "samplers": [
        {
          "input": 44,
          "interpolation": "LINEAR",
          "output": 45
        }
      ]
    },
    {
      "channels": [
        {
          "sampler": 0,
          "target": {
            "node": 11,
            "path": "scale"
          }
        }
      ],
      "name": "Bag|EngineAction",
      "samplers": [
        {
          "input": 46,
          "interpolation": "LINEAR",
          "output": 47
        }
      ]
    }
  ],
  "asset": {
    "extras": {
      "author": "Batuhan13 (https://sketchfab.com/Batuhan13)",
      "license": "CC-BY-4.0 (http://creativecommons.org/licenses/by/4.0/)",
      "source": "https://sketchfab.com/3d-models/lawn-mower-low-poly-be7ab00cce174ef1b6045017493591c6",
      "title": "Lawn Mower Low Poly"
    },
    "generator": "Sketchfab-8.0.0",
    "version": "2.0"
  },
  "bufferViews": [
    {
      "buffer": 0,
      "byteLength": 26112,
      "byteOffset": 0,
      "name": "floatBufferViews",
      "target": 34963
    },
    {
      "buffer": 0,
      "byteLength": 21200,
      "byteOffset": 26112,
      "byteStride": 8,
      "name": "floatBufferViews",
      "target": 34962
    },
    {
      "buffer": 0,
      "byteLength": 63600,
      "byteOffset": 47312,
      "byteStride": 12,
      "name": "floatBufferViews",
      "target": 34962
    },
    {
      "buffer": 0,
      "byteLength": 3984,
      "byteOffset": 110912,
      "name": "floatBufferViews"
    },
    {
      "buffer": 0,
      "byteLength": 11952,
      "byteOffset": 114896,
      "byteStride": 12,
      "name": "floatBufferViews"
    }
  ],
  "buffers": [
    {
      "byteLength": 126848,
      "uri": "scene.bin"
    }
  ],
  "images": [
    {
      "uri": "textures/LawnMover_baseColor.jpg"
    }
  ],
  "materials": [
    {
      "doubleSided": true,
      "emissiveFactor": [
        0,
        0,
        0
      ],
      "name": "LawnMover",
      "pbrMetallicRoughness": {
        "baseColorFactor": [
          1,
          1,
          1,
          1
        ],
        "baseColorTexture": {
          "index": 0,
          "texCoord": 0
        },
        "metallicFactor": 0,
        "roughnessFactor": 0.82111456180001685
      }
    }
  ],
  "meshes": [
    {
      "name": "Engine_LawnMover_0",
      "primitives": [
        {
          "attributes": {
            "NORMAL": 1,
            "POSITION": 0,
            "TEXCOORD_0": 2
          },
          "indices": 3,
          "material": 0,
          "mode": 4
        }
      ]
    },
    {
      "name": "Blade_LawnMover_0",
      "primitives": [
        {
          "attributes": {
            "NORMAL": 5,
            "POSITION": 4,
            "TEXCOORD_0": 6
          },
          "indices": 7,
          "material": 0,
          "mode": 4
        }
      ]
    },
    {
      "name": "HandleBar_LawnMover_0",
      "primitives": [
        {
          "attributes": {
            "NORMAL": 9,
            "POSITION": 8,
            "TEXCOORD_0": 10
          },
          "indices": 11,
          "material": 0,
          "mode": 4
        }
      ]
    },
    {
      "name": "Bag_LawnMover_0",
      "primitives": [
        {
          "attributes": {
            "NORMAL": 13,
            "POSITION": 12,
            "TEXCOORD_0": 14
          },
          "indices": 15,
          "material": 0,
          "mode": 4
        }
      ]
    },
    {
      "name": "BackBody_LawnMover_0",
      "primitives": [
        {
          "attributes": {
            "NORMAL": 17,
            "POSITION": 16,
            "TEXCOORD_0": 18
          },
          "indices": 19,
          "material": 0,
          "mode": 4
        }
      ]
    },
    {
      "name": "FrontBody_LawnMover_0",
      "primitives": [
        {
          "attributes": {
            "NORMAL": 21,
            "POSITION": 20,
            "TEXCOORD_0": 22
          },
          "indices": 23,
          "material": 0,
          "mode": 4
        }
      ]
    },
    {
      "name": "WheelFL_LawnMover_0",
      "primitives": [
        {
          "attributes": {
            "NORMAL": 25,
            "POSITION": 24,
            "TEXCOORD_0": 26
          },
          "indices": 27,
          "material": 0,
          "mode": 4
        }
      ]
    },
    {
      "name": "WheelBL_LawnMover_0",
      "primitives": [
        {
          "attributes": {
            "NORMAL": 29,
            "POSITION": 28,
            "TEXCOORD_0": 30
          },
          "indices": 31,
          "material": 0,
          "mode": 4
        }
      ]
    },
    {
      "name": "WheelBR_LawnMover_0",
      "primitives": [
        {
          "attributes": {
            "NORMAL": 33,
            "POSITION": 32,
            "TEXCOORD_0": 34
          },
          "indices": 35,
          "material": 0,
          "mode": 4
        }
      ]
    },
    {
      "name": "WheelFR_LawnMover_0",
      "primitives": [
        {
          "attributes": {
            "NORMAL": 37,
            "POSITION": 36,
            "TEXCOORD_0": 38
          },
          "indices": 39,
          "material": 0,
          "mode": 4
        }
      ]
    },
    {
      "name": "MainBody_LawnMover_0",
      "primitives": [
        {
          "attributes": {
            "NORMAL": 41,
            "POSITION": 40,
            "TEXCOORD_0": 42
          },
          "indices": 43,
          "material": 0,
          "mode": 4
        }
      ]
    }
  ],
  "nodes": [
    {
      "children": [
        1
      ],
      "name": "RootNode (gltf orientation matrix)",
      "rotation": [
        -0.70710678118654746,
        -0,
        -0,
        0.70710678118654757
      ]
    },
    {
      "children": [
        2
      ],
      "name": "RootNode (model correction matrix)"
    },
    {
      "children": [
        3
      ],
      "matrix": [
        1,
        0,
        0,
        0,
        0,
        0,
        1,
        0,
        0,
        -1,
        0,
        0,
        0,
        0,
        0,
        1
      ],
      "name": "167fae6bef6f4a4cb271dd74444fc789.fbx"
    },
    {
      "children": [
        4
      ],
      "name": ""
    },
    {
      "children": [
        5,
        7,
        9,
        11,
        13,
        15,
        17,
        19,
        21,
        23,
        25
      ],
      "name": "RootNode"
    },
    {
      "children": [
        6
      ],
      "name": "Engine",
      "rotation": [
        -0.7071068286895752,
        0,
        0,
        0.70710670948028564
      ],
      "scale": [
        94.525398254394531,
        100.26020812988281,
        105.28102111816406
      ],
      "translation": [
        10.804540634155273,
        105.551025390625,
        -134.04527282714844
      ]
    },
    {
      "mesh": 0,
      "name": "Engine_LawnMover_0"
    },
    {
      "children": [
        8
      ],
      "name": "Blade",
      "rotation": [
        -0.7071068286895752,
        0,
        0,
        0.70710670948028564
      ],
      "scale": [
        100,
        100,
        100
      ],
      "translation": [
        0,
        65.192840576171875,
        -130.38909912109375
      ]
    },
    {
      "mesh": 1,
      "name": "Blade_LawnMover_0"
    },
    {
      "children": [
        10
      ],
      "name": "HandleBar",
      "rotation": [
        -0.7071068286895752,
        0,
        0,
        0.70710670948028564
      ],
      "scale": [
        100,
        100,
        100
      ],
      "translation": [
        -1.0790358781814575,
        196.16949462890625,
        57.698093414306641
      ]
    },
    {
      "mesh": 2,
      "name": "HandleBar_LawnMover_0"
    },
    {
      "children": [
        12
      ],
      "name": "Bag",
      "rotation": [
        -0.7071068286895752,
        0,
        0,
        0.70710670948028564
      ],
      "scale": [
        100,
        100,
        103.56057739257812
      ],
      "translation": [
        2.384185791015625e-05,
        99.069084167480469,
        57.824832916259766
      ]
    },
    {
      "mesh": 3,
      "name": "Bag_LawnMover_0"
    },
    {
      "children": [
        14
      ],
      "name": "BackBody",
      "rotation": [
        -0.7071068286895752,
        0,
        0,
        0.70710670948028564
      ],
      "scale": [
        100,
        100,
        100
      ],
      "translation": [
        4.76837158203125e-05,
        78.284492492675781,
        -46.418292999267578
      ]
    },
    {
      "mesh": 4,
      "name": "BackBody_LawnMover_0"
    },
    {
      "children": [
        16
      ],
      "name": "FrontBody",
      "rotation": [
        -0.7071068286895752,
        0,
        0,
        0.70710670948028564
      ],
      "scale": [
        100,
        100,
        100
      ],
      "translation": [
        4.76837158203125e-05,
        62.069656372070312,
        -215.18046569824219
      ]
    },
    {
      "mesh": 5,
      "name": "FrontBody_LawnMover_0"
    },
    {
      "children": [
        18
      ],
      "name": "WheelFL",
      "rotation": [
        -0.7071068286895752,
        0,
        0,
        0.70710670948028564
      ],
      "scale": [
        100,
        100,
        100
      ],
      "translation": [
        -55.397129058837891,
        58.942581176757812,
        -222.47103881835938
      ]
    },
    {
      "mesh": 6,
      "name": "WheelFL_LawnMover_0"
    },
    {
      "children": [
        20
      ],
      "name": "WheelBL",
      "rotation": [
        -0.7071068286895752,
        0,
        0,
        0.70710670948028564
      ],
      "scale": [
        100,
        100,
        100
      ],
      "translation": [
        -55.397129058837891,
        58.942581176757812,
        -50.875370025634766
      ]
    },
    {
      "mesh": 7,
      "name": "WheelBL_LawnMover_0"
    },
    {
      "children": [
        22
      ],
      "name": "WheelBR",
      "rotation": [
        -0.7071068286895752,
        0,
        0,
        0.70710670948028564
      ],
      "scale": [
        100,
        100,
        100
      ],
      "translation": [
        55.396652221679688,
        58.942581176757812,
        -50.875370025634766
      ]
    },
    {
      "mesh": 8,
      "name": "WheelBR_LawnMover_0"
    },
    {
      "children": [
        24
      ],
      "name": "WheelFR",
      "rotation": [
        -0.7071068286895752,
        0,
        0,
        0.70710670948028564
      ],
      "scale": [
        100,
        100,
        100
      ],
      "translation": [
        55.396652221679688,
        58.942581176757812,
        -222.47103881835938
      ]
    },
    {
      "mesh": 9,
      "name": "WheelFR_LawnMover_0"
    },
    {
      "children": [
        26
      ],
      "name": "MainBody",
      "rotation": [
        -0.7071068286895752,
        0,
        0,
        0.70710670948028564
      ],
      "scale": [
        100,
        100,
        100
      ],
      "translation": [
        -9.5367431640625e-05,
        74.445724487304688,
        -130.30513000488281
      ]
    },
    {
      "mesh": 10,
      "name": "MainBody_LawnMover_0"
    }
  ],
  "samplers": [
    {
      "magFilter": 9729,
      "minFilter": 9987,
      "wrapS": 10497,
      "wrapT": 10497
    }
  ],
  "scene": 0,
  "scenes": [
    {
      "name": "OSG_Scene",
      "nodes": [
        0
      ]
    }
  ],
  "textures": [
    {
      "sampler": 0,
      "source": 0
    }
  ]
}

