<?xml version="1.0" standalone="no"?>
<!DOCTYPE svg PUBLIC "-//W3C//DTD SVG 1.1//EN" "http://www.w3.org/Graphics/SVG/1.1/DTD/svg11.dtd" >
<svg xmlns="http://www.w3.org/2000/svg" xmlns:xlink="http://www.w3.org/1999/xlink" version="1.1">
<metadata>
Created by FontForge 20170731 at Thu Oct 31 01:04:17 2013
 By Aleksey,,,
(c)1987/1990/1992 Adobe Systems Inc.
</metadata>
<defs>
<font id="Yu-Gi-Oh!ITCStoneSerifBoldSmallCaps" horiz-adv-x="796" >
  <font-face 
    font-family="Yu-Gi-Oh!ITCStoneSerifSmallCaps"
    font-weight="700"
    font-variant="small-caps"
    font-stretch="normal"
    units-per-em="1000"
    panose-1="0 0 0 0 0 0 0 0 0 0"
    ascent="800"
    descent="-200"
    x-height="550"
    cap-height="700"
    bbox="-150 -250 1464 1150"
    underline-thickness="50"
    underline-position="-175"
    unicode-range="U+0020-FB02"
  />
<missing-glyph horiz-adv-x="315" 
 />
    <glyph glyph-name=".notdef" horiz-adv-x="315" 
 />
    <glyph glyph-name=".null" horiz-adv-x="0" 
 />
    <glyph glyph-name="nonmarkingreturn" horiz-adv-x="333" 
 />
    <glyph glyph-name="space" unicode=" " horiz-adv-x="315" 
 />
    <glyph glyph-name="exclam" unicode="!" horiz-adv-x="370" 
d="M167 225q-9 42 -20 105l-41 236q-11 62 -18 101q-8 36 25 54q28 14 79 14q50 0 78 -14q33 -18 26 -54q-8 -39 -19 -101l-41 -236l-19 -105h-50zM127 147q28 27 66 27q36 0 64 -28t28 -64q0 -37 -28 -65q-27 -29 -63 -29q-39 0 -67 28t-28 66t28 65z" />
    <glyph glyph-name="quotedbl" unicode="&#x22;" horiz-adv-x="444" 
d="M144 442q-1 -6 -2 -10q-2 -6 -7 -9q-4 -4 -12 -4t-13 4q-3 3 -6 9q-1 3 -2 10l-32 212q-1 5 -1 11q-1 6 -1 12q0 15 4 27q12 31 51 31q40 0 52 -31q4 -12 4 -27q0 -6 -1 -12q0 -5 -1 -11zM340 442q-1 -6 -2 -10q-2 -6 -7 -9q-4 -4 -12 -4t-13 4q-3 3 -6 9q-1 3 -2 10
l-32 212q-1 5 -1 11q-1 6 -1 12q0 15 4 27q12 31 51 31q40 0 52 -31q4 -12 4 -27q0 -6 -1 -12q0 -5 -1 -11z" />
    <glyph glyph-name="numbersign" unicode="#" horiz-adv-x="630" 
d="M535 195h-98l-25 -195h-77l25 195h-123l-30 -195h-77l28 195h-89v110h104l15 104h-92v108h108l24 183h78l-25 -183h122l26 183h78l-26 -183h79v-108h-94l-13 -104h82v-110zM267 409l-15 -104h123l14 104h-122z" />
    <glyph glyph-name="dollar" unicode="$" horiz-adv-x="630" 
d="M282 33q81 38 81 114q0 69 -43 104zM356 454q29 -19 44 -29q24 -16 42 -29q44 -32 72 -59q68 -68 68 -145q0 -103 -88 -155q-78 -47 -220 -49l-15 -86h-52l16 86q-100 5 -163 29q-6 4 -6 14v157h33q15 -60 50 -104q43 -53 94 -51l45 255l-37 23q-25 15 -39 25
q-46 30 -75 54q-37 32 -57 63q-22 36 -22 73q0 172 302 170l6 39h51l-6 -39q20 0 52 -3q40 -4 65 -11q9 -4 9 -13v-142h-30l-19 39q-12 22 -24 39q-30 43 -60 55zM342 660q-80 -22 -80 -97q0 -53 48 -83z" />
    <glyph glyph-name="percent" unicode="%" horiz-adv-x="1037" 
d="M844 53q4 19 5 62q1 18 1 48v62q0 122 -6 146q-7 29 -42 29t-42 -29q-6 -24 -6 -146v-62q0 -30 1 -48q1 -43 5 -62q7 -33 42 -33t42 33zM660 55q-56 63 -56 169q0 77 47 135q56 68 151 68t151 -68q47 -58 47 -135q0 -106 -55 -169q-55 -62 -143 -62t-142 62zM292 0
l365 700h83l-364 -700h-84zM277 338q4 19 5 62q1 18 1 47v62q0 123 -6 147q-7 29 -42 29t-42 -29q-6 -24 -6 -147v-62q0 -29 1 -47q1 -43 5 -62q7 -33 42 -33t42 33zM93 340q-56 63 -56 168q0 78 47 136q55 68 151 68t151 -68q47 -58 47 -136q0 -105 -55 -168
q-55 -62 -143 -62t-142 62z" />
    <glyph glyph-name="ampersand" unicode="&#x26;" horiz-adv-x="833" 
d="M272 326q-21 -29 -30 -66q-7 -29 -7 -68q0 -60 40 -101q42 -43 105 -43q35 0 64 11q35 12 60 39zM810 485l-66 -48h-73q16 -132 -51 -241l75 -71l96 -96v-29h-196q-42 42 -65 70l-29 -22q-23 -16 -46 -27q-31 -15 -65 -23q-42 -10 -90 -10q-67 0 -118 21q-44 18 -75 52
q-27 29 -40 67q-12 33 -12 66q0 44 19 79q16 31 45 53q24 18 55 29q26 9 50 11l-26 22q-14 12 -23 21q-25 23 -40 42q-37 48 -37 110q0 71 68 112q64 39 160 39q42 0 81 -12q33 -10 66 -28v-92h-43q-28 97 -94 97q-28 0 -48 -25q-18 -22 -18 -47q0 -53 37 -99q15 -18 44 -46
l57 -55l178 -185q28 56 23 114q-6 62 -47 103h-100v20l64 48h284v-20z" />
    <glyph glyph-name="quotesingle" unicode="'" horiz-adv-x="241" 
d="M141 442q-1 -6 -2 -10q-2 -6 -7 -9q-4 -4 -12 -4t-13 4q-3 3 -6 9q-1 3 -2 10l-32 212q-1 5 -1 11q-1 6 -1 12q0 15 4 27q12 31 51 31q40 0 52 -31q4 -12 4 -27q0 -6 -1 -12q0 -5 -1 -11z" />
    <glyph glyph-name="parenleft" unicode="(" horiz-adv-x="407" 
d="M368 -206q-140 76 -212 190q-79 124 -79 293q0 147 70 261q74 119 224 197l21 -36q-95 -57 -128 -175q-15 -50 -20 -118q-2 -29 -3 -64q-1 -29 -1 -67v-63q0 -36 2 -62q3 -68 15 -118q15 -60 45 -106q34 -51 90 -90z" />
    <glyph glyph-name="parenright" unicode=")" horiz-adv-x="407" 
d="M15 -164q56 39 90 90q30 46 45 106q12 50 15 118q2 26 2 62v63q0 38 -1 67q-1 35 -3 64q-5 68 -19 118q-34 118 -129 175l21 36q150 -78 224 -197q70 -114 70 -261q0 -169 -79 -293q-72 -114 -212 -190z" />
    <glyph glyph-name="asterisk" unicode="*" horiz-adv-x="444" 
d="M286 700l-32 -130l116 72l42 -122l-138 -11l104 -85l-104 -80l-52 127l-52 -127l-104 80l104 85l-138 11l42 122l116 -72l-32 130h128z" />
    <glyph glyph-name="plus" unicode="+" horiz-adv-x="630" 
d="M267 506h96v-205h204v-96h-204v-205h-96v205h-204v96h204v205z" />
    <glyph glyph-name="comma" unicode="," horiz-adv-x="315" 
d="M16 -134q36 37 55 74q15 31 18 64q3 25 -2 54l-7 44q-1 11 40 41q41 28 55 28q21 0 44 -34q23 -32 23 -58q0 -13 -21 -48q-17 -29 -49 -73q-25 -36 -58 -79l-48 -61z" />
    <glyph glyph-name="hyphen" unicode="-" horiz-adv-x="333" 
d="M42 192v92h249v-92h-249z" />
    <glyph glyph-name="period" unicode="." horiz-adv-x="315" 
d="M92 147q28 27 66 27q37 0 64 -28q28 -28 28 -64q0 -37 -27 -65q-28 -29 -64 -29q-38 0 -67 28q-28 28 -28 66t28 65z" />
    <glyph glyph-name="slash" unicode="/" horiz-adv-x="574" 
d="M36 -108l408 843h94l-409 -843h-93z" />
    <glyph glyph-name="zero" unicode="0" horiz-adv-x="630" 
d="M103 91q-83 105 -83 281q0 129 70 226q38 53 91 82q59 32 133 32t133 -32q53 -29 92 -82q70 -97 70 -226q0 -175 -83 -281q-81 -103 -212 -103t-211 103zM355 38q19 12 30 43q24 68 24 290q0 193 -24 253q-18 46 -71 46t-71 -46q-23 -60 -23 -253q0 -222 23 -290
q11 -31 30 -43q14 -8 41 -8t41 8z" />
    <glyph glyph-name="one" unicode="1" horiz-adv-x="630" 
d="M444 147q0 -52 5 -79q4 -23 119 -30v-38h-445v38q113 8 117 30q4 27 4 79v415q0 28 -35 31q-28 2 -66 -10l-48 -15l-11 46l360 98v-565z" />
    <glyph glyph-name="two" unicode="2" horiz-adv-x="630" 
d="M587 180l-62 -180h-466v95q6 8 19 20l65 51q21 17 37 31l36 33q20 18 36 34q39 38 65 71q64 83 64 158q0 41 -15 69q-12 23 -34 36q-16 10 -37 15l-14 2h-10q-39 0 -69 -25q-39 -32 -53 -98h-61v105q77 115 242 115q116 0 184 -51q64 -49 64 -129q0 -41 -19 -82
q-17 -36 -48 -72q-27 -30 -67 -63q-17 -14 -37 -29l-36 -27q-117 -85 -191 -129v-2h257q28 1 45 4q44 9 59 48h46z" />
    <glyph glyph-name="three" unicode="3" horiz-adv-x="630" 
d="M158 401q184 6 184 152q0 56 -33 88q-27 27 -63 27q-29 0 -54 -21q-33 -28 -57 -93l-53 19v94q84 45 207 45q52 0 95 -7q48 -8 84 -24q82 -37 86 -115q2 -152 -212 -180v-2q243 -22 246 -193q2 -100 -90 -156q-87 -53 -240 -57q-33 1 -66 7q-28 6 -55 15q-22 8 -42 18
q-15 7 -25 14l-34 103q-4 12 6 20l36 25q20 16 27 6l74 -104q10 -15 21 -25q30 -29 60 -29q45 0 78 40q38 45 38 119q0 63 -26 101q-22 32 -62 47q-31 11 -73 12q-13 1 -32 1q-3 -1 -7 -1h-18v54z" />
    <glyph glyph-name="four" unicode="4" horiz-adv-x="630" 
d="M523 308h86v-108h-86v-58q0 -50 4 -75q3 -15 28 -21q10 -2 28 -4l34 -4v-38h-420v38q118 7 122 29q4 25 4 75v58h-295l-20 59q14 27 62 95q21 30 48 67q24 33 53 71q24 33 52 70q22 30 47 62l58 76h195v-392zM323 308v286q-48 -48 -107 -132q-25 -35 -52 -78l-48 -76h207
z" />
    <glyph glyph-name="five" unicode="5" horiz-adv-x="630" 
d="M553 700l-50 -132h-284l-25 -76q110 -4 189 -30q70 -23 115 -63q40 -36 58 -82q16 -40 16 -87q0 -64 -30 -115q-27 -44 -74 -74q-42 -27 -94 -41q-47 -12 -90 -12q-150 0 -199 37l-37 95q-3 6 -3 11q1 6 7 11l41 41q12 13 18 3l56 -88q19 -30 44 -45q34 -21 85 -21
q46 0 79 31q33 29 33 69q0 155 -332 182l128 386h349z" />
    <glyph glyph-name="six" unicode="6" horiz-adv-x="630" 
d="M547 662q-122 1 -211 -84q-82 -79 -102 -197l7 4q3 1 8 4l16 8q21 10 36 17q45 17 94 17q85 0 140 -53q60 -58 60 -164q-1 -96 -71 -159q-74 -67 -199 -67q-129 0 -209 86q-79 85 -77 217q3 165 144 285q144 123 364 136v-50zM250 99q29 -52 79 -52q44 0 70 49
q23 43 23 99q0 72 -25 117q-28 49 -76 49q-97 0 -97 -123q-3 -87 26 -139z" />
    <glyph glyph-name="seven" unicode="7" horiz-adv-x="630" 
d="M281 548q-43 0 -68 -7q-35 -10 -51 -37h-38v196h478v-55q-21 -45 -65 -132l-43 -84q-20 -40 -47 -91l-174 -338h-175l90 137q26 40 44 69q24 37 45 68q48 74 87 137q45 72 84 137h-167z" />
    <glyph glyph-name="eight" unicode="8" horiz-adv-x="630" 
d="M314 679q-107 0 -107 -102q0 -45 41 -80q33 -30 99 -57q74 33 74 126q0 113 -107 113zM400 60q37 34 37 89q0 53 -57 97q-22 16 -56 34l-58 30q-42 -24 -63 -54q-24 -35 -24 -86q0 -58 41 -100q40 -42 92 -42q53 0 88 32zM489 674q76 -42 76 -116q0 -35 -18 -66
q-15 -27 -43 -48q-46 -36 -88 -41v-2q3 -2 8 -4l60 -29q39 -21 64 -43q31 -26 48 -59q18 -37 18 -83q0 -87 -85 -141q-83 -54 -214 -54q-141 0 -220 53q-79 52 -79 143q0 39 18 73q15 28 43 52q24 20 55 35q24 12 53 22q-66 34 -102 75q-43 48 -43 105q0 81 84 126
q75 40 189 40q107 0 176 -38z" />
    <glyph glyph-name="nine" unicode="9" horiz-adv-x="630" 
d="M87 38q269 48 306 286q-33 -25 -62 -37q-42 -18 -92 -18q-85 0 -140 53q-61 58 -60 164q0 96 71 159q75 67 204 67q120 0 197 -67q85 -73 83 -205q-3 -169 -146 -302q-70 -65 -160 -104q-95 -41 -201 -46v50zM383 601q-28 52 -71 52q-49 0 -76 -49q-23 -42 -23 -99
q0 -72 25 -117q27 -49 77 -49q40 0 67 33q29 35 29 90q3 85 -28 139z" />
    <glyph glyph-name="colon" unicode=":" horiz-adv-x="315" 
d="M92 147q28 27 66 27q37 0 64 -28q28 -28 28 -64q0 -37 -27 -65q-28 -29 -64 -29q-38 0 -67 28q-28 28 -28 66t28 65zM92 485q28 27 66 27q37 0 64 -28q28 -28 28 -64q0 -37 -27 -65q-28 -29 -64 -29q-38 0 -67 28q-28 28 -28 66t28 65z" />
    <glyph glyph-name="semicolon" unicode=";" horiz-adv-x="315" 
d="M13 -136q36 37 55 74q15 31 18 64q3 25 -2 54l-7 44q-1 11 40 41q41 28 55 28q21 0 44 -34q23 -32 23 -58q0 -13 -21 -48q-17 -29 -49 -73q-25 -36 -58 -79l-48 -61zM91 485q28 27 66 27q37 0 64 -28q28 -28 28 -64q0 -37 -27 -65q-28 -29 -64 -29q-38 0 -67 28
q-28 28 -28 66t28 65z" />
    <glyph glyph-name="less" unicode="&#x3c;" horiz-adv-x="630" 
d="M569 -8l-509 234v54l509 234v-93l-366 -168l366 -168v-93z" />
    <glyph glyph-name="equal" unicode="=" horiz-adv-x="630" 
d="M567 302h-504v96h504v-96zM567 108h-504v96h504v-96z" />
    <glyph glyph-name="greater" unicode="&#x3e;" horiz-adv-x="630" 
d="M425 253l-365 168v93l509 -234v-54l-509 -234v93z" />
    <glyph glyph-name="question" unicode="?" horiz-adv-x="519" 
d="M183 244q-9 59 32 161q50 115 50 191q0 21 -13 56q-15 43 -35 43q-16 0 -36 -22l-28 -32l-32 -28q-18 -10 -38 5l-13 8q-16 10 -11 26l33 58q36 25 156 25q95 0 155 -42q65 -45 65 -123q0 -29 -13 -59q-11 -25 -33 -52q-14 -18 -40 -46l-38 -41q-62 -75 -71 -128h-90z
M168 147q28 27 66 27q36 0 64 -28t28 -64q0 -37 -28 -65q-27 -29 -63 -29q-39 0 -67 28t-28 66t28 65z" />
    <glyph glyph-name="at" unicode="@" horiz-adv-x="833" 
d="M634 521l-70 -273q-2 -6 -3 -15q-1 -12 2 -21q7 -28 41 -28q46 0 77 54q37 62 37 176q0 105 -64 179q-36 41 -87 63q-57 24 -129 24q-122 0 -204 -75q-44 -41 -67 -98q-26 -62 -26 -141q0 -80 25 -146q23 -62 64 -106q80 -86 190 -86q138 0 230 48l20 -30
q-54 -23 -128 -40q-79 -18 -138 -18q-110 0 -189 35q-69 31 -113 86q-36 47 -54 109q-14 50 -14 102q0 168 117 281q116 111 287 111q148 0 253 -85q107 -88 107 -218q0 -34 -11 -75q-12 -48 -35 -87q-27 -46 -65 -71q-43 -30 -99 -30q-42 0 -72 32q-24 26 -24 46l-17 -15
q-15 -13 -28 -22q-40 -27 -76 -30q-17 -1 -34 2q-23 5 -40 17q-22 16 -34 42q-14 32 -14 78q0 76 25 130q21 44 57 72q28 20 63 30q12 3 24 5q9 1 16 1q35 0 60 -18q18 -13 31 -37l11 42h98zM403 438q-31 -60 -31 -157q0 -45 12 -62q9 -13 30 -13q23 0 46 53q27 63 33 167
q0 62 -35 62q-30 0 -55 -50z" />
    <glyph glyph-name="A" unicode="A" 
d="M214 209l-32 -95q-26 -76 41 -76v-38h-216v38q28 0 55 16q34 21 55 64q9 19 37 84l134 332l69 178h81q39 -91 121 -289l117 -288q14 -37 47 -66q35 -31 66 -31v-38h-353v38q68 0 42 71l-38 100h-226zM417 265l-88 241l-94 -241h182z" />
    <glyph glyph-name="B" unicode="B" horiz-adv-x="764" 
d="M333 152q0 -75 16 -96q12 -16 52 -16q43 0 72 40q30 43 30 113q0 82 -39 124q-34 36 -85 36h-46v-201zM32 0v38q80 3 86 25q3 7 4 20v534q-1 13 -4 20q-6 22 -86 25v38h432q95 0 153 -36q65 -40 65 -116q0 -139 -176 -163v-2q223 -15 223 -183q0 -96 -74 -149
q-71 -51 -196 -51h-427zM333 393h56q39 0 62 32q27 36 27 107q0 128 -95 128h-50v-267z" />
    <glyph glyph-name="C" unicode="C" horiz-adv-x="714" 
d="M699 200l-25 -140q-5 -19 -56 -38l-30 -10q-23 -7 -45 -12q-28 -7 -54 -10q-32 -5 -60 -5q-186 0 -288 95q-103 96 -103 271q0 64 18 121q21 66 64 116q49 56 125 87q85 34 201 34q58 0 107 -11q18 -4 40 -11q8 -2 19 -6q1 -1 4 -1l14 -5q39 -13 39 -39v-129h-31
q-16 33 -30 56q-20 31 -40 52q-51 54 -117 54q-89 0 -143 -87q-52 -86 -53 -223q-1 -149 43 -236q49 -98 148 -98q64 0 124 49q58 47 98 126h31z" />
    <glyph glyph-name="D" unicode="D" horiz-adv-x="851" 
d="M449 700q157 0 258 -88q106 -91 106 -242q0 -107 -38 -184q-34 -70 -97 -113q-56 -39 -134 -57q-67 -16 -147 -16h-365v38q80 3 86 25q3 7 4 20v534q-1 13 -4 20q-6 22 -86 25v38h417zM333 144q0 -72 5 -85q7 -19 41 -19q99 0 155 71q33 40 50 101q18 67 18 158
q0 290 -251 290h-18v-516z" />
    <glyph glyph-name="E" unicode="E" horiz-adv-x="685" 
d="M32 38q79 3 85 25q3 7 4 20v534q-1 13 -4 20q-6 22 -85 25v38h563v-161h-31q-17 54 -43 80q-30 31 -77 31h-112v-261h80q44 0 68 34q21 30 19 72h31v-263h-31q0 43 -18 72q-23 35 -69 35h-80v-219q0 -46 26 -60q18 -10 76 -10q68 0 122 43q22 18 41 43q17 20 31 46h31
l-30 -182h-597v38z" />
    <glyph glyph-name="F" unicode="F" horiz-adv-x="592" 
d="M32 700h564v-161h-31q-17 54 -43 80q-30 31 -78 31h-111v-281h94q44 0 68 34q21 30 19 72h31v-263h-31q-1 44 -19 72q-22 35 -68 35h-94v-224q0 -7 1 -12q0 -13 3 -20q6 -22 86 -25v-38h-391v38q80 3 86 25q3 7 4 20v534q-1 13 -4 20q-6 22 -86 25v38z" />
    <glyph glyph-name="G" unicode="G" horiz-adv-x="824" 
d="M394 340h398v-38q-80 -2 -86 -24q-3 -8 -3 -20q-1 -5 -1 -12v-212l-49 -14q-34 -9 -66 -15q-40 -8 -77 -12q-43 -5 -81 -5q-186 0 -288 95q-103 96 -103 271q0 64 18 121q21 66 64 116q49 56 125 87q85 34 201 34q58 0 107 -11q18 -4 40 -11q8 -2 19 -6q1 -1 4 -1l14 -5
q39 -13 39 -39v-129h-31q-16 33 -30 56q-20 31 -40 52q-51 54 -118 54q-85 0 -140 -87q-54 -86 -55 -223q1 -79 16 -146q14 -59 38 -104q45 -84 93 -84h19l20 2q22 4 37 16q38 29 38 119v93q-1 12 -4 20q-6 23 -118 24v38z" />
    <glyph glyph-name="H" unicode="H" horiz-adv-x="889" 
d="M333 95q0 -7 1 -12q0 -13 3 -20q6 -22 86 -25v-38h-391v38q80 3 86 25q3 7 4 20v534q-1 13 -4 20q-6 22 -86 25v38h391v-38q-80 -3 -86 -25q-3 -7 -3 -20q-1 -5 -1 -12v-194h223v206q-1 13 -4 20q-6 22 -86 25v38h391v-38q-80 -3 -86 -25q-3 -7 -3 -20q-1 -5 -1 -12v-510
q0 -7 1 -12q0 -13 3 -20q6 -22 86 -25v-38h-391v38q80 3 86 25q3 7 4 20v266h-223v-254z" />
    <glyph glyph-name="I" unicode="I" horiz-adv-x="454" 
d="M333 95q0 -7 1 -12q0 -13 3 -20q6 -22 85 -25v-38h-390v38q80 3 86 25q3 7 4 20v534q-1 13 -4 20q-6 22 -86 25v38h390v-38q-79 -3 -85 -25q-3 -7 -3 -20q-1 -5 -1 -12v-510z" />
    <glyph glyph-name="J" unicode="J" horiz-adv-x="454" 
d="M334 163q0 -133 -52 -225q-55 -99 -156 -124q-38 -10 -81 -13q-33 -3 -66 -2h-11l-13 2q-15 4 -23 15l-50 66q-4 6 -1 14l30 40q5 7 23 -2l40 -27q7 -4 22 -16l23 -16q27 -17 51 -17q33 0 43 44q10 43 10 176v539q-1 13 -4 20q-6 22 -86 25v38h390v-38q-78 -3 -85 -25
q-2 -7 -3 -20v-12z" />
    <glyph glyph-name="K" unicode="K" 
d="M122 617q-1 13 -4 20q-6 22 -86 25v38h391v-38q-80 -3 -86 -25q-3 -7 -3 -20q-1 -5 -1 -12v-228q5 0 14 2q10 2 20 6q26 11 42 29l152 168q31 34 9 58q-21 22 -67 22v38h245v-38q-41 0 -112 -82l-138 -160l93 -121l57 -72l74 -98q40 -54 72 -99v-30h-186q-32 0 -56 27
q-9 9 -20 26l-9 15l-182 259h-8v-232q0 -7 1 -12q0 -13 3 -20q6 -22 86 -25v-38h-391v38q80 3 86 25q3 7 4 20v534z" />
    <glyph glyph-name="L" unicode="L" horiz-adv-x="667" 
d="M32 38q79 3 85 25q3 7 4 20v534q-1 13 -4 20q-6 22 -85 25v38h390v-38q-80 -3 -86 -25q-3 -7 -3 -20q-1 -5 -1 -12v-481q0 -49 26 -64q18 -10 76 -10q68 0 122 43q22 18 41 43q17 20 31 46h31l-30 -182h-597v38z" />
    <glyph glyph-name="M" unicode="M" horiz-adv-x="1000" 
d="M272 700l221 -455l239 455h246v-38q-56 0 -76 -20q-19 -19 -19 -71v-476q0 -7 1 -12q0 -13 3 -20q6 -22 86 -25v-38h-391v38q80 3 86 25q3 7 4 20v393h-2l-244 -475h-27l-224 475h-2v-333q0 -12 1 -22q0 -23 3 -40q6 -41 84 -43v-38h-234v38q78 2 84 43q2 17 3 40v447
q-42 94 -124 94v38h282z" />
    <glyph glyph-name="N" unicode="N" 
d="M545 0q-44 74 -157 228q-110 150 -208 272h-2v-379q0 -24 3 -40q3 -23 24 -32q24 -10 92 -11v-38h-265v38q77 2 83 43q4 33 4 85v396q-47 100 -144 100v38h311q29 -45 73 -107q40 -56 90 -122q45 -60 95 -124q45 -59 88 -112h2v299q0 52 -4 85q-3 23 -23 32
q-24 10 -93 11v38h266v-38q-78 -2 -84 -43q-3 -16 -3 -40v-579h-148z" />
    <glyph glyph-name="O" unicode="O" horiz-adv-x="817" 
d="M284 4q-64 19 -115 58q-60 45 -93 113q-38 78 -38 183q0 141 109 245q113 109 279 109q144 0 246 -96q107 -100 107 -254q0 -93 -38 -169q-34 -67 -95 -116q-56 -44 -126 -67q-66 -22 -131 -22q-51 0 -105 16zM463 42q28 13 48 43q24 36 37 94q14 67 14 162q0 81 -15 146
q-14 60 -40 102q-48 80 -117 80q-58 0 -93 -59q-20 -35 -30 -87q-12 -58 -12 -137q0 -165 47 -263q43 -92 112 -92q27 0 49 11z" />
    <glyph glyph-name="P" unicode="P" horiz-adv-x="722" 
d="M333 95q0 -7 1 -12q0 -13 3 -20q6 -22 86 -25v-38h-391v38q80 3 86 25q3 7 4 20v534q-1 13 -4 20q-6 22 -86 25v38h458q114 0 173 -61q48 -50 48 -125q0 -105 -85 -162q-88 -59 -250 -52v32q46 8 73 49q30 45 30 123q0 54 -20 93q-26 54 -80 54h-46v-556z" />
    <glyph glyph-name="Q" unicode="Q" horiz-adv-x="816" 
d="M282 578q-15 -39 -21 -92q-6 -46 -6 -102q0 -166 50 -264q46 -89 112 -89q81 0 117 97q15 41 22 100q6 51 6 115q0 152 -52 243q-48 83 -115 83q-78 0 -113 -91zM794 -151q-41 -19 -67 -13q-15 4 -38 15l-252 137h-39q-150 0 -251 94q-109 100 -109 268q0 84 36 155
q32 65 91 113q115 94 262 94q152 0 253 -102q99 -101 99 -248q0 -73 -24 -134q-20 -54 -57 -98q-31 -36 -72 -66q-30 -22 -66 -39l160 -68q40 -16 63 -21l45 -10q28 -4 53 -1l11 -28z" />
    <glyph glyph-name="R" unicode="R" 
d="M333 354h48q61 0 87 53q10 21 14 50q4 23 4 51q0 143 -95 143h-58v-297zM32 700h449q106 0 167 -45q66 -48 66 -142q0 -58 -41 -108q-45 -55 -120 -74q53 -73 121 -156q29 -36 62 -75l61 -73v-26h-212q-22 0 -50 32q-21 26 -51 80l-54 99q-15 29 -27 49q-15 25 -28 44
h-42v-210q0 -7 1 -12q0 -13 3 -20q6 -22 85 -25v-38h-390v38q80 3 86 25q3 7 4 20v534q-1 13 -4 20q-6 22 -86 25v38z" />
    <glyph glyph-name="S" unicode="S" horiz-adv-x="592" 
d="M474 535q-3 4 -6 10l-19 33q-16 27 -30 44q-40 47 -90 47q-25 0 -46 -19q-29 -26 -29 -75q0 -46 46 -85q16 -15 57 -44l9 -7q5 -4 9 -6q11 -8 19 -15q23 -16 43 -32q70 -54 100 -105q27 -45 27 -97q0 -95 -82 -147q-78 -49 -210 -49q-86 0 -141 9q-45 7 -88 23
q-7 4 -7 14v164h31l9 -24q6 -16 11 -27q14 -33 28 -55q41 -61 104 -61q46 0 80 32q36 35 36 87t-25 85q-29 38 -120 93q-162 100 -162 203q0 181 284 181q64 0 102 -3q49 -3 81 -12q10 -4 10 -14v-148h-31z" />
    <glyph glyph-name="T" unicode="T" horiz-adv-x="741" 
d="M476 95q0 -7 1 -12q0 -13 3 -20q6 -22 85 -25v-38h-390v38q80 3 86 25q3 7 4 20v567h-74q-56 0 -91 -30q-14 -12 -30 -33l-30 -40h-31l28 153h667l28 -153h-31q-3 5 -8 11l-22 29q-16 21 -30 33q-36 30 -91 30h-74v-555z" />
    <glyph glyph-name="U" unicode="U" 
d="M328 240q0 -78 31 -119q34 -47 107 -47q82 0 118 36q44 44 44 154v315q-1 23 -3 40q-6 41 -84 43v38h231v-38q-66 -2 -78 -29q-6 -12 -7 -38v-350q0 -126 -78 -195q-70 -62 -179 -62q-173 0 -248 75q-65 66 -65 203v351q-1 13 -4 20q-6 22 -86 25v38h390v-38
q-79 -3 -85 -25q-3 -7 -3 -20q-1 -5 -1 -12v-365z" />
    <glyph glyph-name="V" unicode="V" horiz-adv-x="795" 
d="M388 662q-71 0 -62 -39q39 -120 75 -222q38 -111 77 -217l137 379q21 59 2 82q-15 17 -63 17v38h233v-38q-73 0 -100 -70l-108 -296l-106 -296h-147q-32 95 -101 289q-33 95 -56 158q-26 73 -33 88q-18 43 -48 79q-41 48 -80 48v38h380v-38z" />
    <glyph glyph-name="W" unicode="W" horiz-adv-x="1166" 
d="M399 661q-51 -4 -64 -17q-16 -16 -2 -64l102 -391h2l150 502h140l165 -513h2q52 173 102 396q11 48 -8 65q-16 13 -80 23v38h246v-38q-27 1 -48 -12q-27 -17 -39 -54l-164 -596h-190l-128 464h-2l-138 -464h-176l-143 535q-20 69 -48 97q-22 22 -66 29v38h387v-38z" />
    <glyph glyph-name="X" unicode="X" horiz-adv-x="816" 
d="M473 423l207 -299q39 -56 53 -68q21 -17 59 -18v-38h-367v38q19 0 28 1q14 2 21 8q16 15 -15 62l-117 177l-124 -161q-39 -52 -34 -72q4 -15 38 -15v-38h-198v38q37 0 72 28q35 29 95 109l120 156l-188 275q-37 56 -93 56v38h347v-38q-36 0 -46 -11q-15 -16 12 -54
l94 -128l99 126q20 27 17 46q-4 21 -36 21v38h200v-38q-30 0 -51 -7q-27 -9 -42 -29z" />
    <glyph glyph-name="Y" unicode="Y" horiz-adv-x="778" 
d="M590 0h-390v38q79 3 85 25q3 7 4 20v173l-159 328q-20 44 -53 63q-26 15 -65 15v38h368v-38q-53 0 -60 -19q-5 -14 16 -59l128 -262l139 255q46 85 -65 85v38h228v-38q-26 0 -40 -7q-20 -11 -36 -42l-160 -291q-14 -27 -21 -47q-9 -26 -9 -51v-129q0 -7 1 -12
q0 -13 3 -20q6 -22 86 -25v-38z" />
    <glyph glyph-name="Z" unicode="Z" horiz-adv-x="685" 
d="M640 642l-409 -595h270q110 0 127 129h31v-176h-599l-34 56l410 597h-207q-60 0 -90 -35q-12 -14 -20 -35q-6 -15 -11 -39h-31v156h563v-58z" />
    <glyph glyph-name="bracketleft" unicode="[" horiz-adv-x="407" 
d="M392 735v-43h-48q-64 0 -85 -11t-21 -45v-722q0 -39 23 -52q22 -12 90 -12h41v-43h-295v928h295z" />
    <glyph glyph-name="backslash" unicode="\" horiz-adv-x="593" 
d="M465 -108l-409 843h94l408 -843h-93z" />
    <glyph glyph-name="bracketright" unicode="]" horiz-adv-x="407" 
d="M310 735v-928h-295v43h41q68 0 90 12q23 13 23 52v722q0 34 -21 45t-85 11h-48v43h295z" />
    <glyph glyph-name="asciicircum" unicode="^" horiz-adv-x="630" 
d="M71 335l183 365h120l185 -365h-95l-150 296l-149 -296h-94z" />
    <glyph glyph-name="underscore" unicode="_" horiz-adv-x="500" 
d="M0 -125v50h500v-50h-500z" />
    <glyph glyph-name="grave" unicode="`" horiz-adv-x="426" 
d="M365 572h-55l-165 82q-43 22 -59 36q-26 21 -26 47q0 55 57 55q25 0 50 -20q9 -8 21 -20z" />
    <glyph glyph-name="a" unicode="a" horiz-adv-x="628" 
d="M169 164l-25 -75q-20 -59 33 -59v-30h-170v30q22 0 43 12q27 17 43 51q7 15 29 66l106 260l54 140h63q31 -72 95 -227l92 -226q11 -29 37 -52q28 -24 52 -24v-30h-277v30q53 0 33 56l-30 78h-178zM329 208l-69 189l-74 -189h143z" />
    <glyph glyph-name="b" unicode="b" horiz-adv-x="614" 
d="M268 119q0 -59 13 -75q9 -13 41 -13q33 0 56 32q24 34 24 89q0 64 -31 97q-27 28 -67 28h-36v-158zM32 0v30q63 2 68 19q2 6 3 16v419q-1 11 -3 16q-5 17 -68 20v30h339q75 0 120 -29q51 -31 51 -91q0 -109 -138 -128v-1q175 -12 175 -144q0 -75 -58 -117
q-56 -40 -154 -40h-335zM268 309h44q31 0 49 25q21 28 21 84q0 100 -74 100h-40v-209z" />
    <glyph glyph-name="c" unicode="c" horiz-adv-x="582" 
d="M557 154l-20 -110q-4 -15 -44 -30l-23 -8q-18 -5 -36 -9q-22 -6 -42 -8q-25 -4 -47 -4q-146 0 -226 74q-81 76 -81 213q0 50 14 95q17 52 50 91q39 44 98 69q67 26 158 26q46 0 84 -8q14 -4 32 -9l15 -5q0 -1 3 -1l11 -3q30 -11 30 -31v-101h-24q-13 26 -24 44
q-15 24 -31 40q-40 43 -92 43q-70 0 -112 -68q-41 -68 -42 -176q0 -117 34 -185q39 -77 116 -77q51 0 98 39q45 37 77 99h24z" />
    <glyph glyph-name="d" unicode="d" horiz-adv-x="683" 
d="M359 550q124 0 203 -70q83 -71 83 -190q0 -84 -30 -144q-26 -55 -76 -89q-44 -30 -105 -44q-53 -13 -115 -13h-287v30q63 2 68 19q2 6 3 16v419q-1 11 -3 16q-5 17 -68 20v30h327zM268 113q0 -56 4 -67q6 -15 32 -15q78 0 122 56q26 32 39 79q14 53 14 124
q0 228 -197 228h-14v-405z" />
    <glyph glyph-name="e" unicode="e" horiz-adv-x="550" 
d="M32 30q62 2 67 19q2 6 3 16v419q-1 11 -3 16q-5 17 -67 20v30h442v-127h-24q-14 43 -34 63q-24 24 -61 24h-87v-205h62q35 0 54 27q16 24 15 57h24v-207h-24q0 34 -15 57q-18 27 -54 27h-62v-172q0 -36 20 -47q14 -8 60 -8q53 0 95 34q18 14 33 34q13 15 24 36h24
l-23 -143h-469v30z" />
    <glyph glyph-name="f" unicode="f" horiz-adv-x="471" 
d="M32 550h443v-127h-25q-13 43 -33 63q-24 24 -62 24h-87v-220h74q35 0 53 26q17 24 15 57h25v-207h-25q0 35 -15 57q-17 27 -53 27h-74v-175q0 -6 1 -10q0 -10 2 -16q5 -17 68 -19v-30h-307v30q63 2 68 19q2 6 3 16v419q-1 11 -3 16q-5 17 -68 20v30z" />
    <glyph glyph-name="g" unicode="g" horiz-adv-x="662" 
d="M317 264h313v-30q-63 -1 -68 -18q-2 -7 -2 -16q-1 -4 -1 -9v-167l-38 -11q-27 -7 -52 -12q-31 -6 -60 -9q-34 -4 -64 -4q-146 0 -226 75q-81 75 -81 212q0 51 14 95q17 52 50 91q39 44 98 69q67 26 158 26q46 0 84 -8q14 -3 32 -9q6 -1 15 -5h3l11 -4q30 -11 30 -31v-101
h-24q-13 26 -24 44q-15 24 -31 41q-40 42 -93 42q-66 0 -109 -68t-44 -175q1 -62 13 -115q11 -46 30 -82q35 -66 73 -66h15l15 2q18 3 29 13q30 22 30 93v73q-1 9 -3 16q-5 18 -93 18v30z" />
    <glyph glyph-name="h" unicode="h" horiz-adv-x="712" 
d="M268 75q0 -6 1 -10q0 -10 2 -16q5 -17 68 -19v-30h-307v30q63 2 68 19q2 6 3 16v419q-1 11 -3 16q-5 17 -68 20v30h307v-30q-63 -3 -68 -20q-2 -5 -2 -16q-1 -4 -1 -9v-152h175v161q0 11 -3 16q-5 17 -67 20v30h307v-30q-63 -3 -68 -20q-2 -5 -2 -16q-1 -4 -1 -9v-400
q0 -6 1 -10q0 -10 2 -16q5 -17 68 -19v-30h-307v30q62 2 67 19q3 6 3 16v209h-175v-199z" />
    <glyph glyph-name="i" unicode="i" horiz-adv-x="370" 
d="M268 75q0 -6 1 -10q0 -10 2 -16q5 -17 67 -19v-30h-306v30q63 2 68 19q2 6 3 16v419q-1 11 -3 16q-5 17 -68 20v30h306v-30q-62 -3 -67 -20q-2 -5 -2 -16q-1 -4 -1 -9v-400z" />
    <glyph glyph-name="j" unicode="j" horiz-adv-x="370" 
d="M71 -110q18 5 25 34q8 34 8 138v423q-1 10 -3 16q-5 17 -68 19v30h306v-30q-61 -2 -67 -19q-1 -6 -2 -16v-9l-1 -347q0 -105 -41 -177q-43 -78 -122 -97q-17 -5 -35 -7q-14 -2 -28 -3q-26 -3 -52 -2h-9l-10 2q-12 3 -18 11l-39 52q-3 5 -1 11l24 31q3 6 18 -1l31 -21
q6 -3 17 -13l18 -12q22 -14 40 -14q5 0 9 1z" />
    <glyph glyph-name="k" unicode="k" horiz-adv-x="632" 
d="M103 484q-1 11 -3 16q-5 17 -68 20v30h307v-30q-63 -3 -68 -20q-2 -5 -2 -16q-1 -4 -1 -9v-179q4 0 11 2q8 1 16 4q20 9 33 23l119 132q25 27 7 45q-16 18 -52 18v30h192v-30q-32 0 -88 -65l-108 -125l73 -95l45 -57l58 -77q31 -42 56 -77v-24h-146q-25 0 -44 21
q-7 7 -15 21l-8 11l-142 204h-7v-182q0 -6 1 -10q0 -10 2 -16q5 -17 68 -19v-30h-307v30q63 2 68 19q2 6 3 16v419z" />
    <glyph glyph-name="l" unicode="l" horiz-adv-x="532" 
d="M32 30q62 2 67 19q2 6 3 16v419q-1 11 -3 16q-5 17 -67 20v30h306v-30q-63 -3 -67 -20q-3 -5 -3 -16v-9v-378q0 -38 20 -50q14 -8 60 -8q53 0 95 34q18 14 33 34q13 15 24 36h24l-23 -143h-469v30z" />
    <glyph glyph-name="m" unicode="m" 
d="M219 550l174 -358l187 358h194v-30q-44 0 -60 -16q-15 -15 -15 -56v-373q0 -6 1 -10q0 -10 2 -16q5 -17 68 -19v-30h-307v30q62 2 67 19q3 6 3 16v309h-1l-192 -373h-21l-176 373h-1v-279q0 -18 3 -31q4 -33 66 -34v-30h-184v30q61 1 66 34q2 13 2 31v351q-14 33 -35 51
q-26 23 -62 23v30h221z" />
    <glyph glyph-name="n" unicode="n" horiz-adv-x="635" 
d="M231 550q23 -36 58 -84q31 -44 70 -96q36 -47 75 -98q35 -46 69 -88h2v235q0 41 -4 67q-2 18 -18 25q-18 8 -73 9v30h209v-30q-61 -2 -66 -34q-2 -13 -2 -31v-455h-116q-35 58 -124 179q-86 118 -163 214h-1v-298q0 -19 2 -31q2 -18 19 -26q19 -7 72 -8v-30h-208v30
q60 1 65 34q3 25 3 66v311q-18 39 -45 58q-29 21 -68 21v30h244z" />
    <glyph glyph-name="o" unicode="o" horiz-adv-x="658" 
d="M231 1q-50 14 -90 45q-47 35 -73 89q-30 61 -30 143q0 111 86 193q88 85 219 85q113 0 193 -75q84 -79 84 -199q0 -73 -30 -133q-27 -53 -75 -91q-44 -35 -99 -53q-51 -17 -102 -17q-40 0 -83 13zM372 30q22 11 37 34q19 28 29 74q11 53 11 127q0 64 -11 115
q-11 47 -32 80q-38 63 -92 63q-45 0 -73 -47q-15 -27 -23 -68q-10 -46 -10 -108q0 -129 37 -206q34 -72 88 -72q21 0 39 8z" />
    <glyph glyph-name="p" unicode="p" horiz-adv-x="576" 
d="M268 75q0 -6 1 -10q0 -10 2 -16q5 -17 68 -19v-30h-307v30q63 2 68 19q2 6 3 16v419q-1 11 -3 16q-5 17 -68 20v30h360q89 0 135 -48q38 -40 38 -99q0 -82 -67 -127q-69 -46 -196 -40v25q36 6 57 38q24 35 24 97q0 42 -16 73q-20 42 -63 42h-36v-436z" />
    <glyph glyph-name="q" unicode="q" horiz-adv-x="657" 
d="M230 451q-12 -30 -17 -72q-5 -36 -5 -80q0 -130 40 -207q36 -70 88 -70q63 0 91 76q12 32 18 78q4 40 4 91q0 119 -40 190q-38 66 -91 66q-61 0 -88 -72zM540 -115l-189 103h-30q-118 0 -197 74q-86 78 -86 210q0 66 28 122q25 51 72 89q90 73 205 73q120 0 199 -80
q78 -79 78 -194q0 -58 -19 -106q-16 -42 -45 -77q-24 -28 -56 -51q-24 -18 -52 -31l92 -39l33 -14q32 -13 50 -17l35 -8q22 -3 42 0l8 -22l-77 -38q-32 -15 -52 -10q-12 3 -30 11z" />
    <glyph glyph-name="r" unicode="r" horiz-adv-x="632" 
d="M268 278h38q48 0 68 41q8 17 11 40q3 18 3 40q0 112 -74 112h-46v-233zM32 550h352q84 0 132 -36q51 -38 51 -111q0 -46 -32 -85q-35 -43 -94 -58q42 -57 95 -123q23 -28 49 -58l48 -58v-20h-167q-17 0 -39 25q-17 20 -40 63l-43 77q-11 23 -21 39q-12 20 -22 34h-33
v-164q0 -6 1 -10q0 -10 2 -16q5 -17 67 -19v-30h-306v30q63 2 68 19q2 6 3 16v419q-1 11 -3 16q-5 17 -68 20v30z" />
    <glyph glyph-name="s" unicode="s" horiz-adv-x="477" 
d="M378 417q-2 4 -5 8l-15 26q-12 21 -23 35q-31 37 -71 37q-19 0 -36 -15q-23 -21 -23 -59q0 -36 37 -67q12 -12 44 -34l7 -6q4 -3 7 -5q9 -6 15 -11q18 -13 34 -26q55 -42 79 -82q21 -35 21 -76q0 -75 -65 -116q-61 -38 -164 -38q-68 0 -111 7q-35 6 -69 18q-6 3 -6 11
v129h25l7 -19q4 -13 8 -21q11 -26 22 -43q32 -48 82 -48q36 0 63 25q28 27 28 68t-20 67q-22 30 -94 73q-127 78 -127 159q0 142 223 142q50 0 80 -2q38 -2 64 -9q7 -4 7 -11v-117h-24z" />
    <glyph glyph-name="t" unicode="t" horiz-adv-x="586" 
d="M376 75v-10q0 -10 3 -16q4 -17 66 -19v-30h-306v30q63 2 68 19q2 6 3 16v445h-58q-44 0 -72 -23q-11 -10 -23 -26l-24 -32h-24l22 121h524l22 -121h-25q-2 4 -6 9l-17 23q-13 16 -24 26q-28 23 -71 23h-58v-435z" />
    <glyph glyph-name="u" unicode="u" horiz-adv-x="636" 
d="M263 189q0 -61 25 -94q26 -36 84 -36q64 0 92 28q35 34 35 121v247q-1 18 -3 31q-4 33 -66 34v30h182v-30q-52 -1 -61 -23q-5 -9 -6 -30v-274q0 -99 -61 -153q-55 -49 -141 -49q-135 0 -194 59q-51 52 -51 159v276q-1 10 -3 15q-5 18 -68 20v30h306v-30q-62 -2 -67 -20
q-2 -5 -2 -15q-1 -4 -1 -10v-286z" />
    <glyph glyph-name="v" unicode="v" horiz-adv-x="628" 
d="M306 520q-55 0 -48 -31q30 -94 59 -174q29 -87 60 -171l107 298q17 46 2 64q-12 14 -49 14v30h183v-30q-58 0 -79 -55l-85 -233l-83 -232h-115q-25 75 -80 227q-26 74 -44 124q-20 57 -26 69q-14 34 -37 62q-32 38 -63 38v30h298v-30z" />
    <glyph glyph-name="w" unicode="w" horiz-adv-x="920" 
d="M316 519q-40 -3 -50 -13q-13 -13 -2 -51l80 -307h2l117 394h110l130 -402h1q41 136 80 311q9 37 -6 51q-12 10 -63 18v30h193v-30q-21 0 -37 -10q-21 -13 -31 -42l-129 -468h-149l-100 364h-2l-108 -364h-138l-113 420q-15 54 -37 76q-17 17 -52 23v30h304v-30z" />
    <glyph glyph-name="x" unicode="x" horiz-adv-x="651" 
d="M376 332l163 -235q31 -44 42 -53q16 -13 46 -14v-30h-288v30q15 0 22 1q11 1 16 6q13 12 -12 49l-91 139l-98 -127q-30 -41 -26 -56q3 -12 29 -12v-30h-155v30q29 0 57 22q27 23 74 85l94 123l-147 216q-29 44 -73 44v30h272v-30q-28 0 -36 -9q-12 -13 9 -42l74 -101
l78 99q16 21 13 36q-3 17 -28 17v30h157v-30q-24 0 -40 -6q-21 -7 -33 -23z" />
    <glyph glyph-name="y" unicode="y" horiz-adv-x="616" 
d="M466 0h-306v30q62 2 66 19q3 6 3 16v136l-124 257q-16 35 -42 50q-20 12 -51 12v30h289v-30q-42 0 -47 -15q-4 -11 12 -47l101 -205l109 200q36 67 -51 67v30h179v-30q-21 0 -32 -6q-15 -8 -28 -33l-125 -228q-11 -21 -17 -37q-7 -21 -7 -40v-101q0 -6 1 -10q0 -10 2 -16
q5 -17 68 -19v-30z" />
    <glyph glyph-name="z" unicode="z" horiz-adv-x="549" 
d="M508 504l-321 -467h212q86 0 100 101h24v-138h-470l-27 44l322 469h-163q-47 0 -70 -28q-10 -11 -16 -27q-5 -12 -9 -31h-24v123h442v-46z" />
    <glyph glyph-name="braceleft" unicode="{" horiz-adv-x="407" 
d="M286 -65q0 -117 83 -133v-2q-128 -3 -171 29q-42 33 -42 134v176q0 59 -13 83q-16 29 -63 43v2q76 23 76 123v193q0 94 47 125q42 27 166 27v-2q-83 -22 -83 -134v-193q0 -63 -15 -91q-17 -35 -66 -48v-2q50 -14 68 -52q13 -30 13 -97v-181z" />
    <glyph glyph-name="bar" unicode="|" horiz-adv-x="426" 
d="M165 750h96v-1000h-96v1000z" />
    <glyph glyph-name="braceright" unicode="}" horiz-adv-x="407" 
d="M121 600q0 117 -83 133v2q128 3 171 -29q42 -33 42 -134v-176q0 -59 13 -83q16 -29 63 -43v-2q-76 -23 -76 -123v-193q0 -94 -47 -125q-42 -27 -166 -27v2q83 22 83 134v193q0 63 15 91q17 35 66 48v2q-50 14 -67 52q-14 30 -14 97v181z" />
    <glyph glyph-name="asciitilde" unicode="~" horiz-adv-x="630" 
d="M562 290q-18 -28 -30 -44q-16 -22 -31 -35q-33 -30 -76 -30q-25 0 -52 10q-19 6 -49 21q-33 15 -48 21q-28 9 -53 9q-37 0 -65 -27q-5 -5 -9 -11l-8 -11q-2 -2 -3 -5l-7 -10l-64 36q36 59 64 83q35 31 82 31q23 0 54 -9q21 -7 55 -21q35 -16 51 -21q25 -10 38 -10
q36 0 59 21q8 8 15 20l10 16q1 1 1 2z" />
    <glyph glyph-name="exclamdown" unicode="&#xa1;" horiz-adv-x="370" 
d="M217 272q8 -41 19 -104l41 -236q11 -62 19 -100q7 -37 -26 -54q-27 -14 -78 -14t-79 14q-33 17 -25 54q7 38 18 100l41 236l20 104h50zM127 485q28 27 66 27q36 0 64 -28t28 -64q0 -37 -28 -65q-28 -29 -63 -29q-39 0 -67 28t-28 66t28 65z" />
    <glyph glyph-name="cent" unicode="&#xa2;" horiz-adv-x="630" 
d="M385 466q-4 1 -9 1q-5 1 -11 1q-53 0 -78 -59q-20 -49 -20 -135q0 -54 11 -94q12 -46 37 -72zM462 502q35 -5 75 -28l22 -81q4 -12 -10 -21l-47 -27q-6 -2 -9 2l-39 58q-3 3 -4 6q-4 6 -5 9h-2l-68 -343l30 -1q35 0 75 21q29 15 66 44l30 -42l-161 -111h-35q-17 0 -23 1
l-20 -95l-62 12l17 85q-41 5 -71 18q-38 15 -69 44q-83 72 -83 204q0 127 77 195q68 60 172 60q58 0 76 -3l15 71l67 -10z" />
    <glyph glyph-name="sterling" unicode="&#xa3;" horiz-adv-x="630" 
d="M-6 32q28 4 50 32q26 34 36 95q4 22 6 46l4 44q1 7 1 12q1 6 1 11q1 13 3 24q3 28 7 54h-103v46h106l10 58q11 65 42 117q27 47 69 80q77 61 172 61q56 0 96 -8q16 -3 32 -8l28 -9q17 -5 27 -33l16 -57q3 -10 -8 -12l-52 -5q-11 -2 -14 5q-8 9 -23 29l-24 31
q-30 34 -64 34q-39 0 -64 -52q-19 -40 -26 -103l-13 -128h150v-46h-154l-10 -64q-6 -26 -13 -47q-9 -28 -21 -52q-31 -61 -86 -103l2 -2l85 28q28 10 45 10q30 0 59 -10q21 -7 46 -21l37 -21q20 -10 34 -10q31 0 45 35q11 27 7 53l-5 40q-1 5 0 11q0 6 3 7l49 29l7 3
q6 0 9 -6l30 -54q5 -9 3 -22l-6 -19q-7 -19 -33 -49q-21 -24 -37 -36q-5 -4 -11 -7l-16 -10q-20 -12 -39 -22q-52 -27 -79 -27q-23 0 -67 8l-87 14q-58 7 -114 7q-71 -1 -148 -13v32z" />
    <glyph glyph-name="currency" unicode="&#xa4;" horiz-adv-x="630" 
d="M106 215q-38 47 -38 132q0 90 36 141l-61 61l71 73l63 -64q55 38 142 38q84 0 133 -38l63 64l73 -71l-59 -59q35 -59 35 -143q0 -94 -40 -132l66 -66l-71 -75l-63 63q-52 -39 -138 -39q-92 0 -141 42l-63 -64l-74 71zM419 248q40 43 40 102q0 58 -41 99q-41 42 -99 42
q-61 0 -103 -41q-43 -42 -43 -102t43 -101q42 -42 102 -42q59 0 101 43z" />
    <glyph glyph-name="yen" unicode="&#xa5;" horiz-adv-x="630" 
d="M124 38q79 3 85 25q3 7 4 20v141h-164v46h164l-32 69h-132v46h115l-90 198q-20 44 -46 63q-21 16 -49 16v38h345v-38q-48 0 -53 -26q-2 -10 3 -25q3 -11 11 -28l95 -221l116 228q37 72 -50 72v38h205v-38q-23 0 -40 -9q-21 -12 -35 -40l-111 -228h123v-46h-141l-23 -56
v-13h164v-46h-164v-129q0 -7 1 -12q0 -13 3 -20q6 -22 86 -25v-38h-390v38z" />
    <glyph glyph-name="brokenbar" unicode="&#xa6;" horiz-adv-x="426" 
d="M165 175h96v-350h-96v350zM165 675h96v-350h-96v350z" />
    <glyph glyph-name="section" unicode="&#xa7;" horiz-adv-x="648" 
d="M273 213q14 -10 24 -16q31 -19 61 -19q82 0 82 79q0 15 -13 31l-13 15l-16 15q-61 64 -118 64q-36 0 -62 -19q-24 -19 -23 -41q1 -33 20 -59q7 -9 18 -19l16 -12q1 -2 2 -2zM526 604q6 -17 -14 -30l-15 -9q-21 -13 -32 0l-71 76q-2 3 -4 4q-5 5 -8 9q-5 5 -10 8
q-23 20 -46 20q-22 0 -36 -17q-5 -6 -9 -15q-3 -6 -4 -13q-7 -34 23 -65q11 -12 36 -32q4 -4 11 -9l138 -111q33 -27 55 -50q59 -61 59 -113q0 -71 -77 -102q-73 -28 -165 -6l-2 -2q96 -52 131 -87q42 -41 42 -94q0 -69 -81 -110q-29 -15 -85 -21q-20 -2 -44 -3
q-16 -1 -34 -1q-33 0 -87 10q-56 11 -74 21l-44 76q-8 19 14 30l18 16q17 19 39 -6l73 -82q4 -5 8 -8q4 -5 8 -8q21 -19 49 -19q84 0 84 51q0 42 -52 89q-21 19 -52 41l-115 76q-31 24 -52 45q-53 53 -53 110q0 74 70 114q67 39 144 20l2 2l-60 48q-28 24 -45 43
q-39 43 -39 89q0 59 66 93q56 30 134 30q33 0 88 -11q54 -11 73 -21z" />
    <glyph glyph-name="dieresis" unicode="&#xa8;" horiz-adv-x="500" 
d="M63 638q0 25 20 46q20 20 45 20q66 0 66 -66q0 -65 -66 -65q-65 0 -65 65zM305 638q0 25 20 46q20 20 45 20q66 0 66 -66q0 -65 -66 -65q-65 0 -65 65z" />
    <glyph glyph-name="copyright" unicode="&#xa9;" 
d="M143 95q-107 107 -107 255q0 149 107 255q107 107 255 107q149 0 255 -107q107 -106 107 -255q0 -148 -107 -255q-106 -107 -255 -107q-148 0 -255 107zM603 145q87 87 87 205t-87 205t-205 87t-205 -87t-87 -205t87 -205t205 -87t205 87zM583 256l-19 -70q0 -12 -27 -20
q-22 -7 -49 -11q-35 -5 -71 -5q-98 0 -161 54q-69 60 -69 166q0 73 56 127q66 64 180 63q39 0 70 -6q11 -2 25 -6l23 -7q23 -7 23 -22v-73h-48q-9 82 -69 82t-88 -51q-23 -40 -24 -109q-1 -90 37 -140q34 -44 88 -44q42 0 76 72h47z" />
    <glyph glyph-name="ordfeminine" unicode="&#xaa;" horiz-adv-x="426" 
d="M405 416l-162 -18q-7 16 -8 32q-1 6 -1 12v12l-58 -39q-31 -17 -74 -17q-85 0 -85 90q0 40 28 63q21 17 61 27l127 35q0 73 -53 73q-46 0 -70 -75q-4 -10 -19 -8l-36 11l-6 6q-4 4 -2 13l7 23q11 32 24 35q60 21 123 21q84 0 125 -34q35 -31 35 -86v-84q0 -40 14 -57
q5 -6 13 -9q5 -2 12 -2zM234 585q-59 -16 -76 -31t-17 -52q0 -47 38 -47q24 0 41 23q14 19 14 37v70z" />
    <glyph glyph-name="guillemotleft" unicode="&#xab;" horiz-adv-x="519" 
d="M212 392q2 2 5 4l15 13q11 9 22 9q14 0 14 -19q0 -5 -9 -27l-22 -48q-13 -28 -26 -51q-13 -25 -19 -34q13 -21 40 -79q13 -27 22 -48q10 -23 14 -34v-6q0 -4 -2 -6q-3 -7 -15 -7q-8 0 -20 10l-181 170zM414 392q2 2 5 4l15 13q11 9 22 9q14 0 14 -19q0 -5 -9 -27l-22 -48
q-13 -28 -26 -51q-13 -25 -19 -34q13 -21 40 -79q13 -27 22 -48q10 -23 14 -34v-6q0 -4 -2 -6q-3 -7 -15 -7q-8 0 -20 10l-181 170z" />
    <glyph glyph-name="logicalnot" unicode="&#xac;" horiz-adv-x="630" 
d="M471 302h-408v96h504v-290h-96v194z" />
    <glyph glyph-name="registered" unicode="&#xae;" 
d="M143 95q-107 107 -107 255q0 149 107 255q107 107 255 107q149 0 255 -107q107 -106 107 -255q0 -148 -107 -255q-106 -107 -255 -107q-148 0 -255 107zM603 145q87 87 87 205t-87 205t-205 87t-205 -87t-87 -205t87 -205t205 -87t205 87zM202 557h233q64 0 109 -23
q50 -26 50 -71q0 -83 -91 -110l108 -163v-20h-98q-20 0 -45 42l-73 129h-18v-95q0 -27 2 -41q1 -7 15 -10q5 -2 14 -3l16 -2v-20h-222v20l16 2q9 1 14 3q14 3 15 10q2 14 2 41v235q0 27 -2 41q-1 7 -15 11l-30 4v20zM391 371q38 0 55 14q22 18 22 66q0 77 -60 77h-17
q-10 0 -13 -13q-1 -4 -1 -11v-133h14z" />
    <glyph glyph-name="macron" unicode="&#xaf;" horiz-adv-x="630" 
d="M64 612v86h501v-86h-501z" />
    <glyph glyph-name="degree" unicode="&#xb0;" horiz-adv-x="389" 
d="M124 591q0 -28 22 -49t49 -21q28 0 49 22q21 21 21 48q0 28 -21 49q-21 22 -49 22q-71 0 -71 -71zM94 490q-43 43 -43 101t43 101t101 43t101 -43q42 -42 42 -101q0 -58 -42 -101q-42 -42 -101 -42t-101 42z" />
    <glyph glyph-name="plusminus" unicode="&#xb1;" horiz-adv-x="630" 
d="M267 642h96v-205h204v-96h-204v-205h-96v205h-204v96h204v205zM63 96h504v-96h-504v96z" />
    <glyph glyph-name="uni00B2" unicode="&#xb2;" horiz-adv-x="426" 
d="M57 641q46 71 164 71q172 0 172 -110q0 -46 -43 -89q-17 -18 -43 -37l-51 -33q-84 -52 -128 -69v-2h135q4 -1 9 -1h9q23 -2 34 -1q32 1 41 23h33l-41 -108h-307v66q1 2 9 8l18 11q14 10 23 15l24 18q32 25 49 40q25 22 42 41q40 47 40 93t-30 64q-6 3 -12 5t-12 3
q-4 1 -9 1h-6v-1q-21 0 -38 -13q-25 -17 -35 -55h-47v60z" />
    <glyph glyph-name="uni00B3" unicode="&#xb3;" horiz-adv-x="426" 
d="M110 531q119 2 119 86q0 33 -22 51q-17 14 -39 14q-7 0 -14 -2q-8 -3 -16 -9q-21 -17 -37 -57l-40 12v59q60 27 143 27q75 0 122 -18q59 -23 62 -69q1 -90 -147 -104v-2q167 -12 169 -115q1 -120 -230 -126q-45 1 -84 14q-14 5 -27 11q-9 5 -16 10l-21 66q-3 7 4 10
l25 17q14 10 19 4l41 -51q0 -1 3 -5l4 -6q3 -5 5 -8q4 -5 7 -8q19 -21 39 -21q26 0 47 22q25 25 25 68q0 69 -57 88q-19 6 -47 7q-5 1 -11 0h-26v35z" />
    <glyph glyph-name="acute" unicode="&#xb4;" horiz-adv-x="426" 
d="M216 730q4 4 10 11q1 0 3 2l8 9q12 12 21 20q25 20 50 20q57 0 57 -55q0 -26 -26 -47q-16 -14 -59 -36l-165 -82h-55z" />
    <glyph glyph-name="mu" unicode="&#xb5;" horiz-adv-x="722" 
d="M91 351q0 81 -74 81v38q75 0 145 10q82 11 127 32l2 -2v-319q0 -65 10 -89q14 -33 57 -33q32 0 48 29q24 43 24 157v96q0 81 -74 81v38q75 0 145 10q82 11 127 32l2 -2v-336q0 -68 21 -96q16 -20 41 -18l4 -43l-253 -29q-10 16 -12 37q-1 7 -1 17v16l-78 -40
q-72 -30 -88 -30q-46 0 -60 34q-6 -8 0 -24q2 -6 6 -13q1 -3 3 -6l63 -93q43 -67 -26 -76l-145 -40q0 4 -1 9l-7 41q-6 42 -6 80v451z" />
    <glyph glyph-name="paragraph" unicode="&#xb6;" horiz-adv-x="722" 
d="M287 658q-6 0 -12 -1q-8 -1 -14 -4q-17 -6 -29 -21q-15 -18 -23 -47q-10 -35 -10 -85q0 -88 32 -134q24 -36 56 -36v328zM670 662q-4 -1 -11 -2l-5 -1q-4 0 -6 -1l-24 -4q-27 -7 -30 -20q-5 -25 -5 -73v-591q0 -48 5 -73q3 -13 30 -20l46 -8v-38h-207v827h-50v-827h-207
v38l46 8q27 7 30 20q5 25 5 73v311q-132 -1 -199 60q-63 57 -63 161q0 198 268 198h377v-38z" />
    <glyph glyph-name="periodcentered" unicode="&#xb7;" horiz-adv-x="315" 
d="M92 319q28 27 66 27q37 0 64 -28q28 -28 28 -64q0 -37 -27 -65q-28 -29 -64 -29q-38 0 -67 28q-28 28 -28 66t28 65z" />
    <glyph glyph-name="cedilla" unicode="&#xb8;" horiz-adv-x="333" 
d="M154 10h44l-31 -75q14 3 29 3q29 0 50 -16q25 -20 25 -53q0 -38 -41 -62q-37 -22 -88 -22q-36 0 -80 16l14 31q31 -11 57 -11q6 0 11 1q7 1 13 5q17 10 17 36q0 15 -8 26q-6 8 -13 10q-15 2 -39 -3l-7 5z" />
    <glyph glyph-name="uni00B9" unicode="&#xb9;" horiz-adv-x="426" 
d="M304 379q0 -31 3 -47q3 -14 78 -17v-30h-311v30q75 3 77 17q3 16 3 47v245q0 13 -25 15q-21 1 -44 -5l-32 -9l-7 30l258 57v-333z" />
    <glyph glyph-name="ordmasculine" unicode="&#xba;" horiz-adv-x="426" 
d="M68 447q-45 43 -45 101q0 18 7 41q9 30 28 55q24 30 61 47q44 21 104 21q72 0 125 -43q55 -44 55 -108q0 -71 -59 -117q-57 -46 -141 -46q-85 0 -135 49zM155 575q0 -48 8 -83q6 -29 18 -47q4 -7 10 -13q5 -5 10 -8q9 -5 17 -5q6 0 13 3q10 5 18 14q22 28 22 92v21
q0 14 -1 26q-2 31 -7 53q-14 63 -52 63q-56 0 -56 -116z" />
    <glyph glyph-name="guillemotright" unicode="&#xbb;" horiz-adv-x="519" 
d="M308 85q-2 -2 -5 -4l-14 -13q-12 -9 -23 -9q-14 0 -14 19q0 5 9 27l22 48q13 28 26 51q13 25 19 34q-13 21 -40 79q-13 27 -22 48q-10 23 -14 34v6q0 4 2 6q3 7 15 7q9 0 21 -10l180 -170zM106 85q-2 -2 -5 -4l-14 -13q-12 -9 -23 -9q-14 0 -14 19q0 5 9 27l22 48
q13 28 26 51q13 25 19 34q-13 21 -40 79q-13 27 -22 48q-10 23 -14 34v6q0 4 2 6q3 7 15 7q9 0 21 -10l180 -170z" />
    <glyph glyph-name="onequarter" unicode="&#xbc;" horiz-adv-x="1037" 
d="M537 160q9 16 42 59q27 35 69 86l86 104q9 10 9 11h155v-228h53v-72h-53v-30q0 -30 2 -44q3 -14 59 -17v-29h-297v29q79 3 82 17q4 14 4 44v30h-196zM286 0l365 700h83l-364 -700h-84zM748 357q-34 -30 -69 -75q-16 -20 -33 -44l-31 -46h133v165zM308 379q0 -31 3 -47
q3 -14 78 -17v-30h-311v30q75 3 77 17q3 16 3 47v245q0 13 -25 15q-21 1 -44 -5l-32 -9l-7 30l258 57v-333z" />
    <glyph glyph-name="onehalf" unicode="&#xbd;" horiz-adv-x="1037" 
d="M303 712v-333q0 -31 3 -47q3 -14 78 -17v-30h-311v30q75 3 77 17q3 19 3 47v245q0 13 -25 15q-21 1 -44 -5l-32 -9l-7 30zM729 700l-364 -700h-84l365 700h83zM622 356q46 71 164 71q172 0 172 -110q0 -46 -43 -89q-17 -18 -43 -37l-51 -33q-84 -52 -128 -69v-2h135
q4 -1 9 -1h9q23 -2 34 -1q32 1 41 23h33l-41 -108h-307v66q0 2 7 8l42 26q15 10 25 18q32 25 49 40q25 22 42 41q40 47 40 93t-30 64q-5 3 -12 5q-5 2 -11 3l-16 2v-2q-21 0 -38 -13q-25 -17 -35 -55h-47v60z" />
    <glyph glyph-name="threequarters" unicode="&#xbe;" horiz-adv-x="1037" 
d="M545 160q9 16 42 59q27 35 69 86l86 104q9 10 9 11h155v-228h53v-72h-53v-30q0 -30 2 -44q3 -14 59 -17v-29h-297v29q79 3 82 17q4 14 4 44v30h-196zM293 0l365 700h83l-364 -700h-84zM756 357q-34 -30 -69 -75q-15 -20 -32 -44l-32 -46h133v165zM120 531q119 2 119 86
q0 33 -22 51q-17 14 -39 14q-7 0 -13 -2q-9 -3 -17 -9q-21 -17 -37 -57l-40 12v59q60 27 143 27q75 0 123 -18q58 -23 61 -69q2 -90 -147 -104v-3q167 -10 169 -114q2 -120 -230 -126q-44 1 -83 14q-15 5 -27 11q-10 5 -17 10l-21 66q-3 8 4 10l25 17q15 10 19 4l41 -51
q1 -1 3 -5l4 -6q3 -5 6 -8q3 -5 7 -8q18 -21 38 -21q26 0 47 22q25 25 25 68q0 69 -57 88q-19 6 -46 7q-5 1 -11 0h-27v35z" />
    <glyph glyph-name="questiondown" unicode="&#xbf;" horiz-adv-x="519" 
d="M340 256q8 -59 -32 -160q-51 -119 -51 -191q0 -22 13 -56q15 -43 36 -43q15 0 36 22l28 32l32 28q18 10 38 -5l12 -8q17 -9 12 -26l-33 -58q-37 -25 -156 -25q-95 0 -156 42q-65 45 -65 123q0 29 13 59q11 25 33 52q14 18 40 46l21 21q11 11 18 20q61 73 70 127h91z
M224 485q28 27 66 27q37 0 64 -28q28 -28 28 -64q0 -37 -27 -65q-28 -29 -64 -29q-38 0 -67 28q-28 28 -28 66t28 65z" />
    <glyph glyph-name="Agrave" unicode="&#xc0;" 
d="M214 209l-32 -95q-26 -76 41 -76v-38h-216v38q28 0 55 16q34 21 55 64q9 19 37 84l134 332l69 178h81q39 -91 121 -289l117 -288q14 -37 47 -66q35 -31 66 -31v-38h-353v38q68 0 42 71l-38 100h-226zM417 265l-88 241l-94 -241h182zM550 752h-55l-165 82q-43 22 -59 36
q-26 21 -26 47q0 55 57 55q25 0 50 -20q9 -8 21 -20z" />
    <glyph glyph-name="Aacute" unicode="&#xc1;" 
d="M214 209l-32 -95q-26 -76 41 -76v-38h-216v38q28 0 55 16q34 21 55 64q9 19 37 84l134 332l69 178h81q39 -91 121 -289l117 -288q14 -37 47 -66q35 -31 66 -31v-38h-353v38q68 0 42 71l-38 100h-226zM417 265l-88 241l-94 -241h182zM401 910q4 4 10 11q1 0 3 2l8 9
q12 12 21 20q25 20 50 20q57 0 57 -55q0 -26 -26 -47q-16 -14 -59 -36l-165 -82h-55z" />
    <glyph glyph-name="Acircumflex" unicode="&#xc2;" 
d="M243 752h-58l170 167h84l171 -167h-60l-153 80zM214 209l-32 -95q-26 -76 41 -76v-38h-216v38q28 0 55 16q34 21 55 64q9 19 37 84l134 332l69 178h81q39 -91 121 -289l117 -288q14 -37 47 -66q35 -31 66 -31v-38h-353v38q68 0 42 71l-38 100h-226zM417 265l-88 241
l-94 -241h182z" />
    <glyph glyph-name="Atilde" unicode="&#xc3;" 
d="M214 209l-32 -95q-26 -76 41 -76v-38h-216v38q28 0 55 16q34 21 55 64q9 19 37 84l134 332l69 178h81q39 -91 121 -289l117 -288q14 -37 47 -66q35 -31 66 -31v-38h-353v38q68 0 42 71l-38 100h-226zM417 265l-88 241l-94 -241h182zM623 896q-5 -57 -45 -99
q-42 -45 -98 -45q-37 0 -64 10q-20 6 -41 21q-33 22 -78 22q-59 0 -84 -53h-41q14 61 48 97q36 40 86 40q66 0 95 -25l37 -16q24 -8 50 -8q76 0 96 56h39z" />
    <glyph glyph-name="Adieresis" unicode="&#xc4;" 
d="M214 209l-32 -95q-26 -76 41 -76v-38h-216v38q28 0 55 16q34 21 55 64q9 19 37 84l134 332l69 178h81q39 -91 121 -289l117 -288q14 -37 47 -66q35 -31 66 -31v-38h-353v38q68 0 42 71l-38 100h-226zM417 265l-88 241l-94 -241h182zM211 818q0 25 20 46q20 20 45 20
q66 0 66 -66q0 -65 -66 -65q-65 0 -65 65zM453 818q0 25 20 46q20 20 45 20q66 0 66 -66q0 -65 -66 -65q-65 0 -65 65z" />
    <glyph glyph-name="Aring" unicode="&#xc5;" 
d="M214 209l-32 -95q-26 -76 41 -76v-38h-216v38q28 0 55 16q34 21 55 64q9 19 37 84l134 332l69 178h81q39 -91 121 -289l117 -288q14 -37 47 -66q35 -31 66 -31v-38h-353v38q68 0 42 71l-38 100h-226zM417 265l-88 241l-94 -241h182zM356 842q0 -45 42 -45q43 0 43 45
t-43 45q-42 0 -42 -45zM329 771q-31 30 -31 70t31 71q30 30 71 30q40 0 70 -30q29 -30 29 -71t-29 -70q-30 -29 -72 -29q-39 0 -69 29z" />
    <glyph glyph-name="AE" unicode="&#xc6;" horiz-adv-x="1043" 
d="M479 276v364h-2l-211 -364h213zM389 38q80 3 86 25q3 7 4 20v137h-241l-63 -106q-18 -31 -7 -53q12 -23 48 -23v-38h-216v38q27 0 54 17q32 21 56 63l292 498q7 14 8 23q1 20 -40 23v38h583v-161h-31q-17 54 -43 80q-31 31 -78 31h-111v-261h80q44 0 68 34q21 30 19 72
h31v-263h-31q-1 44 -19 72q-22 35 -68 35h-80v-219q0 -46 26 -60q18 -10 76 -10q68 0 122 43q22 18 41 43q17 20 31 46h31l-30 -182h-598v38z" />
    <glyph glyph-name="Ccedilla" unicode="&#xc7;" horiz-adv-x="714" 
d="M699 203l-25 -140q-5 -19 -56 -38l-30 -10q-23 -7 -45 -12q-28 -7 -54 -10q-32 -5 -60 -5q-16 0 -48 2l-23 -55q14 3 29 3q29 0 50 -16q25 -20 25 -53q0 -38 -41 -62q-37 -22 -88 -22q-36 0 -80 16l14 31q31 -11 57 -11q6 0 11 1q7 1 13 5q17 10 17 36q0 15 -8 26
q-6 8 -13 10q-15 2 -39 -3l-7 5l41 95q-301 44 -301 358q0 64 18 121q21 66 64 116q49 56 125 87q85 34 201 34q58 0 107 -11q18 -4 40 -11q8 -2 19 -6q1 -1 4 -1l14 -5q39 -13 39 -39v-129h-31q-16 33 -30 56q-20 31 -40 52q-51 54 -117 54q-89 0 -143 -87
q-52 -86 -53 -223q-1 -149 43 -236q49 -98 148 -98q64 0 124 49q58 47 98 126h31z" />
    <glyph glyph-name="Egrave" unicode="&#xc8;" horiz-adv-x="685" 
d="M32 38q79 3 85 25q3 7 4 20v534q-1 13 -4 20q-6 22 -85 25v38h563v-161h-31q-17 54 -43 80q-30 31 -77 31h-112v-261h80q44 0 68 34q21 30 19 72h31v-263h-31q0 43 -18 72q-23 35 -69 35h-80v-219q0 -46 26 -60q18 -10 76 -10q68 0 122 43q22 18 41 43q17 20 31 46h31
l-30 -182h-597v38zM495 752h-55l-165 82q-43 22 -59 36q-26 21 -26 47q0 55 57 55q25 0 50 -20q9 -8 21 -20z" />
    <glyph glyph-name="Eacute" unicode="&#xc9;" horiz-adv-x="685" 
d="M32 38q79 3 85 25q3 7 4 20v534q-1 13 -4 20q-6 22 -85 25v38h563v-161h-31q-17 54 -43 80q-30 31 -77 31h-112v-261h80q44 0 68 34q21 30 19 72h31v-263h-31q0 43 -18 72q-23 35 -69 35h-80v-219q0 -46 26 -60q18 -10 76 -10q68 0 122 43q22 18 41 43q17 20 31 46h31
l-30 -182h-597v38zM346 910q4 4 10 11q1 0 3 2l8 9q12 12 21 20q25 20 50 20q57 0 57 -55q0 -26 -26 -47q-16 -14 -59 -36l-165 -82h-55z" />
    <glyph glyph-name="Ecircumflex" unicode="&#xca;" horiz-adv-x="685" 
d="M188 752h-58l170 167h84l171 -167h-60l-153 80zM32 38q79 3 85 25q3 7 4 20v534q-1 13 -4 20q-6 22 -85 25v38h563v-161h-31q-17 54 -43 80q-30 31 -77 31h-112v-261h80q44 0 68 34q21 30 19 72h31v-263h-31q0 43 -18 72q-23 35 -69 35h-80v-219q0 -46 26 -60
q18 -10 76 -10q68 0 122 43q22 18 41 43q17 20 31 46h31l-30 -182h-597v38z" />
    <glyph glyph-name="Edieresis" unicode="&#xcb;" horiz-adv-x="685" 
d="M156 818q0 25 20 46q20 20 45 20q66 0 66 -66q0 -65 -66 -65q-65 0 -65 65zM398 818q0 25 20 46q20 20 45 20q66 0 66 -66q0 -65 -66 -65q-65 0 -65 65zM32 38q79 3 85 25q3 7 4 20v534q-1 13 -4 20q-6 22 -85 25v38h563v-161h-31q-17 54 -43 80q-30 31 -77 31h-112v-261
h80q44 0 68 34q21 30 19 72h31v-263h-31q0 43 -18 72q-23 35 -69 35h-80v-219q0 -46 26 -60q18 -10 76 -10q68 0 122 43q22 18 41 43q17 20 31 46h31l-30 -182h-597v38z" />
    <glyph glyph-name="Igrave" unicode="&#xcc;" horiz-adv-x="454" 
d="M333 95q0 -7 1 -12q0 -13 3 -20q6 -22 85 -25v-38h-390v38q80 3 86 25q3 7 4 20v534q-1 13 -4 20q-6 22 -86 25v38h390v-38q-79 -3 -85 -25q-3 -7 -3 -20q-1 -5 -1 -12v-510zM379 752h-55l-165 82q-43 22 -59 36q-26 21 -26 47q0 55 57 55q25 0 50 -20q9 -8 21 -20z" />
    <glyph glyph-name="Iacute" unicode="&#xcd;" horiz-adv-x="454" 
d="M230 910q4 4 10 11q1 0 3 2l8 9q12 12 21 20q25 20 50 20q57 0 57 -55q0 -26 -26 -47q-16 -14 -59 -36l-165 -82h-55zM333 95q0 -7 1 -12q0 -13 3 -20q6 -22 85 -25v-38h-390v38q80 3 86 25q3 7 4 20v534q-1 13 -4 20q-6 22 -86 25v38h390v-38q-79 -3 -85 -25
q-3 -7 -3 -20q-1 -5 -1 -12v-510z" />
    <glyph glyph-name="Icircumflex" unicode="&#xce;" horiz-adv-x="454" 
d="M73 752h-58l170 167h84l171 -167h-60l-153 80zM333 95q0 -7 1 -12q0 -13 3 -20q6 -22 85 -25v-38h-390v38q80 3 86 25q3 7 4 20v534q-1 13 -4 20q-6 22 -86 25v38h390v-38q-79 -3 -85 -25q-3 -7 -3 -20q-1 -5 -1 -12v-510z" />
    <glyph glyph-name="Idieresis" unicode="&#xcf;" horiz-adv-x="454" 
d="M333 95q0 -7 1 -12q0 -13 3 -20q6 -22 85 -25v-38h-390v38q80 3 86 25q3 7 4 20v534q-1 13 -4 20q-6 22 -86 25v38h390v-38q-79 -3 -85 -25q-3 -7 -3 -20q-1 -5 -1 -12v-510zM40 818q0 25 20 46q20 20 45 20q66 0 66 -66q0 -65 -66 -65q-65 0 -65 65zM282 818q0 25 20 46
q20 20 45 20q66 0 66 -66q0 -65 -66 -65q-65 0 -65 65z" />
    <glyph glyph-name="Eth" unicode="&#xd0;" horiz-adv-x="852" 
d="M5 405h119v212q-1 13 -4 20q-6 22 -86 25v38h416q157 0 258 -88q106 -91 106 -242q0 -107 -38 -184q-34 -70 -97 -113q-56 -39 -134 -57q-67 -16 -147 -16h-364v38q80 3 86 25q3 7 4 20v262h-119v60zM476 345h-141v-254q1 -22 4 -32q7 -19 41 -19q99 0 156 71
q32 39 49 101q18 67 18 158q0 290 -251 290h-17v-255h141v-60z" />
    <glyph glyph-name="Eth" unicode="&#x110;" horiz-adv-x="852" 
d="M5 405h119v212q-1 13 -4 20q-6 22 -86 25v38h416q157 0 258 -88q106 -91 106 -242q0 -107 -38 -184q-34 -70 -97 -113q-56 -39 -134 -57q-67 -16 -147 -16h-364v38q80 3 86 25q3 7 4 20v262h-119v60zM476 345h-141v-254q1 -22 4 -32q7 -19 41 -19q99 0 156 71
q32 39 49 101q18 67 18 158q0 290 -251 290h-17v-255h141v-60z" />
    <glyph glyph-name="Ntilde" unicode="&#xd1;" 
d="M545 0q-44 74 -157 228q-110 150 -208 272h-2v-379q0 -24 3 -40q3 -23 24 -32q24 -10 92 -11v-38h-265v38q77 2 83 43q4 33 4 85v396q-47 100 -144 100v38h311q29 -45 73 -107q40 -56 90 -122q45 -60 95 -124q45 -59 88 -112h2v299q0 52 -4 85q-3 23 -23 32
q-24 10 -93 11v38h266v-38q-78 -2 -84 -43q-3 -16 -3 -40v-579h-148zM623 896q-5 -57 -45 -99q-42 -45 -98 -45q-37 0 -64 10q-20 6 -41 21q-33 22 -78 22q-59 0 -84 -53h-41q14 61 48 97q36 40 86 40q66 0 95 -25l37 -16q24 -8 50 -8q76 0 96 56h39z" />
    <glyph glyph-name="Ograve" unicode="&#xd2;" horiz-adv-x="817" 
d="M284 4q-64 19 -115 58q-60 45 -93 113q-38 78 -38 183q0 141 109 245q113 109 279 109q144 0 246 -96q107 -100 107 -254q0 -93 -38 -169q-34 -67 -95 -116q-56 -44 -126 -67q-66 -22 -131 -22q-51 0 -105 16zM463 42q28 13 48 43q24 36 37 94q14 67 14 162q0 81 -15 146
q-14 60 -40 102q-48 80 -117 80q-58 0 -93 -59q-20 -35 -30 -87q-12 -58 -12 -137q0 -165 47 -263q43 -92 112 -92q27 0 49 11zM561 752h-55l-165 82q-43 22 -59 36q-26 21 -26 47q0 55 57 55q25 0 50 -20q9 -8 21 -20z" />
    <glyph glyph-name="Oacute" unicode="&#xd3;" horiz-adv-x="817" 
d="M284 4q-64 19 -115 58q-60 45 -93 113q-38 78 -38 183q0 141 109 245q113 109 279 109q144 0 246 -96q107 -100 107 -254q0 -93 -38 -169q-34 -67 -95 -116q-56 -44 -126 -67q-66 -22 -131 -22q-51 0 -105 16zM463 42q28 13 48 43q24 36 37 94q14 67 14 162q0 81 -15 146
q-14 60 -40 102q-48 80 -117 80q-58 0 -93 -59q-20 -35 -30 -87q-12 -58 -12 -137q0 -165 47 -263q43 -92 112 -92q27 0 49 11zM412 910q4 4 10 11q1 0 3 2l8 9q12 12 21 20q25 20 50 20q57 0 57 -55q0 -26 -26 -47q-16 -14 -59 -36l-165 -82h-55z" />
    <glyph glyph-name="Ocircumflex" unicode="&#xd4;" horiz-adv-x="817" 
d="M254 752h-58l170 167h84l171 -167h-60l-153 80zM284 4q-64 19 -115 58q-60 45 -93 113q-38 78 -38 183q0 141 109 245q113 109 279 109q144 0 246 -96q107 -100 107 -254q0 -93 -38 -169q-34 -67 -95 -116q-56 -44 -126 -67q-66 -22 -131 -22q-51 0 -105 16zM463 42
q28 13 48 43q24 36 37 94q14 67 14 162q0 81 -15 146q-14 60 -40 102q-48 80 -117 80q-58 0 -93 -59q-20 -35 -30 -87q-12 -58 -12 -137q0 -165 47 -263q43 -92 112 -92q27 0 49 11z" />
    <glyph glyph-name="Otilde" unicode="&#xd5;" horiz-adv-x="817" 
d="M284 4q-64 19 -115 58q-60 45 -93 113q-38 78 -38 183q0 141 109 245q113 109 279 109q144 0 246 -96q107 -100 107 -254q0 -93 -38 -169q-34 -67 -95 -116q-56 -44 -126 -67q-66 -22 -131 -22q-51 0 -105 16zM463 42q28 13 48 43q24 36 37 94q14 67 14 162q0 81 -15 146
q-14 60 -40 102q-48 80 -117 80q-58 0 -93 -59q-20 -35 -30 -87q-12 -58 -12 -137q0 -165 47 -263q43 -92 112 -92q27 0 49 11zM634 896q-5 -57 -45 -99q-42 -45 -98 -45q-37 0 -64 10q-20 6 -41 21q-33 22 -78 22q-59 0 -84 -53h-41q14 61 48 97q36 40 86 40q66 0 95 -25
l37 -16q24 -8 50 -8q76 0 96 56h39z" />
    <glyph glyph-name="Odieresis" unicode="&#xd6;" horiz-adv-x="817" 
d="M222 818q0 25 20 46q20 20 45 20q66 0 66 -66q0 -65 -66 -65q-65 0 -65 65zM464 818q0 25 20 46q20 20 45 20q66 0 66 -66q0 -65 -66 -65q-65 0 -65 65zM284 4q-64 19 -115 58q-60 45 -93 113q-38 78 -38 183q0 141 109 245q113 109 279 109q144 0 246 -96
q107 -100 107 -254q0 -93 -38 -169q-34 -67 -95 -116q-56 -44 -126 -67q-66 -22 -131 -22q-51 0 -105 16zM463 42q28 13 48 43q24 36 37 94q14 67 14 162q0 81 -15 146q-14 60 -40 102q-48 80 -117 80q-58 0 -93 -59q-20 -35 -30 -87q-12 -58 -12 -137q0 -165 47 -263
q43 -92 112 -92q27 0 49 11z" />
    <glyph glyph-name="multiply" unicode="&#xd7;" horiz-adv-x="630" 
d="M105 395l67 67l142 -140l143 140l67 -67l-143 -141l143 -143l-67 -67l-143 142l-142 -142l-67 67l141 143z" />
    <glyph glyph-name="Oslash" unicode="&#xd8;" horiz-adv-x="817" 
d="M279 177q45 -146 136 -146q27 0 49 11q28 13 48 43q24 36 36 94q15 67 15 162q0 54 -3 100zM541 521q-48 148 -150 148q-58 0 -93 -59q-20 -35 -31 -87q-12 -58 -12 -137q0 -69 6 -128zM36 41l80 76q-37 44 -56 100q-22 63 -22 141q0 141 109 245q114 109 280 109
q131 0 228 -80l80 76l51 -48l-82 -78q75 -91 75 -220q0 -93 -38 -169q-33 -67 -95 -116q-55 -44 -126 -67q-66 -22 -131 -22q-52 0 -108 18q-66 21 -116 61l-77 -73z" />
    <glyph glyph-name="Ugrave" unicode="&#xd9;" 
d="M328 240q0 -78 31 -119q34 -47 107 -47q82 0 118 36q44 44 44 154v315q-1 23 -3 40q-6 41 -84 43v38h231v-38q-66 -2 -78 -29q-6 -12 -7 -38v-350q0 -126 -78 -195q-70 -62 -179 -62q-173 0 -248 75q-65 66 -65 203v351q-1 13 -4 20q-6 22 -86 25v38h390v-38
q-79 -3 -85 -25q-3 -7 -3 -20q-1 -5 -1 -12v-365zM550 752h-55l-165 82q-43 22 -59 36q-26 21 -26 47q0 55 57 55q25 0 50 -20q9 -8 21 -20z" />
    <glyph glyph-name="Uacute" unicode="&#xda;" 
d="M328 240q0 -78 31 -119q34 -47 107 -47q82 0 118 36q44 44 44 154v315q-1 23 -3 40q-6 41 -84 43v38h231v-38q-66 -2 -78 -29q-6 -12 -7 -38v-350q0 -126 -78 -195q-70 -62 -179 -62q-173 0 -248 75q-65 66 -65 203v351q-1 13 -4 20q-6 22 -86 25v38h390v-38
q-79 -3 -85 -25q-3 -7 -3 -20q-1 -5 -1 -12v-365zM401 910q4 4 10 11q1 0 3 2l8 9q12 12 21 20q25 20 50 20q57 0 57 -55q0 -26 -26 -47q-16 -14 -59 -36l-165 -82h-55z" />
    <glyph glyph-name="Ucircumflex" unicode="&#xdb;" 
d="M243 752h-58l170 167h84l171 -167h-60l-153 80zM328 240q0 -78 31 -119q34 -47 107 -47q82 0 118 36q44 44 44 154v315q-1 23 -3 40q-6 41 -84 43v38h231v-38q-66 -2 -78 -29q-6 -12 -7 -38v-350q0 -126 -78 -195q-70 -62 -179 -62q-173 0 -248 75q-65 66 -65 203v351
q-1 13 -4 20q-6 22 -86 25v38h390v-38q-79 -3 -85 -25q-3 -7 -3 -20q-1 -5 -1 -12v-365z" />
    <glyph glyph-name="Udieresis" unicode="&#xdc;" 
d="M211 818q0 25 20 46q20 20 45 20q66 0 66 -66q0 -65 -66 -65q-65 0 -65 65zM453 818q0 25 20 46q20 20 45 20q66 0 66 -66q0 -65 -66 -65q-65 0 -65 65zM328 240q0 -78 31 -119q34 -47 107 -47q82 0 118 36q44 44 44 154v315q-1 23 -3 40q-6 41 -84 43v38h231v-38
q-66 -2 -78 -29q-6 -12 -7 -38v-350q0 -126 -78 -195q-70 -62 -179 -62q-173 0 -248 75q-65 66 -65 203v351q-1 13 -4 20q-6 22 -86 25v38h390v-38q-79 -3 -85 -25q-3 -7 -3 -20q-1 -5 -1 -12v-365z" />
    <glyph glyph-name="Yacute" unicode="&#xdd;" horiz-adv-x="778" 
d="M590 0h-390v38q79 3 85 25q3 7 4 20v173l-159 328q-20 44 -53 63q-26 15 -65 15v38h368v-38q-53 0 -60 -19q-5 -14 16 -59l128 -262l139 255q46 85 -65 85v38h228v-38q-26 0 -40 -7q-20 -11 -36 -42l-160 -291q-14 -27 -21 -47q-9 -26 -9 -51v-129q0 -7 1 -12
q0 -13 3 -20q6 -22 86 -25v-38zM422 910q4 4 10 11q1 0 3 2l8 9q12 12 21 20q25 20 50 20q57 0 57 -55q0 -26 -26 -47q-16 -14 -59 -36l-165 -82h-55z" />
    <glyph glyph-name="Thorn" unicode="&#xde;" horiz-adv-x="700" 
d="M122 617q-1 13 -4 20q-6 22 -86 25v38h390v-38q-79 -3 -85 -25q-3 -9 -3 -23q-1 -9 -1 -28v-36h78q129 0 197 -38q73 -41 73 -126q0 -183 -263 -183h-85v-108q0 -7 1 -12q0 -13 3 -20q6 -22 85 -25v-38h-390v38q80 3 86 25q3 7 4 20v534zM333 241h55q39 0 62 33
q27 37 27 108q0 130 -95 130h-49v-271z" />
    <glyph glyph-name="germandbls" unicode="&#xdf;" horiz-adv-x="797" 
d="M24 38q27 2 46 8q21 7 24 17q3 7 4 20v340h-62v39l62 32v34q0 80 86 143q90 64 214 64q45 0 84 -7q44 -8 77 -25q78 -39 78 -117q0 -27 -11 -49q-4 -10 -11 -19l-26 -33q-7 -10 -11 -17q-11 -20 -11 -42q0 -31 27 -62q22 -25 77 -67q70 -52 92 -91q15 -28 15 -74
q0 -60 -55 -100q-59 -44 -153 -44q-73 0 -119 11q-17 4 -30 10q-5 2 -10 5l-7 4l-23 74q-2 7 3 14l29 31q9 12 13 5l34 -57q24 -42 52 -57q9 -5 18 -6q4 -1 7 -1h4q57 0 57 63q0 40 -34 83q-28 35 -77 70q-58 42 -79 76q-8 14 -12 27l-2 12v11q0 32 17 60q7 12 18 25l17 19
q0 1 1 1q1 2 3 3q26 31 38 52q17 33 17 73q0 55 -34 84q-26 22 -62 22h-13q-8 -1 -16 -3q-21 -5 -37 -19q-20 -17 -32 -48q-13 -37 -13 -92v-445q0 -7 1 -12q0 -13 3 -20q3 -10 24 -17q19 -6 46 -8v-38h-348v38z" />
    <glyph glyph-name="agrave" unicode="&#xe0;" horiz-adv-x="628" 
d="M169 164l-25 -75q-20 -59 33 -59v-30h-170v30q22 0 43 12q27 17 43 51q7 15 29 66l106 260l54 140h63q31 -72 95 -227l92 -226q11 -29 37 -52q28 -24 52 -24v-30h-277v30q53 0 33 56l-30 78h-178zM329 208l-69 189l-74 -189h143zM433 590h-43l-129 65q-34 17 -47 28
q-20 16 -20 37q0 43 45 43q19 0 39 -16q7 -6 16 -15z" />
    <glyph glyph-name="aacute" unicode="&#xe1;" horiz-adv-x="628" 
d="M169 164l-25 -75q-20 -59 33 -59v-30h-170v30q22 0 43 12q27 17 43 51q7 15 29 66l106 260l54 140h63q31 -72 95 -227l92 -226q11 -29 37 -52q28 -24 52 -24v-30h-277v30q53 0 33 56l-30 78h-178zM329 208l-69 189l-74 -189h143zM316 714q3 3 8 9q1 0 2 2l7 7q9 9 16 15
q20 16 40 16q44 0 44 -43q0 -21 -20 -37q-13 -11 -46 -28l-130 -65h-43z" />
    <glyph glyph-name="acircumflex" unicode="&#xe2;" horiz-adv-x="628" 
d="M192 590h-45l133 131h66l134 -131h-47l-120 63zM169 164l-25 -75q-20 -59 33 -59v-30h-170v30q22 0 43 12q27 17 43 51q7 15 29 66l106 260l54 140h63q31 -72 95 -227l92 -226q11 -29 37 -52q28 -24 52 -24v-30h-277v30q53 0 33 56l-30 78h-178zM329 208l-69 189
l-74 -189h143z" />
    <glyph glyph-name="atilde" unicode="&#xe3;" horiz-adv-x="628" 
d="M169 164l-25 -75q-20 -59 33 -59v-30h-170v30q22 0 43 12q27 17 43 51q7 15 29 66l106 260l54 140h63q31 -72 95 -227l92 -226q11 -29 37 -52q28 -24 52 -24v-30h-277v30q53 0 33 56l-30 78h-178zM329 208l-69 189l-74 -189h143zM491 703q-4 -44 -36 -77q-33 -36 -77 -36
q-29 0 -50 8q-16 5 -32 17q-26 17 -61 17q-47 0 -66 -42h-32q11 48 37 76q28 32 68 32q52 0 74 -20l29 -12q19 -7 40 -7q59 0 75 44h31z" />
    <glyph glyph-name="adieresis" unicode="&#xe4;" horiz-adv-x="628" 
d="M169 164l-25 -75q-20 -59 33 -59v-30h-170v30q22 0 43 12q27 17 43 51q7 15 29 66l106 260l54 140h63q31 -72 95 -227l92 -226q11 -29 37 -52q28 -24 52 -24v-30h-277v30q53 0 33 56l-30 78h-178zM329 208l-69 189l-74 -189h143zM167 642q0 20 16 36t35 16q52 0 52 -52
q0 -51 -52 -51q-51 0 -51 51zM357 642q0 20 16 36t35 16q52 0 52 -52q0 -51 -52 -51q-51 0 -51 51z" />
    <glyph glyph-name="aring" unicode="&#xe5;" horiz-adv-x="628" 
d="M169 164l-25 -75q-20 -59 33 -59v-30h-170v30q22 0 43 12q27 17 43 51q7 15 29 66l106 260l54 140h63q31 -72 95 -227l92 -226q11 -29 37 -52q28 -24 52 -24v-30h-277v30q53 0 33 56l-30 78h-178zM329 208l-69 189l-74 -189h143zM281 661q0 -35 33 -35q34 0 34 35t-34 35
q-33 0 -33 -35zM260 605q-25 24 -25 55q0 32 25 56q23 23 56 23q31 0 54 -23q23 -24 23 -56t-23 -55t-56 -23q-31 0 -54 23z" />
    <glyph glyph-name="ae" unicode="&#xe6;" horiz-adv-x="824" 
d="M376 217v285h-2l-165 -285h167zM305 30q63 2 68 19q2 6 3 16v108h-189l-50 -84q-14 -24 -5 -41q9 -18 38 -18v-30h-170v30q21 0 42 13q26 17 44 50l230 391q5 11 6 18q1 15 -32 18v30h458v-127h-24q-14 43 -34 63q-24 24 -61 24h-87v-205h62q35 0 54 27q16 24 15 57h24
v-207h-24q-1 35 -15 57q-17 27 -54 27h-62v-172q0 -36 20 -47q14 -8 60 -8q53 0 95 34q18 14 33 34q13 15 24 36h24l-23 -143h-470v30z" />
    <glyph glyph-name="ccedilla" unicode="&#xe7;" horiz-adv-x="605" 
d="M593 136l-21 -118q-4 -16 -47 -31l-25 -9q-20 -6 -38 -10q-23 -6 -45 -8q-27 -5 -51 -5q-13 0 -40 2l-19 -46q11 2 24 2q24 0 42 -13q21 -17 21 -44q0 -32 -34 -53q-31 -18 -74 -18q-31 0 -67 13l11 26q26 -9 48 -9q5 0 9 1q6 1 11 4q15 9 15 30q0 13 -7 22q-5 7 -11 9
q-13 1 -33 -3l-6 4l35 80q-253 37 -253 301q0 53 15 101q18 56 54 98q41 47 105 73q71 28 169 28q48 0 89 -9q16 -3 34 -9q7 -2 16 -5q1 -1 3 -1l12 -4q33 -11 33 -33v-108h-26q-14 27 -25 47q-17 26 -34 43q-43 46 -98 46q-75 0 -120 -73q-44 -72 -45 -188q-1 -125 36 -198
q41 -82 125 -82q53 0 104 41q48 40 82 106h26z" />
    <glyph glyph-name="egrave" unicode="&#xe8;" horiz-adv-x="550" 
d="M32 30q62 2 67 19q2 6 3 16v419q-1 11 -3 16q-5 17 -67 20v30h442v-127h-24q-14 43 -34 63q-24 24 -61 24h-87v-205h62q35 0 54 27q16 24 15 57h24v-207h-24q0 34 -15 57q-18 27 -54 27h-62v-172q0 -36 20 -47q14 -8 60 -8q53 0 95 34q18 14 33 34q13 15 24 36h24
l-23 -143h-469v30zM395 590h-43l-129 65q-34 17 -47 28q-20 16 -20 37q0 43 45 43q19 0 39 -16q7 -6 17 -15z" />
    <glyph glyph-name="eacute" unicode="&#xe9;" horiz-adv-x="550" 
d="M32 30q62 2 67 19q2 6 3 16v419q-1 11 -3 16q-5 17 -67 20v30h442v-127h-24q-14 43 -34 63q-24 24 -61 24h-87v-205h62q35 0 54 27q16 24 15 57h24v-207h-24q0 34 -15 57q-18 27 -54 27h-62v-172q0 -36 20 -47q14 -8 60 -8q53 0 95 34q18 14 33 34q13 15 24 36h24
l-23 -143h-469v30zM278 714q4 3 8 9q1 0 3 2l6 7q9 9 16 15q20 16 40 16q44 0 44 -43q0 -21 -20 -37q-13 -11 -46 -28l-130 -65h-43z" />
    <glyph glyph-name="ecircumflex" unicode="&#xea;" horiz-adv-x="550" 
d="M154 590h-45l133 131h66l135 -131h-48l-120 63zM32 30q62 2 67 19q2 6 3 16v419q-1 11 -3 16q-5 17 -67 20v30h442v-127h-24q-14 43 -34 63q-24 24 -61 24h-87v-205h62q35 0 54 27q16 24 15 57h24v-207h-24q0 34 -15 57q-18 27 -54 27h-62v-172q0 -36 20 -47q14 -8 60 -8
q53 0 95 34q18 14 33 34q13 15 24 36h24l-23 -143h-469v30z" />
    <glyph glyph-name="edieresis" unicode="&#xeb;" horiz-adv-x="550" 
d="M129 642q0 20 16 36t35 16q52 0 52 -52q0 -51 -52 -51q-51 0 -51 51zM319 642q0 20 16 36t35 16q52 0 52 -52q0 -51 -52 -51q-51 0 -51 51zM32 30q62 2 67 19q2 6 3 16v419q-1 11 -3 16q-5 17 -67 20v30h442v-127h-24q-14 43 -34 63q-24 24 -61 24h-87v-205h62
q35 0 54 27q16 24 15 57h24v-207h-24q0 34 -15 57q-18 27 -54 27h-62v-172q0 -36 20 -47q14 -8 60 -8q53 0 95 34q18 14 33 34q13 15 24 36h24l-23 -143h-469v30z" />
    <glyph glyph-name="igrave" unicode="&#xec;" horiz-adv-x="370" 
d="M268 75q0 -6 1 -10q0 -10 2 -16q5 -17 67 -19v-30h-306v30q63 2 68 19q2 6 3 16v419q-1 11 -3 16q-5 17 -68 20v30h306v-30q-62 -3 -67 -20q-2 -5 -2 -16q-1 -4 -1 -9v-400zM304 590h-43l-129 65q-34 17 -47 28q-20 16 -20 37q0 43 45 43q19 0 39 -16q7 -6 16 -15z" />
    <glyph glyph-name="iacute" unicode="&#xed;" horiz-adv-x="370" 
d="M187 714q4 3 8 9q1 0 3 2l6 7q9 9 16 15q20 16 40 16q44 0 44 -43q0 -21 -20 -37q-13 -11 -46 -28l-130 -65h-43zM268 75q0 -6 1 -10q0 -10 2 -16q5 -17 67 -19v-30h-306v30q63 2 68 19q2 6 3 16v419q-1 11 -3 16q-5 17 -68 20v30h306v-30q-62 -3 -67 -20q-2 -5 -2 -16
q-1 -4 -1 -9v-400z" />
    <glyph glyph-name="icircumflex" unicode="&#xee;" horiz-adv-x="370" 
d="M268 75q0 -6 1 -10q0 -10 2 -16q5 -17 67 -19v-30h-306v30q63 2 68 19q2 6 3 16v419q-1 11 -3 16q-5 17 -68 20v30h306v-30q-62 -3 -67 -20q-2 -5 -2 -16q-1 -4 -1 -9v-400zM61 590h-46l133 131h66l135 -131h-47l-121 63z" />
    <glyph glyph-name="idieresis" unicode="&#xef;" horiz-adv-x="370" 
d="M268 75q0 -6 1 -10q0 -10 2 -16q5 -17 67 -19v-30h-306v30q63 2 68 19q2 6 3 16v419q-1 11 -3 16q-5 17 -68 20v30h306v-30q-62 -3 -67 -20q-2 -5 -2 -16q-1 -4 -1 -9v-400zM38 642q0 20 16 36t35 16q52 0 52 -52q0 -51 -52 -51q-51 0 -51 51zM228 642q0 20 16 36t35 16
q52 0 52 -52q0 -51 -52 -51q-51 0 -51 51z" />
    <glyph glyph-name="eth" unicode="&#xf0;" horiz-adv-x="635" 
d="M238 126q8 -41 22 -64q19 -32 58 -32q50 0 65 52q7 25 9 71q2 36 2 109q0 40 -3 71q-4 36 -12 61q-18 58 -63 58q-47 0 -68 -62q-18 -51 -18 -147q0 -71 8 -117zM270 735q56 -20 102 -53l121 44l59 -45l-116 -43q75 -63 118 -143q49 -92 49 -195q0 -83 -26 -146
q-24 -58 -70 -96q-82 -70 -214 -70q-68 0 -123 24q-49 21 -84 60q-65 72 -65 170q0 106 86 188q83 80 187 80q26 0 59 -10q-21 47 -56 87l-117 -43l-62 45l126 46q-40 32 -92 56z" />
    <glyph glyph-name="ntilde" unicode="&#xf1;" horiz-adv-x="635" 
d="M496 703q-4 -44 -35 -77q-33 -36 -77 -36q-29 0 -51 8q-15 5 -32 17q-26 17 -61 17q-46 0 -66 -42h-32q11 48 38 76q28 32 67 32q52 0 75 -20l29 -12q19 -7 39 -7q60 0 75 44h31zM231 550q23 -36 58 -84q31 -44 70 -96q36 -47 75 -98q35 -46 69 -88h2v235q0 41 -4 67
q-2 18 -18 25q-18 8 -73 9v30h209v-30q-61 -2 -66 -34q-2 -13 -2 -31v-455h-116q-35 58 -124 179q-86 118 -163 214h-1v-298q0 -19 2 -31q2 -18 19 -26q19 -7 72 -8v-30h-208v30q60 1 65 34q3 25 3 66v311q-18 39 -45 58q-29 21 -68 21v30h244z" />
    <glyph glyph-name="ograve" unicode="&#xf2;" horiz-adv-x="658" 
d="M231 1q-50 14 -90 45q-47 35 -73 89q-30 61 -30 143q0 111 86 193q88 85 219 85q113 0 193 -75q84 -79 84 -199q0 -73 -30 -133q-27 -53 -75 -91q-44 -35 -99 -53q-51 -17 -102 -17q-40 0 -83 13zM372 30q22 11 37 34q19 28 29 74q11 53 11 127q0 64 -11 115
q-11 47 -32 80q-38 63 -92 63q-45 0 -73 -47q-15 -27 -23 -68q-10 -46 -10 -108q0 -129 37 -206q34 -72 88 -72q21 0 39 8zM449 588h-44l-129 64q-34 17 -46 28q-21 17 -21 37q0 43 45 43q20 0 39 -15q7 -7 17 -16z" />
    <glyph glyph-name="oacute" unicode="&#xf3;" horiz-adv-x="658" 
d="M231 1q-50 14 -90 45q-47 35 -73 89q-30 61 -30 143q0 111 86 193q88 85 219 85q113 0 193 -75q84 -79 84 -199q0 -73 -30 -133q-27 -53 -75 -91q-44 -35 -99 -53q-51 -17 -102 -17q-40 0 -83 13zM372 30q22 11 37 34q19 28 29 74q11 53 11 127q0 64 -11 115
q-11 47 -32 80q-38 63 -92 63q-45 0 -73 -47q-15 -27 -23 -68q-10 -46 -10 -108q0 -129 37 -206q34 -72 88 -72q21 0 39 8zM332 712q3 3 7 8q1 0 3 2l6 7q9 9 17 16q19 15 39 15q45 0 45 -43q0 -20 -21 -37q-12 -11 -46 -28l-130 -64h-43z" />
    <glyph glyph-name="ocircumflex" unicode="&#xf4;" horiz-adv-x="658" 
d="M208 588h-46l133 131h66l135 -131h-47l-121 63zM231 1q-50 14 -90 45q-47 35 -73 89q-30 61 -30 143q0 111 86 193q88 85 219 85q113 0 193 -75q84 -79 84 -199q0 -73 -30 -133q-27 -53 -75 -91q-44 -35 -99 -53q-51 -17 -102 -17q-40 0 -83 13zM372 30q22 11 37 34
q19 28 29 74q11 53 11 127q0 64 -11 115q-11 47 -32 80q-38 63 -92 63q-45 0 -73 -47q-15 -27 -23 -68q-10 -46 -10 -108q0 -129 37 -206q34 -72 88 -72q21 0 39 8z" />
    <glyph glyph-name="otilde" unicode="&#xf5;" horiz-adv-x="658" 
d="M231 1q-50 14 -90 45q-47 35 -73 89q-30 61 -30 143q0 111 86 193q88 85 219 85q113 0 193 -75q84 -79 84 -199q0 -73 -30 -133q-27 -53 -75 -91q-44 -35 -99 -53q-51 -17 -102 -17q-40 0 -83 13zM372 30q22 11 37 34q19 28 29 74q11 53 11 127q0 64 -11 115
q-11 47 -32 80q-38 63 -92 63q-45 0 -73 -47q-15 -27 -23 -68q-10 -46 -10 -108q0 -129 37 -206q34 -72 88 -72q21 0 39 8zM506 701q-4 -45 -35 -78q-33 -35 -77 -35q-29 0 -51 8q-15 4 -32 16q-26 17 -61 17q-46 0 -66 -41h-32q11 48 38 76q28 31 67 31q52 0 75 -19l29 -13
q18 -6 39 -6q60 0 75 44h31z" />
    <glyph glyph-name="odieresis" unicode="&#xf6;" horiz-adv-x="658" 
d="M182 640q0 19 16 36q16 15 35 15q52 0 52 -51t-52 -51q-51 0 -51 51zM372 640q0 19 16 36q16 15 35 15q52 0 52 -51t-52 -51q-51 0 -51 51zM231 1q-50 14 -90 45q-47 35 -73 89q-30 61 -30 143q0 111 86 193q88 85 219 85q113 0 193 -75q84 -79 84 -199q0 -73 -30 -133
q-27 -53 -75 -91q-44 -35 -99 -53q-51 -17 -102 -17q-40 0 -83 13zM372 30q22 11 37 34q19 28 29 74q11 53 11 127q0 64 -11 115q-11 47 -32 80q-38 63 -92 63q-45 0 -73 -47q-15 -27 -23 -68q-10 -46 -10 -108q0 -129 37 -206q34 -72 88 -72q21 0 39 8z" />
    <glyph glyph-name="divide" unicode="&#xf7;" horiz-adv-x="630" 
d="M63 205v96h504v-96h-504zM250 92q28 27 66 27q37 0 64 -28q28 -28 28 -64q0 -37 -27 -65q-28 -29 -64 -29q-38 0 -67 28q-28 28 -28 66t28 65zM250 546q28 27 66 27q37 0 64 -28q28 -28 28 -64q0 -37 -27 -65q-28 -29 -64 -29q-38 0 -67 28q-28 28 -28 66t28 65z" />
    <glyph glyph-name="oslash" unicode="&#xf8;" horiz-adv-x="647" 
d="M248 143q9 -39 23 -66q11 -23 26 -37q6 -6 13 -10l11 -6q5 -2 9 -2q4 -1 7 -1t6 1q5 1 10 4q13 8 23 25q14 21 21 56q9 41 9 100v66zM403 354q-9 56 -25 87q-22 38 -56 38q-82 0 -82 -196l-1 -34q-1 -19 0 -28zM32 43l54 45q-54 66 -54 151q0 13 2 29q3 19 9 39
q14 50 43 91q37 51 93 80q68 34 160 34q99 0 177 -59l67 56l40 -52l-60 -50q52 -65 52 -145q0 -124 -94 -201q-87 -73 -212 -73q-106 0 -176 55l-59 -50z" />
    <glyph glyph-name="ugrave" unicode="&#xf9;" horiz-adv-x="636" 
d="M263 189q0 -61 25 -94q26 -36 84 -36q64 0 92 28q35 34 35 121v247q-1 18 -3 31q-4 33 -66 34v30h182v-30q-52 -1 -61 -23q-5 -9 -6 -30v-274q0 -99 -61 -153q-55 -49 -141 -49q-135 0 -194 59q-51 52 -51 159v276q-1 10 -3 15q-5 18 -68 20v30h306v-30q-62 -2 -67 -20
q-2 -5 -2 -15q-1 -4 -1 -10v-286zM438 591h-44l-129 64q-34 17 -46 28q-21 17 -21 37q0 43 45 43q20 0 39 -15q7 -7 17 -16z" />
    <glyph glyph-name="uacute" unicode="&#xfa;" horiz-adv-x="636" 
d="M263 189q0 -61 25 -94q26 -36 84 -36q64 0 92 28q35 34 35 121v247q-1 18 -3 31q-4 33 -66 34v30h182v-30q-52 -1 -61 -23q-5 -9 -6 -30v-274q0 -99 -61 -153q-55 -49 -141 -49q-135 0 -194 59q-51 52 -51 159v276q-1 10 -3 15q-5 18 -68 20v30h306v-30q-62 -2 -67 -20
q-2 -5 -2 -15q-1 -4 -1 -10v-286zM321 715q3 3 7 8q1 0 3 2l6 7q9 9 17 16q19 15 39 15q45 0 45 -43q0 -20 -21 -37q-12 -11 -46 -28l-130 -64h-43z" />
    <glyph glyph-name="ucircumflex" unicode="&#xfb;" horiz-adv-x="636" 
d="M197 591h-46l133 131h66l135 -131h-47l-121 63zM263 189q0 -61 25 -94q26 -36 84 -36q64 0 92 28q35 34 35 121v247q-1 18 -3 31q-4 33 -66 34v30h182v-30q-52 -1 -61 -23q-5 -9 -6 -30v-274q0 -99 -61 -153q-55 -49 -141 -49q-135 0 -194 59q-51 52 -51 159v276
q-1 10 -3 15q-5 18 -68 20v30h306v-30q-62 -2 -67 -20q-2 -5 -2 -15q-1 -4 -1 -10v-286z" />
    <glyph glyph-name="udieresis" unicode="&#xfc;" horiz-adv-x="636" 
d="M171 643q0 19 16 36q16 15 35 15q52 0 52 -51t-52 -51q-51 0 -51 51zM361 643q0 19 16 36q16 15 35 15q52 0 52 -51t-52 -51q-51 0 -51 51zM263 189q0 -61 25 -94q26 -36 84 -36q64 0 92 28q35 34 35 121v247q-1 18 -3 31q-4 33 -66 34v30h182v-30q-52 -1 -61 -23
q-5 -9 -6 -30v-274q0 -99 -61 -153q-55 -49 -141 -49q-135 0 -194 59q-51 52 -51 159v276q-1 10 -3 15q-5 18 -68 20v30h306v-30q-62 -2 -67 -20q-2 -5 -2 -15q-1 -4 -1 -10v-286z" />
    <glyph glyph-name="yacute" unicode="&#xfd;" horiz-adv-x="616" 
d="M466 0h-306v30q62 2 66 19q3 6 3 16v136l-124 257q-16 35 -42 50q-20 12 -51 12v30h289v-30q-42 0 -47 -15q-4 -11 12 -47l101 -205l109 200q36 67 -51 67v30h179v-30q-21 0 -32 -6q-15 -8 -28 -33l-125 -228q-11 -21 -17 -37q-7 -21 -7 -40v-101q0 -6 1 -10q0 -10 2 -16
q5 -17 68 -19v-30zM334 714q3 3 8 9l2 2l6 7q10 9 17 15q19 16 39 16q45 0 45 -43q0 -21 -21 -37q-12 -11 -46 -28l-129 -65h-44z" />
    <glyph glyph-name="thorn" unicode="&#xfe;" horiz-adv-x="695" 
d="M278 75q25 -54 72 -54q34 0 61 52q15 29 23 71q10 48 10 108q0 36 -4 67q-4 36 -13 62q-23 65 -71 65q-52 0 -67 -70q-7 -28 -10 -63q-1 -15 -1 -34v-204zM78 574q0 81 -74 81v38q74 0 145 10q81 11 127 32l2 -2v-269l91 28q28 9 53 14q32 6 59 6q84 0 135 -74
q47 -69 47 -171q0 -71 -24 -127q-21 -51 -62 -86q-74 -66 -182 -66q-12 0 -24 1q-15 0 -30 2q-36 3 -63 12v-158q0 -7 1 -12q0 -13 3 -20q3 -10 23 -17q18 -6 41 -8v-38h-342v38q27 2 46 8q21 7 24 17q3 7 4 20v741z" />
    <glyph glyph-name="ydieresis" unicode="&#xff;" horiz-adv-x="616" 
d="M185 642q0 20 15 36q16 16 36 16q52 0 52 -52q0 -51 -52 -51q-51 0 -51 51zM375 642q0 20 15 36q16 16 36 16q52 0 52 -52q0 -51 -52 -51q-51 0 -51 51zM466 0h-306v30q62 2 66 19q3 6 3 16v136l-124 257q-16 35 -42 50q-20 12 -51 12v30h289v-30q-42 0 -47 -15
q-4 -11 12 -47l101 -205l109 200q36 67 -51 67v30h179v-30q-21 0 -32 -6q-15 -8 -28 -33l-125 -228q-11 -21 -17 -37q-7 -21 -7 -40v-101q0 -6 1 -10q0 -10 2 -16q5 -17 68 -19v-30z" />
    <glyph glyph-name="Amacron" unicode="&#x100;" 
d="M214 209l-32 -95q-26 -76 41 -76v-38h-216v38q28 0 55 16q34 21 55 64q9 19 37 84l134 332l69 178h81q39 -91 121 -289l117 -288q14 -37 47 -66q35 -31 66 -31v-38h-353v38q68 0 42 71l-38 100h-226zM417 265l-88 241l-94 -241h182zM148 752v86h501v-86h-501z" />
    <glyph glyph-name="amacron" unicode="&#x101;" horiz-adv-x="628" 
d="M169 164l-25 -75q-20 -59 33 -59v-30h-170v30q22 0 43 12q27 17 43 51q7 15 29 66l106 260l54 140h63q31 -72 95 -227l92 -226q11 -29 37 -52q28 -24 52 -24v-30h-277v30q53 0 33 56l-30 78h-178zM329 208l-69 189l-74 -189h143zM118 590v68h393v-68h-393z" />
    <glyph glyph-name="Abreve" unicode="&#x102;" 
d="M214 209l-32 -95q-26 -76 41 -76v-38h-216v38q28 0 55 16q34 21 55 64q9 19 37 84l134 332l69 178h81q39 -91 121 -289l117 -288q14 -37 47 -66q35 -31 66 -31v-38h-353v38q68 0 42 71l-38 100h-226zM417 265l-88 241l-94 -241h182zM515 908h31q-3 -69 -46.5 -112.5
t-100.5 -43.5q-56 0 -100 43.5t-48 112.5h32q12 -31 38.5 -46.5t73.5 -15.5q55 0 80.5 15t39.5 47z" />
    <glyph glyph-name="abreve" unicode="&#x103;" horiz-adv-x="628" 
d="M169 164l-25 -75q-20 -59 33 -59v-30h-170v30q22 0 43 12q27 17 43 51q7 15 29 66l106 260l54 140h63q31 -72 95 -227l92 -226q11 -29 37 -52q28 -24 52 -24v-30h-277v30q53 0 33 56l-30 78h-178zM329 208l-69 189l-74 -189h143zM406 713h24q-2 -54 -36.5 -88.5
t-78.5 -34.5t-78.5 34.5t-37.5 88.5h25q9 -25 30 -37t58 -12q43 0 63 12t31 37z" />
    <glyph glyph-name="dcroat" unicode="&#x111;" horiz-adv-x="674" 
d="M381 271h-111v-200q1 -17 3 -25q6 -15 33 -15q77 0 122 56q25 31 39 79q14 53 14 124q0 228 -197 228h-14v-200h111v-47zM105 318v166q-1 11 -3 16q-5 17 -68 20v30h327q123 0 202 -70q83 -71 83 -190q0 -84 -30 -144q-26 -55 -76 -89q-44 -30 -105 -44q-52 -13 -115 -13
h-286v30q63 2 68 19q2 6 3 16v206h-94v47h94z" />
    <glyph glyph-name="Emacron" unicode="&#x112;" horiz-adv-x="685" 
d="M32 38q79 3 85 25q3 7 4 20v534q-1 13 -4 20q-6 22 -85 25v38h563v-161h-31q-17 54 -43 80q-30 31 -77 31h-112v-261h80q44 0 68 34q21 30 19 72h31v-263h-31q0 43 -18 72q-23 35 -69 35h-80v-219q0 -46 26 -60q18 -10 76 -10q68 0 122 43q22 18 41 43q17 20 31 46h31
l-30 -182h-597v38zM92 752v86h501v-86h-501z" />
    <glyph glyph-name="emacron" unicode="&#x113;" horiz-adv-x="550" 
d="M32 30q62 2 67 19q2 6 3 16v419q-1 11 -3 16q-5 17 -67 20v30h442v-127h-24q-14 43 -34 63q-24 24 -61 24h-87v-205h62q35 0 54 27q16 24 15 57h24v-207h-24q0 34 -15 57q-18 27 -54 27h-62v-172q0 -36 20 -47q14 -8 60 -8q53 0 95 34q18 14 33 34q13 15 24 36h24
l-23 -143h-469v30zM79 590v68h393v-68h-393z" />
    <glyph glyph-name="Itilde" unicode="&#x128;" horiz-adv-x="454" 
d="M452 896q-5 -57 -45 -99q-42 -45 -98 -45q-37 0 -64 10q-20 6 -41 21q-33 22 -78 22q-59 0 -84 -53h-41q14 61 48 97q36 40 86 40q66 0 95 -25l37 -16q24 -8 50 -8q76 0 96 56h39zM333 95q0 -7 1 -12q0 -13 3 -20q6 -22 85 -25v-38h-390v38q80 3 86 25q3 7 4 20v534
q-1 13 -4 20q-6 22 -86 25v38h390v-38q-79 -3 -85 -25q-3 -7 -3 -20q-1 -5 -1 -12v-510z" />
    <glyph glyph-name="itilde" unicode="&#x129;" horiz-adv-x="370" 
d="M268 75q0 -6 1 -10q0 -10 2 -16q5 -17 67 -19v-30h-306v30q63 2 68 19q2 6 3 16v419q-1 11 -3 16q-5 17 -68 20v30h306v-30q-62 -3 -67 -20q-2 -5 -2 -16q-1 -4 -1 -9v-400zM355 703q-4 -44 -35 -77q-33 -36 -77 -36q-29 0 -50 8q-16 5 -33 17q-26 17 -61 17
q-46 0 -66 -42h-32q11 48 38 76q28 32 67 32q52 0 75 -20l29 -12q19 -7 39 -7q60 0 75 44h31z" />
    <glyph glyph-name="Imacron" unicode="&#x12a;" horiz-adv-x="454" 
d="M333 95q0 -7 1 -12q0 -13 3 -20q6 -22 85 -25v-38h-390v38q80 3 86 25q3 7 4 20v534q-1 13 -4 20q-6 22 -86 25v38h390v-38q-79 -3 -85 -25q-3 -7 -3 -20q-1 -5 -1 -12v-510zM-24 752v86h501v-86h-501z" />
    <glyph glyph-name="imacron" unicode="&#x12b;" horiz-adv-x="370" 
d="M268 75q0 -6 1 -10q0 -10 2 -16q5 -17 67 -19v-30h-306v30q63 2 68 19q2 6 3 16v419q-1 11 -3 16q-5 17 -68 20v30h306v-30q-62 -3 -67 -20q-2 -5 -2 -16q-1 -4 -1 -9v-400zM-12 590v68h393v-68h-393z" />
    <glyph glyph-name="dotlessi" unicode="&#x131;" horiz-adv-x="395" 
d="M98 351q0 81 -74 81v38q74 0 145 10q81 11 127 32l2 -2v-415q0 -7 1 -12q0 -13 3 -20q3 -10 24 -17q19 -6 45 -8v-38h-347v38q27 2 46 8q21 7 24 17q3 7 4 20v268z" />
    <glyph glyph-name="Lslash" unicode="&#x141;" horiz-adv-x="667" 
d="M32 38q79 3 85 25q3 7 4 20v196l-67 -43l-30 47l97 60v274q-1 13 -4 20q-6 22 -85 25v38h390v-38q-80 -3 -86 -25q-3 -7 -3 -20q-1 -5 -1 -12v-137l97 60l29 -44l-126 -82v-278q0 -49 26 -64q18 -10 76 -10q68 0 122 43q22 18 41 43q17 20 31 46h31l-30 -182h-597v38z
" />
    <glyph glyph-name="lslash" unicode="&#x142;" horiz-adv-x="395" 
d="M98 592q-1 20 -6 34q-13 41 -58 41h-10v38q114 1 181 10q54 6 91 20l2 -2v-245l64 33l27 -47l-91 -48v-331q0 -7 1 -12q0 -13 3 -20q3 -10 24 -17q19 -6 45 -8v-38h-347v38q27 2 46 8q21 7 24 17q3 7 4 20v214l-69 -36l-28 44l97 51v236z" />
    <glyph glyph-name="Omacron" unicode="&#x14c;" horiz-adv-x="817" 
d="M284 4q-64 19 -115 58q-60 45 -93 113q-38 78 -38 183q0 141 109 245q113 109 279 109q144 0 246 -96q107 -100 107 -254q0 -93 -38 -169q-34 -67 -95 -116q-56 -44 -126 -67q-66 -22 -131 -22q-51 0 -105 16zM463 42q28 13 48 43q24 36 37 94q14 67 14 162q0 81 -15 146
q-14 60 -40 102q-48 80 -117 80q-58 0 -93 -59q-20 -35 -30 -87q-12 -58 -12 -137q0 -165 47 -263q43 -92 112 -92q27 0 49 11zM158 752v86h501v-86h-501z" />
    <glyph glyph-name="omacron" unicode="&#x14d;" horiz-adv-x="658" 
d="M231 1q-50 14 -90 45q-47 35 -73 89q-30 61 -30 143q0 111 86 193q88 85 219 85q113 0 193 -75q84 -79 84 -199q0 -73 -30 -133q-27 -53 -75 -91q-44 -35 -99 -53q-51 -17 -102 -17q-40 0 -83 13zM372 30q22 11 37 34q19 28 29 74q11 53 11 127q0 64 -11 115
q-11 47 -32 80q-38 63 -92 63q-45 0 -73 -47q-15 -27 -23 -68q-10 -46 -10 -108q0 -129 37 -206q34 -72 88 -72q21 0 39 8zM132 588v67h393v-67h-393z" />
    <glyph glyph-name="OE" unicode="&#x152;" horiz-adv-x="1143" 
d="M561 57q13 14 16 39q3 17 3 58v394q0 42 -2 58q-4 25 -17 39q-28 29 -136 29q-34 0 -56 -6q-32 -10 -55 -35q-27 -30 -41 -86q-16 -63 -16 -160q0 -62 7 -118q9 -67 27 -118q20 -58 52 -89q35 -36 84 -36q105 0 134 31zM791 389h80q44 0 67 34q20 29 20 72h31v-263h-31
q0 43 -18 72q-23 35 -69 35h-80v-219q0 -46 26 -60q18 -10 76 -10q68 0 122 43q41 33 71 89h31l-30 -182h-227q-102 0 -170 -1q-144 -3 -265 -11q-178 0 -286 104q-101 98 -101 248q0 162 112 266q114 106 291 106q98 -8 250 -10q66 -2 163 -2h200v-161h-31
q-29 111 -121 111h-111v-261z" />
    <glyph glyph-name="oe" unicode="&#x153;" horiz-adv-x="911" 
d="M449 42q10 11 12 31q2 13 2 45v310q0 33 -1 45q-3 20 -13 31q-22 23 -107 23q-27 0 -44 -5q-25 -8 -43 -28q-22 -23 -33 -67q-12 -50 -12 -126q0 -48 5 -92q7 -53 22 -93q15 -46 40 -70q28 -28 66 -28q83 0 106 24zM629 303h63q34 0 53 26q15 23 15 57h25v-206h-25
q0 33 -14 56q-18 28 -54 28h-63v-172q0 -36 21 -47q14 -8 59 -8q54 0 96 33q32 26 56 70h24l-24 -143h-178h-133q-113 -3 -208 -9q-140 0 -225 82q-79 77 -79 194q0 127 88 209q89 83 228 83q77 -6 197 -8q51 -1 128 -1h157v-126h-25q-23 87 -95 87h-87v-205z" />
    <glyph glyph-name="Scaron" unicode="&#x160;" horiz-adv-x="592" 
d="M474 535q-3 4 -6 10l-19 33q-16 27 -30 44q-40 47 -90 47q-25 0 -46 -19q-29 -26 -29 -75q0 -46 46 -85q16 -15 57 -44l9 -7q5 -4 9 -6q11 -8 19 -15q23 -16 43 -32q70 -54 100 -105q27 -45 27 -97q0 -95 -82 -147q-78 -49 -210 -49q-86 0 -141 9q-45 7 -88 23
q-7 4 -7 14v164h31l9 -24q6 -16 11 -27q14 -33 28 -55q41 -61 104 -61q46 0 80 32q36 35 36 87t-25 85q-29 38 -120 93q-162 100 -162 203q0 181 284 181q64 0 102 -3q49 -3 81 -12q10 -4 10 -14v-148h-31zM449 919h59l-170 -167h-85l-169 167h58l153 -80z" />
    <glyph glyph-name="scaron" unicode="&#x161;" horiz-adv-x="477" 
d="M378 417q-2 4 -5 8l-15 26q-12 21 -23 35q-31 37 -71 37q-19 0 -36 -15q-23 -21 -23 -59q0 -36 37 -67q12 -12 44 -34l7 -6q4 -3 7 -5q9 -6 15 -11q18 -13 34 -26q55 -42 79 -82q21 -35 21 -76q0 -75 -65 -116q-61 -38 -164 -38q-68 0 -111 7q-35 6 -69 18q-6 3 -6 11
v129h25l7 -19q4 -13 8 -21q11 -26 22 -43q32 -48 82 -48q36 0 63 25q28 27 28 68t-20 67q-22 30 -94 73q-127 78 -127 159q0 142 223 142q50 0 80 -2q38 -2 64 -9q7 -4 7 -11v-117h-24zM358 719h47l-134 -131h-66l-133 131h45l121 -63z" />
    <glyph glyph-name="Utilde" unicode="&#x168;" 
d="M623 896q-5 -57 -45 -99q-42 -45 -98 -45q-37 0 -64 10q-20 6 -41 21q-33 22 -78 22q-59 0 -84 -53h-41q14 61 48 97q36 40 86 40q66 0 95 -25l37 -16q24 -8 50 -8q76 0 96 56h39zM328 240q0 -78 31 -119q34 -47 107 -47q82 0 118 36q44 44 44 154v315q-1 23 -3 40
q-6 41 -84 43v38h231v-38q-66 -2 -78 -29q-6 -12 -7 -38v-350q0 -126 -78 -195q-70 -62 -179 -62q-173 0 -248 75q-65 66 -65 203v351q-1 13 -4 20q-6 22 -86 25v38h390v-38q-79 -3 -85 -25q-3 -7 -3 -20q-1 -5 -1 -12v-365z" />
    <glyph glyph-name="utilde" unicode="&#x169;" horiz-adv-x="636" 
d="M495 704q-4 -45 -35 -78q-33 -35 -77 -35q-29 0 -51 8q-15 4 -32 16q-26 17 -61 17q-46 0 -66 -41h-32q11 48 38 76q28 31 67 31q52 0 75 -19l29 -13q18 -6 39 -6q60 0 75 44h31zM263 189q0 -61 25 -94q26 -36 84 -36q64 0 92 28q35 34 35 121v247q-1 18 -3 31
q-4 33 -66 34v30h182v-30q-52 -1 -61 -23q-5 -9 -6 -30v-274q0 -99 -61 -153q-55 -49 -141 -49q-135 0 -194 59q-51 52 -51 159v276q-1 10 -3 15q-5 18 -68 20v30h306v-30q-62 -2 -67 -20q-2 -5 -2 -15q-1 -4 -1 -10v-286z" />
    <glyph glyph-name="Umacron" unicode="&#x16a;" 
d="M328 240q0 -78 31 -119q34 -47 107 -47q82 0 118 36q44 44 44 154v315q-1 23 -3 40q-6 41 -84 43v38h231v-38q-66 -2 -78 -29q-6 -12 -7 -38v-350q0 -126 -78 -195q-70 -62 -179 -62q-173 0 -248 75q-65 66 -65 203v351q-1 13 -4 20q-6 22 -86 25v38h390v-38
q-79 -3 -85 -25q-3 -7 -3 -20q-1 -5 -1 -12v-365zM148 752v86h501v-86h-501z" />
    <glyph glyph-name="umacron" unicode="&#x16b;" horiz-adv-x="636" 
d="M263 189q0 -61 25 -94q26 -36 84 -36q64 0 92 28q35 34 35 121v247q-1 18 -3 31q-4 33 -66 34v30h182v-30q-52 -1 -61 -23q-5 -9 -6 -30v-274q0 -99 -61 -153q-55 -49 -141 -49q-135 0 -194 59q-51 52 -51 159v276q-1 10 -3 15q-5 18 -68 20v30h306v-30q-62 -2 -67 -20
q-2 -5 -2 -15q-1 -4 -1 -10v-286zM122 591v67h393v-67h-393z" />
    <glyph glyph-name="Ydieresis" unicode="&#x178;" horiz-adv-x="778" 
d="M232 818q0 25 20 46q20 20 45 20q66 0 66 -66q0 -65 -66 -65q-65 0 -65 65zM474 818q0 25 20 46q20 20 45 20q66 0 66 -66q0 -65 -66 -65q-65 0 -65 65zM590 0h-390v38q79 3 85 25q3 7 4 20v173l-159 328q-20 44 -53 63q-26 15 -65 15v38h368v-38q-53 0 -60 -19
q-5 -14 16 -59l128 -262l139 255q46 85 -65 85v38h228v-38q-26 0 -40 -7q-20 -11 -36 -42l-160 -291q-14 -27 -21 -47q-9 -26 -9 -51v-129q0 -7 1 -12q0 -13 3 -20q6 -22 86 -25v-38z" />
    <glyph glyph-name="Zcaron" unicode="&#x17d;" horiz-adv-x="685" 
d="M640 642l-409 -595h270q110 0 127 129h31v-176h-599l-34 56l410 597h-207q-60 0 -90 -35q-12 -14 -20 -35q-6 -15 -11 -39h-31v156h563v-58zM496 919h59l-170 -167h-85l-169 167h58l153 -80z" />
    <glyph glyph-name="zcaron" unicode="&#x17e;" horiz-adv-x="549" 
d="M508 504l-321 -467h212q86 0 100 101h24v-138h-470l-27 44l322 469h-163q-47 0 -70 -28q-10 -11 -16 -27q-5 -12 -9 -31h-24v123h442v-46zM395 721h46l-133 -131h-67l-133 131h46l120 -62z" />
    <glyph glyph-name="florin" unicode="&#x192;" horiz-adv-x="630" 
d="M544 433l-21 -27h-135q-49 -288 -104 -403q-54 -114 -167 -167q-56 -26 -103 -38q-17 -4 -31 -6q-11 -2 -17 -2h-11q-6 -1 -10 0q-11 0 -18 6l-61 69q-7 5 -6 11q1 5 6 9l19 30q6 9 16 4l85 -35q21 -6 42 -6q43 0 78 123q16 58 37 164l22 111q5 27 12 62l13 68h-101
l15 63h94q21 86 64 145q36 50 88 80q43 24 95 34q37 7 81 7q46 0 88 -8q30 -6 51 -14l-15 -91l-42 -12l-15 28q-8 14 -15 22q-16 19 -45 19q-78 0 -112 -150l-16 -60h148z" />
    <glyph glyph-name="Ohorn" unicode="&#x1a0;" horiz-adv-x="817" 
d="M284 4q-64 19 -115 58q-60 45 -93 113q-38 78 -38 183q0 141 109 245q113 109 279 109q144 0 246 -96q107 -100 107 -254q0 -93 -38 -169q-34 -67 -95 -116q-56 -44 -126 -67q-66 -22 -131 -22q-51 0 -105 16zM463 42q28 13 48 43q24 36 37 94q14 67 14 162q0 81 -15 146
q-14 60 -40 102q-48 80 -117 80q-58 0 -93 -59q-20 -35 -30 -87q-12 -58 -12 -137q0 -165 47 -263q43 -92 112 -92q27 0 49 11zM651 632q21 7 28 12l14 14q-22 9 -35 28.5t-13 43.5q0 32 22 55t54 23q30 0 53 -23t23 -55q0 -9 -5.5 -27t-10.5 -25l-18 -22q-12 -12 -27.5 -21
t-30.5 -16q-7 -3 -48 -19l-28 26q15 4 22 6z" />
    <glyph glyph-name="ohorn" unicode="&#x1a1;" horiz-adv-x="658" 
d="M231 1q-50 14 -90 45q-47 35 -73 89q-30 61 -30 143q0 111 86 193q88 85 219 85q113 0 193 -75q84 -79 84 -199q0 -73 -30 -133q-27 -53 -75 -91q-44 -35 -99 -53q-51 -17 -102 -17q-40 0 -83 13zM372 30q22 11 37 34q19 28 29 74q11 53 11 127q0 64 -11 115
q-11 47 -32 80q-38 63 -92 63q-45 0 -73 -47q-15 -27 -23 -68q-10 -46 -10 -108q0 -129 37 -206q34 -72 88 -72q21 0 39 8zM519 494q17 5 22 9l11 11q-17 7 -27.5 22.5t-10.5 33.5q0 26 17.5 44t42.5 18q24 0 42 -18t18 -44q0 -7 -4.5 -21t-8.5 -19l-14 -18q-9 -9 -21.5 -16
t-23.5 -13q-6 -2 -38 -15l-22 21q12 3 17 5z" />
    <glyph glyph-name="Uhorn" unicode="&#x1af;" 
d="M328 240q0 -78 31 -119q34 -47 107 -47q82 0 118 36q44 44 44 154v315q-1 23 -3 40q-6 41 -84 43v38h146v-23v-36v-46v-350q0 -126 -78 -195q-70 -62 -179 -62q-173 0 -248 75q-65 66 -65 203v351q-1 13 -4 20q-6 22 -86 25v38h390v-38q-79 -3 -85 -25q-3 -7 -3 -20
q-1 -5 -1 -12v-365zM673 684q5 1 8.5 2.5t11.5 7.5l14 14q-22 9 -35 28.5t-13 43.5q0 32 22 55t54 23q30 0 53 -23t23 -55q0 -9 -5.5 -27t-10.5 -25l-18 -22q-12 -12 -31 -23t-37.5 -22t-35.5 -17v40z" />
    <glyph glyph-name="uhorn" unicode="&#x1b0;" horiz-adv-x="569" 
d="M263 189q0 -61 25 -94q26 -36 84 -36q64 0 92 28q35 34 35 121v247q-1 18 -3 31q-4 33 -66 34v30h115v-18v-28v-37v-274q0 -99 -61 -153q-55 -49 -141 -49q-135 0 -194 59q-51 52 -51 159v276q-1 10 -3 15q-5 18 -68 20v30h306v-30q-62 -2 -67 -20q-2 -5 -2 -15
q-1 -4 -1 -10v-286zM534 537q4 1 7 2.5t9 5.5l11 11q-17 7 -27.5 22.5t-10.5 34.5q0 25 17.5 43t42.5 18q23 0 41 -18t18 -43q0 -7 -4 -21.5t-8 -19.5q-7 -9 -14 -17q-10 -10 -24.5 -18.5t-29.5 -17t-28 -13.5v31z" />
    <glyph glyph-name="circumflex" unicode="&#x2c6;" horiz-adv-x="556" 
d="M123 572h-58l170 167h84l171 -167h-60l-153 80z" />
    <glyph glyph-name="caron" unicode="&#x2c7;" horiz-adv-x="556" 
d="M431 739h59l-170 -167h-85l-169 167h58l153 -80z" />
    <glyph glyph-name="breve" unicode="&#x2d8;" horiz-adv-x="722" 
d="M475 875h31q-3 -69 -46.5 -112.5t-100.5 -43.5q-56 0 -100 43.5t-48 112.5h32q12 -31 38.5 -46.5t74.5 -15.5q54 0 79.5 15t39.5 47z" />
    <glyph glyph-name="dotaccent" unicode="&#x2d9;" horiz-adv-x="315" 
d="M253 638q0 -39 -29 -66q-28 -28 -67 -28q-96 0 -96 94q0 39 26 67q27 28 65 28q101 0 101 -95z" />
    <glyph glyph-name="ring" unicode="&#x2da;" horiz-adv-x="333" 
d="M124 662q0 -45 42 -45q43 0 43 45t-43 45q-42 0 -42 -45zM97 591q-31 30 -31 70t31 71q30 30 71 30q40 0 70 -30q29 -30 29 -71t-29 -70q-30 -29 -72 -29q-39 0 -69 29z" />
    <glyph glyph-name="ogonek" unicode="&#x2db;" horiz-adv-x="352" 
d="M284 -89q-30 -27 -57 -39q-37 -17 -87 -17q-72 0 -72 65q0 24 19 48q14 19 45 42h77l-15 -17q-5 -5 -7 -9l-7 -8q-14 -18 -14 -35q0 -44 35 -44q32 0 67 35z" />
    <glyph glyph-name="tilde" unicode="&#x2dc;" horiz-adv-x="574" 
d="M512 716q-5 -57 -45 -99q-42 -45 -98 -45q-37 0 -64 10q-20 6 -41 21q-33 22 -78 22q-59 0 -84 -53h-41q14 61 48 97q36 40 86 40q66 0 95 -25l37 -16q24 -8 50 -8q76 0 96 56h39z" />
    <glyph glyph-name="hungarumlaut" unicode="&#x2dd;" horiz-adv-x="667" 
d="M223 730q4 4 10 11q1 0 3 2l8 9q12 12 21 20q25 20 50 20q57 0 57 -55q0 -26 -26 -47q-16 -14 -59 -36l-165 -82h-55zM451 730q4 4 10 11q1 0 3 2l8 9q12 12 21 20q25 20 50 20q57 0 57 -55q0 -26 -26 -47q-16 -14 -59 -36l-165 -82h-55z" />
    <glyph glyph-name="uni1EA0" unicode="&#x1ea0;" 
d="M214 209l-32 -95q-26 -76 41 -76v-38h-216v38q28 0 55 16q34 21 55 64q9 19 37 84l134 332l69 178h81q39 -91 121 -289l117 -288q14 -37 47 -66q35 -31 66 -31v-38h-353v38q68 0 42 71l-38 100h-226zM417 265l-88 241l-94 -241h182zM263 -106q0 25 20 46q20 20 45 20
q66 0 66 -66q0 -65 -66 -65q-65 0 -65 65z" />
    <glyph glyph-name="uni1EA1" unicode="&#x1ea1;" horiz-adv-x="628" 
d="M169 164l-25 -74q-20 -60 33 -60v-30h-170v30q22 0 43 13q27 16 43 50q7 15 29 66l106 260l54 140h63q31 -71 95 -227l92 -226q11 -29 37 -52q28 -24 52 -24v-30h-277v30q53 0 33 56l-30 78h-178zM329 208l-69 189l-74 -189h143zM208 -83q0 20 16 36q15 16 35 16
q52 0 52 -52q0 -51 -52 -51q-51 0 -51 51z" />
    <glyph glyph-name="uni1EA2" unicode="&#x1ea2;" 
d="M214 209l-32 -95q-26 -76 41 -76v-38h-216v38q28 0 55 16q34 21 55 64q9 19 37 84l134 332l69 178h81q39 -91 121 -289l117 -288q14 -37 47 -66q35 -31 66 -31v-38h-353v38q68 0 42 71l-38 100h-226zM417 265l-88 241l-94 -241h182zM361 752q-4 27 15 74q23 53 23 87
q0 10 -6 26q-7 20 -16 20q-7 0 -17 -10l-13 -15l-14 -13q-8 -4 -18 2l-6 4q-7 5 -5 12l15 27q17 11 72 11q43 0 71 -19q30 -21 30 -57q0 -13 -7 -27q-5 -11 -14 -23q-7 -9 -19 -21l-17 -19q-29 -35 -33 -59h-41z" />
    <glyph glyph-name="uni1EA3" unicode="&#x1ea3;" horiz-adv-x="628" 
d="M169 164l-25 -75q-20 -59 33 -59v-30h-170v30q22 0 43 12q27 17 43 51q7 15 29 66l106 260l54 140h63q31 -72 95 -227l92 -226q11 -29 37 -52q28 -24 52 -24v-30h-277v30q53 0 33 56l-30 78h-178zM329 208l-69 189l-74 -189h143zM285 590q-3 22 12 58q18 42 18 69
q0 8 -5 20q-5 16 -13 16q-5 0 -13 -8l-10 -12l-11 -10q-6 -3 -14 2l-5 3q-5 4 -4 9l12 21q13 9 56 9q34 0 56 -15q24 -16 24 -45q0 -10 -6 -21q-4 -9 -11 -18q-5 -7 -15 -16l-13 -15q-23 -28 -26 -47h-32z" />
    <glyph glyph-name="uni1EA4" unicode="&#x1ea4;" 
d="M243 752h-58l170 167h84l171 -167h-60l-153 80zM214 209l-32 -95q-26 -76 41 -76v-38h-216v38q28 0 55 16q34 21 55 64q9 19 37 84l134 332l69 178h81q39 -91 121 -289l117 -288q14 -37 47 -66q35 -31 66 -31v-38h-353v38q68 0 42 71l-38 100h-226zM417 265l-88 241
l-94 -241h182zM682 1031q4 4 10 11q1 0 3 2l8 9q12 12 21 20q25 20 50 20q57 0 57 -55q0 -26 -26 -47q-16 -14 -59 -36l-165 -82h-55z" />
    <glyph glyph-name="uni1EA5" unicode="&#x1ea5;" horiz-adv-x="628" 
d="M192 590h-45l133 131h66l134 -131h-47l-120 63zM169 164l-25 -75q-20 -59 33 -59v-30h-170v30q22 0 43 12q27 17 43 51q7 15 29 66l106 260l54 140h63q31 -72 95 -227l92 -226q11 -29 37 -52q28 -24 52 -24v-30h-277v30q53 0 33 56l-30 78h-178zM329 208l-69 189
l-74 -189h143zM537 809q3 3 8 9q1 0 2 2l6 7q10 9 17 15q19 16 39 16q45 0 45 -43q0 -21 -21 -37q-12 -11 -46 -28l-129 -65h-44z" />
    <glyph glyph-name="uni1EA6" unicode="&#x1ea6;" 
d="M243 752h-58l170 167h84l171 -167h-60l-153 80zM214 209l-32 -95q-26 -76 41 -76v-38h-216v38q28 0 55 16q34 21 55 64q9 19 37 84l134 332l69 178h81q39 -91 121 -289l117 -288q14 -37 47 -66q35 -31 66 -31v-38h-353v38q68 0 42 71l-38 100h-226zM417 265l-88 241
l-94 -241h182zM608 921h-55l-165 82q-43 22 -59 36q-26 21 -26 47q0 55 57 55q25 0 50 -20q9 -8 21 -20z" />
    <glyph glyph-name="uni1EA7" unicode="&#x1ea7;" horiz-adv-x="628" 
d="M192 590h-45l133 131h66l134 -131h-47l-120 63zM169 164l-25 -75q-20 -59 33 -59v-30h-170v30q22 0 43 12q27 17 43 51q7 15 29 66l106 260l54 140h63q31 -72 95 -227l92 -226q11 -29 37 -52q28 -24 52 -24v-30h-277v30q53 0 33 56l-30 78h-178zM329 208l-69 189
l-74 -189h143zM479 723h-43l-130 64q-34 18 -46 29q-21 16 -21 37q0 43 45 43q20 0 39 -16q7 -6 17 -16z" />
    <glyph glyph-name="uni1EA8" unicode="&#x1ea8;" 
d="M243 752h-58l170 167h84l171 -167h-60l-153 80zM214 209l-32 -95q-26 -76 41 -76v-38h-216v38q28 0 55 16q34 21 55 64q9 19 37 84l134 332l69 178h81q39 -91 121 -289l117 -288q14 -37 47 -66q35 -31 66 -31v-38h-353v38q68 0 42 71l-38 100h-226zM417 265l-88 241
l-94 -241h182zM542 844q-4 27 15 74q23 53 23 87q0 10 -6 26q-7 20 -16 20q-7 0 -17 -10l-13 -15l-14 -13q-8 -4 -18 2l-6 4q-7 5 -5 12l15 27q17 11 72 11q43 0 71 -19q30 -21 30 -57q0 -13 -7 -27q-5 -11 -14 -23q-7 -9 -19 -21l-17 -19q-29 -35 -33 -59h-41z" />
    <glyph glyph-name="uni1EA9" unicode="&#x1ea9;" horiz-adv-x="628" 
d="M192 590h-45l133 131h66l134 -131h-47l-120 63zM169 164l-25 -75q-20 -59 33 -59v-30h-170v30q22 0 43 12q27 17 43 51q7 15 29 66l106 260l54 140h63q31 -72 95 -227l92 -226q11 -29 37 -52q28 -24 52 -24v-30h-277v30q53 0 33 56l-30 78h-178zM329 208l-69 189
l-74 -189h143zM427 663q-3 21 12 58q18 41 18 68q0 8 -5 20q-5 16 -12 16q-6 0 -14 -8l-10 -12l-11 -10q-6 -3 -14 2l-5 3q-5 4 -4 9l12 22q13 8 57 8q33 0 55 -15q24 -16 24 -44q0 -11 -6 -22q-4 -8 -11 -18q-5 -7 -15 -16l-13 -15q-23 -28 -26 -46h-32z" />
    <glyph glyph-name="uni1EAA" unicode="&#x1eaa;" 
d="M243 752h-58l170 167h84l171 -167h-60l-153 80zM214 209l-32 -95q-26 -76 41 -76v-38h-216v38q28 0 55 16q34 21 55 64q9 19 37 84l134 332l69 178h81q39 -91 121 -289l117 -288q14 -37 47 -66q35 -31 66 -31v-38h-353v38q68 0 42 71l-38 100h-226zM417 265l-88 241
l-94 -241h182zM624 1110q-5 -57 -45 -99q-42 -45 -98 -45q-37 0 -64 10q-20 6 -41 21q-33 22 -78 22q-59 0 -84 -53h-41q14 61 48 97q36 40 86 40q66 0 95 -25l37 -16q24 -8 50 -8q76 0 96 56h39z" />
    <glyph glyph-name="uni1EAB" unicode="&#x1eab;" horiz-adv-x="628" 
d="M192 590h-45l133 131h66l134 -131h-47l-120 63zM169 164l-25 -75q-20 -59 33 -59v-30h-170v30q22 0 43 12q27 17 43 51q7 15 29 66l106 260l54 140h63q31 -72 95 -227l92 -226q11 -29 37 -52q28 -24 52 -24v-30h-277v30q53 0 33 56l-30 78h-178zM329 208l-69 189
l-74 -189h143zM491 871q-4 -44 -35 -77q-33 -36 -77 -36q-29 0 -50 8q-16 5 -32 17q-26 17 -62 17q-46 0 -66 -42h-32q11 48 38 76q28 32 68 32q51 0 74 -20l29 -12q19 -7 39 -7q60 0 76 44h30z" />
    <glyph glyph-name="uni1EAC" unicode="&#x1eac;" 
d="M214 209l-32 -95q-26 -76 41 -76v-38h-216v38q28 0 55 16q34 21 55 64q9 19 37 84l134 332l69 178h81q39 -91 121 -289l117 -288q14 -37 47 -66q35 -31 66 -31v-38h-353v38q68 0 42 71l-38 100h-226zM417 265l-88 241l-94 -241h182zM243 752h-58l170 167h84l171 -167h-60
l-153 80zM263 -106q0 25 20 46q20 20 45 20q66 0 66 -66q0 -65 -66 -65q-65 0 -65 65z" />
    <glyph glyph-name="uni1EAD" unicode="&#x1ead;" horiz-adv-x="628" 
d="M192 590h-45l133 131h66l134 -131h-47l-120 63zM169 164l-25 -75q-20 -59 33 -59v-30h-170v30q22 0 43 12q27 17 43 51q7 15 29 66l106 260l54 140h63q31 -72 95 -227l92 -226q11 -29 37 -52q28 -24 52 -24v-30h-277v30q53 0 33 56l-30 78h-178zM329 208l-69 189
l-74 -189h143zM208 -83q0 20 16 36q15 16 35 16q52 0 52 -52q0 -51 -52 -51q-51 0 -51 51z" />
    <glyph glyph-name="uni1EAE" unicode="&#x1eae;" 
d="M214 209l-32 -95q-26 -76 41 -76v-38h-216v38q28 0 55 16q34 21 55 64q9 19 37 84l134 332l69 178h81q39 -91 121 -289l117 -288q14 -37 47 -66q35 -31 66 -31v-38h-353v38q68 0 42 71l-38 100h-226zM417 265l-88 241l-94 -241h182zM515 908h31q-3 -69 -46.5 -112.5
t-100.5 -43.5q-56 0 -100 43.5t-48 112.5h32q12 -31 38.5 -46.5t73.5 -15.5q55 0 80.5 15t39.5 47zM515 1088q4 4 10 11q1 0 3 2l8 9q12 12 21 20q25 20 50 20q57 0 57 -55q0 -26 -26 -47q-16 -14 -59 -36l-165 -82h-55z" />
    <glyph glyph-name="uni1EAF" unicode="&#x1eaf;" horiz-adv-x="628" 
d="M169 164l-25 -75q-20 -59 33 -59v-30h-170v30q22 0 43 12q27 17 43 51q7 15 29 66l106 260l54 140h63q31 -72 95 -227l92 -226q11 -29 37 -52q28 -24 52 -24v-30h-277v30q53 0 33 56l-30 78h-178zM329 208l-69 189l-74 -189h143zM406 713h24q-2 -54 -36.5 -88.5
t-78.5 -34.5t-78.5 34.5t-37.5 88.5h25q9 -25 30 -37t58 -12q43 0 63 12t31 37zM406 854q3 3 8 9l2 1l6 7q10 10 17 16q19 16 39 16q45 0 45 -43q0 -21 -21 -37q-12 -11 -46 -29l-130 -64h-43z" />
    <glyph glyph-name="uni1EB0" unicode="&#x1eb0;" 
d="M214 209l-32 -95q-26 -76 41 -76v-38h-216v38q28 0 55 16q34 21 55 64q9 19 37 84l134 332l69 178h81q39 -91 121 -289l117 -288q14 -37 47 -66q35 -31 66 -31v-38h-353v38q68 0 42 71l-38 100h-226zM417 265l-88 241l-94 -241h182zM515 908h31q-3 -69 -46.5 -112.5
t-100.5 -43.5q-56 0 -100 43.5t-48 112.5h32q12 -31 38.5 -46.5t73.5 -15.5q55 0 80.5 15t39.5 47zM438 930h-55l-165 82q-43 22 -59 36q-26 21 -26 47q0 55 57 55q25 0 50 -20q9 -8 21 -20z" />
    <glyph glyph-name="uni1EB1" unicode="&#x1eb1;" horiz-adv-x="628" 
d="M169 164l-25 -75q-20 -59 33 -59v-30h-170v30q22 0 43 12q27 17 43 51q7 15 29 66l106 260l54 140h63q31 -72 95 -227l92 -226q11 -29 37 -52q28 -24 52 -24v-30h-277v30q53 0 33 56l-30 78h-178zM329 208l-69 189l-74 -189h143zM406 713h24q-2 -54 -36.5 -88.5
t-78.5 -34.5t-78.5 34.5t-37.5 88.5h25q9 -25 30 -37t58 -12q43 0 63 12t31 37zM345 730h-43l-129 64q-34 18 -47 29q-20 16 -20 37q0 43 45 43q19 0 39 -16q7 -6 16 -16z" />
    <glyph glyph-name="uni1EB2" unicode="&#x1eb2;" 
d="M214 209l-32 -95q-26 -76 41 -76v-38h-216v38q28 0 55 16q34 21 55 64q9 19 37 84l134 332l69 178h81q39 -91 121 -289l117 -288q14 -37 47 -66q35 -31 66 -31v-38h-353v38q68 0 42 71l-38 100h-226zM417 265l-88 241l-94 -241h182zM515 908h31q-3 -69 -46.5 -112.5
t-100.5 -43.5q-56 0 -100 43.5t-48 112.5h32q12 -31 38.5 -46.5t73.5 -15.5q55 0 80.5 15t39.5 47zM387 895q-4 27 15 74q23 53 23 87q0 10 -6 26q-7 20 -16 20q-7 0 -17 -10l-13 -15l-14 -13q-8 -4 -18 2l-6 4q-7 5 -5 12l15 27q17 11 72 11q43 0 71 -19q30 -21 30 -57
q0 -13 -7 -27q-5 -11 -14 -23q-7 -9 -19 -21l-17 -19q-29 -35 -33 -59h-41z" />
    <glyph glyph-name="uni1EB3" unicode="&#x1eb3;" horiz-adv-x="628" 
d="M169 164l-25 -75q-20 -59 33 -59v-30h-170v30q22 0 43 12q27 17 43 51q7 15 29 66l106 260l54 140h63q31 -72 95 -227l92 -226q11 -29 37 -52q28 -24 52 -24v-30h-277v30q53 0 33 56l-30 78h-178zM329 208l-69 189l-74 -189h143zM406 713h24q-2 -54 -36.5 -88.5
t-78.5 -34.5t-78.5 34.5t-37.5 88.5h25q9 -25 30 -37t58 -12q43 0 63 12t31 37zM305 703q-3 21 12 58q18 41 18 68q0 8 -5 20q-5 16 -12 16q-6 0 -13 -8l-11 -12l-11 -10q-6 -3 -14 2l-5 3q-5 4 -3 9l11 22q14 8 57 8q34 0 56 -15q23 -16 23 -44q0 -11 -5 -22q-4 -8 -11 -18
q-6 -7 -15 -16l-14 -15q-22 -28 -26 -46h-32z" />
    <glyph glyph-name="uni1EB4" unicode="&#x1eb4;" 
d="M214 209l-32 -95q-26 -76 41 -76v-38h-216v38q28 0 55 16q34 21 55 64q9 19 37 84l134 332l69 178h81q39 -91 121 -289l117 -288q14 -37 47 -66q35 -31 66 -31v-38h-353v38q68 0 42 71l-38 100h-226zM417 265l-88 241l-94 -241h182zM515 908h31q-3 -69 -46.5 -112.5
t-100.5 -43.5q-56 0 -100 43.5t-48 112.5h32q12 -31 38.5 -46.5t73.5 -15.5q55 0 80.5 15t39.5 47zM792 1107q-5 -57 -45 -99q-42 -45 -98 -45q-37 0 -64 10q-20 6 -41 21q-33 22 -78 22q-59 0 -84 -53h-41q14 61 48 97q36 40 86 40q66 0 95 -25l37 -16q24 -8 50 -8
q76 0 96 56h39z" />
    <glyph glyph-name="uni1EB5" unicode="&#x1eb5;" horiz-adv-x="628" 
d="M169 164l-25 -75q-20 -59 33 -59v-30h-170v30q22 0 43 12q27 17 43 51q7 15 29 66l106 260l54 140h63q31 -72 95 -227l92 -226q11 -29 37 -52q28 -24 52 -24v-30h-277v30q53 0 33 56l-30 78h-178zM329 208l-69 189l-74 -189h143zM406 713h24q-2 -54 -36.5 -88.5
t-78.5 -34.5t-78.5 34.5t-37.5 88.5h25q9 -25 30 -37t58 -12q43 0 63 12t31 37zM623 869q-4 -45 -35 -78q-33 -35 -77 -35q-29 0 -50 8q-16 5 -32 16q-26 18 -62 18q-46 0 -66 -42h-32q11 48 38 76q28 32 67 32q52 0 75 -20l29 -13q19 -6 39 -6q60 0 76 44h30z" />
    <glyph glyph-name="uni1EB6" unicode="&#x1eb6;" 
d="M214 209l-32 -95q-26 -76 41 -76v-38h-216v38q28 0 55 16q34 21 55 64q9 19 37 84l134 332l69 178h81q39 -91 121 -289l117 -288q14 -37 47 -66q35 -31 66 -31v-38h-353v38q68 0 42 71l-38 100h-226zM417 265l-88 241l-94 -241h182zM515 908h31q-3 -69 -46.5 -112.5
t-100.5 -43.5q-56 0 -100 43.5t-48 112.5h32q12 -31 38.5 -46.5t73.5 -15.5q55 0 80.5 15t39.5 47zM263 -106q0 25 20 46q20 20 45 20q66 0 66 -66q0 -65 -66 -65q-65 0 -65 65z" />
    <glyph glyph-name="uni1EB7" unicode="&#x1eb7;" horiz-adv-x="628" 
d="M169 164l-25 -75q-20 -59 33 -59v-30h-170v30q22 0 43 12q27 17 43 51q7 15 29 66l106 260l54 140h63q31 -72 95 -227l92 -226q11 -29 37 -52q28 -24 52 -24v-30h-277v30q53 0 33 56l-30 78h-178zM329 208l-69 189l-74 -189h143zM406 713h24q-2 -54 -36.5 -88.5
t-78.5 -34.5t-78.5 34.5t-37.5 88.5h25q9 -25 30 -37t58 -12q43 0 63 12t31 37zM208 -83q0 20 16 36q15 16 35 16q52 0 52 -52q0 -51 -52 -51q-51 0 -51 51z" />
    <glyph glyph-name="uni1EB8" unicode="&#x1eb8;" horiz-adv-x="685" 
d="M32 38q79 3 85 25q3 7 4 20v534q-1 13 -4 20q-6 22 -85 25v38h563v-161h-31q-17 54 -43 80q-30 31 -77 31h-112v-261h80q44 0 68 34q21 30 19 72h31v-263h-31q0 43 -18 72q-23 35 -69 35h-80v-219q0 -46 26 -60q18 -10 76 -10q68 0 122 43q22 18 41 43q17 20 31 46h31
l-30 -182h-597v38zM277 -106q0 25 20 46q20 20 45 20q66 0 66 -66q0 -65 -66 -65q-65 0 -65 65z" />
    <glyph glyph-name="uni1EB9" unicode="&#x1eb9;" horiz-adv-x="550" 
d="M32 30q62 2 67 20q2 5 3 15v420q-1 10 -3 15q-5 18 -67 20v30h442v-127h-24q-14 43 -34 63q-24 24 -61 24h-87v-204h62q35 0 54 26q16 24 15 57h24v-207h-24q0 34 -15 57q-18 27 -54 27h-62v-172q0 -36 20 -47q14 -8 60 -8q53 0 95 34q18 14 33 34q13 16 24 36h24
l-23 -143h-469v30zM224 -83q0 20 16 36t35 16q52 0 52 -52q0 -51 -52 -51q-51 0 -51 51z" />
    <glyph glyph-name="uni1EBA" unicode="&#x1eba;" horiz-adv-x="685" 
d="M32 38q79 3 85 25q3 7 4 20v534q-1 13 -4 20q-6 22 -85 25v38h563v-161h-31q-17 54 -43 80q-30 31 -77 31h-112v-261h80q44 0 68 34q21 30 19 72h31v-263h-31q0 43 -18 72q-23 35 -69 35h-80v-219q0 -46 26 -60q18 -10 76 -10q68 0 122 43q22 18 41 43q17 20 31 46h31
l-30 -182h-597v38zM305 752q-4 27 15 74q23 53 23 87q0 10 -6 26q-7 20 -16 20q-7 0 -17 -10l-13 -15l-14 -13q-8 -4 -18 2l-6 4q-7 5 -5 12l15 27q17 11 72 11q43 0 71 -19q30 -21 30 -57q0 -13 -7 -27q-5 -11 -14 -23q-7 -9 -19 -21l-17 -19q-29 -35 -33 -59h-41z" />
    <glyph glyph-name="uni1EBB" unicode="&#x1ebb;" horiz-adv-x="550" 
d="M32 30q62 2 67 19q2 6 3 16v419q-1 11 -3 16q-5 17 -67 20v30h442v-127h-24q-14 43 -34 63q-24 24 -61 24h-87v-205h62q35 0 54 27q16 24 15 57h24v-207h-24q0 34 -15 57q-18 27 -54 27h-62v-172q0 -36 20 -47q14 -8 60 -8q53 0 95 34q18 14 33 34q13 15 24 36h24
l-23 -143h-469v30zM246 590q-3 22 12 58q18 42 18 69q0 8 -5 20q-5 16 -12 16q-6 0 -13 -8l-11 -12l-11 -10q-6 -3 -14 2l-5 3q-5 4 -3 9l11 21q14 9 57 9q34 0 56 -15q23 -16 23 -45q0 -10 -5 -21q-4 -9 -11 -18q-6 -7 -15 -16l-14 -15q-22 -28 -26 -47h-32z" />
    <glyph glyph-name="uni1EBC" unicode="&#x1ebc;" horiz-adv-x="685" 
d="M32 38q79 3 85 25q3 7 4 20v534q-1 13 -4 20q-6 22 -85 25v38h563v-161h-31q-17 54 -43 80q-30 31 -77 31h-112v-261h80q44 0 68 34q21 30 19 72h31v-263h-31q0 43 -18 72q-23 35 -69 35h-80v-219q0 -46 26 -60q18 -10 76 -10q68 0 122 43q22 18 41 43q17 20 31 46h31
l-30 -182h-597v38zM568 896q-5 -57 -45 -99q-42 -45 -98 -45q-37 0 -64 10q-20 6 -41 21q-33 22 -78 22q-59 0 -84 -53h-41q14 61 48 97q36 40 86 40q66 0 95 -25l37 -16q24 -8 50 -8q76 0 96 56h39z" />
    <glyph glyph-name="uni1EBD" unicode="&#x1ebd;" horiz-adv-x="550" 
d="M32 30q62 2 67 19q2 6 3 16v419q-1 11 -3 16q-5 17 -67 20v30h442v-127h-24q-14 43 -34 63q-24 24 -61 24h-87v-205h62q35 0 54 27q16 24 15 57h24v-207h-24q0 34 -15 57q-18 27 -54 27h-62v-172q0 -36 20 -47q14 -8 60 -8q53 0 95 34q18 14 33 34q13 15 24 36h24
l-23 -143h-469v30zM453 703q-4 -44 -36 -77q-33 -36 -76 -36q-30 0 -51 8q-15 5 -32 17q-26 17 -61 17q-46 0 -66 -42h-32q11 48 37 76q29 32 68 32q52 0 74 -20l30 -12q18 -7 39 -7q59 0 75 44h31z" />
    <glyph glyph-name="uni1EBE" unicode="&#x1ebe;" horiz-adv-x="685" 
d="M32 38q79 3 85 25q3 7 4 20v534q-1 13 -4 20q-6 22 -85 25v38h563v-161h-31q-17 54 -43 80q-30 31 -77 31h-112v-261h80q44 0 68 34q21 30 19 72h31v-263h-31q0 43 -18 72q-23 35 -69 35h-80v-219q0 -46 26 -60q18 -10 76 -10q68 0 122 43q22 18 41 43q17 20 31 46h31
l-30 -182h-597v38zM188 752h-58l170 167h84l171 -167h-60l-153 80zM627 1031q4 4 10 11q1 0 3 2l8 9q12 12 21 20q25 20 50 20q57 0 57 -55q0 -26 -26 -47q-16 -14 -59 -36l-165 -82h-55z" />
    <glyph glyph-name="uni1EBF" unicode="&#x1ebf;" horiz-adv-x="550" 
d="M32 30q62 2 67 19q2 6 3 16v419q-1 11 -3 16q-5 17 -67 20v30h442v-127h-24q-14 43 -34 63q-24 24 -61 24h-87v-205h62q35 0 54 27q16 24 15 57h24v-207h-24q0 34 -15 57q-18 27 -54 27h-62v-172q0 -36 20 -47q14 -8 60 -8q53 0 95 34q18 14 33 34q13 15 24 36h24
l-23 -143h-469v30zM154 590h-45l133 131h66l135 -131h-48l-120 63zM499 809q3 3 8 9q1 0 2 2l7 7q9 9 16 15q20 16 39 16q45 0 45 -43q0 -21 -20 -37q-13 -11 -47 -28l-129 -65h-43z" />
    <glyph glyph-name="uni1EC0" unicode="&#x1ec0;" horiz-adv-x="685" 
d="M32 38q79 3 85 25q3 7 4 20v534q-1 13 -4 20q-6 22 -85 25v38h563v-161h-31q-17 54 -43 80q-30 31 -77 31h-112v-261h80q44 0 68 34q21 30 19 72h31v-263h-31q0 43 -18 72q-23 35 -69 35h-80v-219q0 -46 26 -60q18 -10 76 -10q68 0 122 43q22 18 41 43q17 20 31 46h31
l-30 -182h-597v38zM188 752h-58l170 167h84l171 -167h-60l-153 80zM553 921h-55l-165 82q-43 22 -59 36q-26 21 -26 47q0 55 57 55q25 0 50 -20q9 -8 21 -20z" />
    <glyph glyph-name="uni1EC1" unicode="&#x1ec1;" horiz-adv-x="550" 
d="M32 30q62 2 67 19q2 6 3 16v419q-1 11 -3 16q-5 17 -67 20v30h442v-127h-24q-14 43 -34 63q-24 24 -61 24h-87v-205h62q35 0 54 27q16 24 15 57h24v-207h-24q0 34 -15 57q-18 27 -54 27h-62v-172q0 -36 20 -47q14 -8 60 -8q53 0 95 34q18 14 33 34q13 15 24 36h24
l-23 -143h-469v30zM154 590h-45l133 131h66l135 -131h-48l-120 63zM441 723h-43l-130 64q-33 18 -46 29q-20 16 -20 37q0 43 44 43q20 0 40 -16q7 -6 16 -16z" />
    <glyph glyph-name="uni1EC2" unicode="&#x1ec2;" horiz-adv-x="685" 
d="M32 38q79 3 85 25q3 7 4 20v534q-1 13 -4 20q-6 22 -85 25v38h563v-161h-31q-17 54 -43 80q-30 31 -77 31h-112v-261h80q44 0 68 34q21 30 19 72h31v-263h-31q0 43 -18 72q-23 35 -69 35h-80v-219q0 -46 26 -60q18 -10 76 -10q68 0 122 43q22 18 41 43q17 20 31 46h31
l-30 -182h-597v38zM188 752h-58l170 167h84l171 -167h-60l-153 80zM487 844q-4 27 15 74q23 53 23 87q0 10 -6 26q-7 20 -16 20q-7 0 -17 -10l-13 -15l-14 -13q-8 -4 -18 2l-6 4q-7 5 -5 12l15 27q17 11 72 11q43 0 71 -19q30 -21 30 -57q0 -13 -7 -27q-5 -11 -14 -23
q-7 -9 -19 -21l-17 -19q-29 -35 -33 -59h-41z" />
    <glyph glyph-name="uni1EC3" unicode="&#x1ec3;" horiz-adv-x="550" 
d="M32 30q62 2 67 19q2 6 3 16v419q-1 11 -3 16q-5 17 -67 20v30h442v-127h-24q-14 43 -34 63q-24 24 -61 24h-87v-205h62q35 0 54 27q16 24 15 57h24v-207h-24q0 34 -15 57q-18 27 -54 27h-62v-172q0 -36 20 -47q14 -8 60 -8q53 0 95 34q18 14 33 34q13 15 24 36h24
l-23 -143h-469v30zM154 590h-45l133 131h66l135 -131h-48l-120 63zM389 663q-3 21 12 58q18 41 18 68q0 8 -5 20q-5 16 -12 16q-6 0 -14 -8l-10 -12l-11 -10q-6 -3 -14 2l-5 3q-5 4 -4 9l12 22q14 8 57 8q33 0 55 -15q24 -16 24 -44q0 -11 -5 -22q-4 -8 -11 -18
q-6 -7 -15 -16l-14 -15q-22 -28 -26 -46h-32z" />
    <glyph glyph-name="uni1EC4" unicode="&#x1ec4;" horiz-adv-x="685" 
d="M188 752h-58l170 167h84l171 -167h-60l-153 80zM32 38q79 3 85 25q3 7 4 20v534q-1 13 -4 20q-6 22 -85 25v38h563v-161h-31q-17 54 -43 80q-30 31 -77 31h-112v-261h80q44 0 68 34q21 30 19 72h31v-263h-31q0 43 -18 72q-23 35 -69 35h-80v-219q0 -46 26 -60
q18 -10 76 -10q68 0 122 43q22 18 41 43q17 20 31 46h31l-30 -182h-597v38zM568 1110q-5 -57 -45 -99q-42 -45 -98 -45q-37 0 -64 10q-20 6 -41 21q-33 22 -78 22q-59 0 -84 -53h-41q14 61 48 97q36 40 86 40q66 0 95 -25l37 -16q24 -8 50 -8q76 0 96 56h39z" />
    <glyph glyph-name="uni1EC5" unicode="&#x1ec5;" horiz-adv-x="550" 
d="M154 590h-45l133 131h66l135 -131h-48l-120 63zM32 30q62 2 67 19q2 6 3 16v419q-1 11 -3 16q-5 17 -67 20v30h442v-127h-24q-14 43 -34 63q-24 24 -61 24h-87v-205h62q35 0 54 27q16 24 15 57h24v-207h-24q0 34 -15 57q-18 27 -54 27h-62v-172q0 -36 20 -47q14 -8 60 -8
q53 0 95 34q18 14 33 34q13 15 24 36h24l-23 -143h-469v30zM453 871q-4 -44 -36 -77q-33 -36 -76 -36q-30 0 -51 8q-15 5 -32 17q-26 17 -61 17q-46 0 -66 -42h-32q11 48 37 76q29 32 68 32q52 0 74 -20l30 -12q18 -7 39 -7q59 0 75 44h31z" />
    <glyph glyph-name="uni1EC6" unicode="&#x1ec6;" horiz-adv-x="685" 
d="M188 752h-58l170 167h84l171 -167h-60l-153 80zM32 38q79 3 85 25q3 7 4 20v534q-1 13 -4 20q-6 22 -85 25v38h563v-161h-31q-17 54 -43 80q-30 31 -77 31h-112v-261h80q44 0 68 34q21 30 19 72h31v-263h-31q0 43 -18 72q-23 35 -69 35h-80v-219q0 -46 26 -60
q18 -10 76 -10q68 0 122 43q22 18 41 43q17 20 31 46h31l-30 -182h-597v38zM277 -106q0 25 20 46q20 20 45 20q66 0 66 -66q0 -65 -66 -65q-65 0 -65 65z" />
    <glyph glyph-name="uni1EC7" unicode="&#x1ec7;" horiz-adv-x="550" 
d="M154 590h-45l133 131h66l135 -131h-48l-120 63zM32 30q62 2 67 19q2 6 3 16v419q-1 11 -3 16q-5 17 -67 20v30h442v-127h-24q-14 43 -34 63q-24 24 -61 24h-87v-205h62q35 0 54 27q16 24 15 57h24v-207h-24q0 34 -15 57q-18 27 -54 27h-62v-172q0 -36 20 -47q14 -8 60 -8
q53 0 95 34q18 14 33 34q13 15 24 36h24l-23 -143h-469v30zM224 -83q0 20 16 36t35 16q52 0 52 -52q0 -51 -52 -51q-51 0 -51 51z" />
    <glyph glyph-name="uni1EC8" unicode="&#x1ec8;" horiz-adv-x="454" 
d="M333 95q0 -7 1 -12q0 -13 3 -20q6 -22 85 -25v-38h-390v38q80 3 86 25q3 7 4 20v534q-1 13 -4 20q-6 22 -86 25v38h390v-38q-79 -3 -85 -25q-3 -7 -3 -20q-1 -5 -1 -12v-510zM189 752q-4 27 15 74q23 53 23 87q0 10 -6 26q-7 20 -16 20q-7 0 -17 -10l-13 -15l-14 -13
q-8 -4 -18 2l-6 4q-7 5 -5 12l15 27q17 11 72 11q43 0 71 -19q30 -21 30 -57q0 -13 -7 -27q-5 -11 -14 -23q-7 -9 -19 -21l-17 -19q-29 -35 -33 -59h-41z" />
    <glyph glyph-name="uni1EC9" unicode="&#x1ec9;" horiz-adv-x="370" 
d="M268 75q0 -6 1 -10q0 -10 2 -16q5 -17 67 -19v-30h-306v30q63 2 68 19q2 6 3 16v419q-1 11 -3 16q-5 17 -68 20v30h306v-30q-62 -3 -67 -20q-2 -5 -2 -16q-1 -4 -1 -9v-400zM155 590q-3 22 12 58q18 42 18 69q0 8 -5 20q-5 16 -12 16q-6 0 -14 -8l-10 -12l-11 -10
q-6 -3 -14 2l-5 3q-5 4 -3 9l11 21q14 9 57 9q34 0 56 -15q23 -16 23 -45q0 -10 -5 -21q-4 -9 -11 -18q-6 -7 -15 -16l-14 -15q-22 -28 -26 -47h-32z" />
    <glyph glyph-name="uni1ECA" unicode="&#x1eca;" horiz-adv-x="454" 
d="M333 95q0 -7 1 -12q0 -13 3 -20q6 -22 85 -25v-38h-390v38q80 3 86 25q3 7 4 20v534q-1 13 -4 20q-6 22 -86 25v38h390v-38q-79 -3 -85 -25q-3 -7 -3 -20q-1 -5 -1 -12v-510zM161 -106q0 25 20 46q20 20 45 20q66 0 66 -66q0 -65 -66 -65q-65 0 -65 65z" />
    <glyph glyph-name="uni1ECB" unicode="&#x1ecb;" horiz-adv-x="370" 
d="M268 75q0 -6 1 -10q0 -10 2 -15q5 -18 67 -20v-30h-306v30q63 2 68 20q2 5 3 15v420q-1 10 -3 15q-5 18 -68 20v30h306v-30q-62 -2 -67 -20q-2 -5 -2 -15q-1 -4 -1 -10v-400zM133 -83q0 20 16 36t35 16q52 0 52 -52q0 -51 -52 -51q-51 0 -51 51z" />
    <glyph glyph-name="uni1ECC" unicode="&#x1ecc;" horiz-adv-x="817" 
d="M284 4q-64 19 -115 58q-60 45 -93 113q-38 78 -38 183q0 141 109 245q113 109 279 109q144 0 246 -96q107 -100 107 -254q0 -93 -38 -169q-34 -67 -95 -116q-56 -44 -126 -67q-66 -22 -131 -22q-51 0 -105 16zM463 42q28 13 48 43q24 36 37 94q14 67 14 162q0 81 -15 146
q-14 60 -40 102q-48 80 -117 80q-58 0 -93 -59q-20 -35 -30 -87q-12 -58 -12 -137q0 -165 47 -263q43 -92 112 -92q27 0 49 11zM343 -106q0 25 20 46q20 20 45 20q66 0 66 -66q0 -65 -66 -65q-65 0 -65 65z" />
    <glyph glyph-name="uni1ECD" unicode="&#x1ecd;" horiz-adv-x="658" 
d="M231 0q-50 15 -90 46q-47 35 -73 89q-30 61 -30 143q0 111 86 193q88 85 219 85q113 0 193 -75q84 -79 84 -200q0 -73 -30 -132q-27 -53 -75 -91q-44 -35 -99 -53q-51 -17 -102 -17q-40 0 -83 12zM372 30q22 10 37 34q19 28 29 74q11 52 11 127q0 64 -11 115
q-11 47 -32 80q-38 62 -92 62q-45 0 -73 -46q-15 -27 -23 -68q-10 -46 -10 -108q0 -129 37 -206q34 -72 88 -72q21 0 39 8zM277 -86q0 20 16 36t35 16q52 0 52 -52q0 -51 -52 -51q-51 0 -51 51z" />
    <glyph glyph-name="uni1ECE" unicode="&#x1ece;" horiz-adv-x="817" 
d="M284 4q-64 19 -115 58q-60 45 -93 113q-38 78 -38 183q0 141 109 245q113 109 279 109q144 0 246 -96q107 -100 107 -254q0 -93 -38 -169q-34 -67 -95 -116q-56 -44 -126 -67q-66 -22 -131 -22q-51 0 -105 16zM463 42q28 13 48 43q24 36 37 94q14 67 14 162q0 81 -15 146
q-14 60 -40 102q-48 80 -117 80q-58 0 -93 -59q-20 -35 -30 -87q-12 -58 -12 -137q0 -165 47 -263q43 -92 112 -92q27 0 49 11zM371 752q-4 27 15 74q23 53 23 87q0 10 -6 26q-7 20 -16 20q-7 0 -17 -10l-13 -15l-14 -13q-8 -4 -18 2l-6 4q-7 5 -5 12l15 27q17 11 72 11
q43 0 71 -19q30 -21 30 -57q0 -13 -7 -27q-5 -11 -14 -23q-7 -9 -19 -21l-17 -19q-29 -35 -33 -59h-41z" />
    <glyph glyph-name="uni1ECF" unicode="&#x1ecf;" horiz-adv-x="658" 
d="M231 1q-50 14 -90 45q-47 35 -73 89q-30 61 -30 143q0 111 86 193q88 85 219 85q113 0 193 -75q84 -79 84 -199q0 -73 -30 -133q-27 -53 -75 -91q-44 -35 -99 -53q-51 -17 -102 -17q-40 0 -83 13zM372 30q22 11 37 34q19 28 29 74q11 53 11 127q0 64 -11 115
q-11 47 -32 80q-38 63 -92 63q-45 0 -73 -47q-15 -27 -23 -68q-10 -46 -10 -108q0 -129 37 -206q34 -72 88 -72q21 0 39 8zM299 588q-3 21 12 58q18 41 18 68q0 8 -4 21q-6 15 -13 15q-6 0 -13 -8l-11 -11l-11 -11q-6 -3 -14 2l-4 3q-6 4 -4 10l11 21q14 8 57 8q34 0 56 -15
q23 -16 23 -44q0 -10 -5 -21q-4 -9 -11 -19q-6 -7 -15 -16l-14 -15q-22 -27 -25 -46h-33z" />
    <glyph glyph-name="uni1ED0" unicode="&#x1ed0;" horiz-adv-x="817" 
d="M284 4q-64 19 -115 58q-60 45 -93 113q-38 78 -38 183q0 141 109 245q113 109 279 109q144 0 246 -96q107 -100 107 -254q0 -93 -38 -169q-34 -67 -95 -116q-56 -44 -126 -67q-66 -22 -131 -22q-51 0 -105 16zM463 42q28 13 48 43q24 36 37 94q14 67 14 162q0 81 -15 146
q-14 60 -40 102q-48 80 -117 80q-58 0 -93 -59q-20 -35 -30 -87q-12 -58 -12 -137q0 -165 47 -263q43 -92 112 -92q27 0 49 11zM254 752h-58l170 167h84l171 -167h-60l-153 80zM693 1031q4 4 10 11q1 0 3 2l8 9q12 12 21 20q25 20 50 20q57 0 57 -55q0 -26 -26 -47
q-16 -14 -59 -36l-165 -82h-55z" />
    <glyph glyph-name="uni1ED1" unicode="&#x1ed1;" horiz-adv-x="658" 
d="M231 1q-50 14 -90 45q-47 35 -73 89q-30 61 -30 143q0 111 86 193q88 85 219 85q113 0 193 -75q84 -79 84 -199q0 -73 -30 -133q-27 -53 -75 -91q-44 -35 -99 -53q-51 -17 -102 -17q-40 0 -83 13zM372 30q22 11 37 34q19 28 29 74q11 53 11 127q0 64 -11 115
q-11 47 -32 80q-38 63 -92 63q-45 0 -73 -47q-15 -27 -23 -68q-10 -46 -10 -108q0 -129 37 -206q34 -72 88 -72q21 0 39 8zM208 588h-46l133 131h66l135 -131h-47l-121 63zM552 807l8 8q1 0 2 2l7 7l16 16q20 15 39 15q45 0 45 -43q0 -20 -20 -37q-13 -11 -47 -28l-129 -64
h-43z" />
    <glyph glyph-name="uni1ED2" unicode="&#x1ed2;" horiz-adv-x="817" 
d="M284 4q-64 19 -115 58q-60 45 -93 113q-38 78 -38 183q0 141 109 245q113 109 279 109q144 0 246 -96q107 -100 107 -254q0 -93 -38 -169q-34 -67 -95 -116q-56 -44 -126 -67q-66 -22 -131 -22q-51 0 -105 16zM463 42q28 13 48 43q24 36 37 94q14 67 14 162q0 81 -15 146
q-14 60 -40 102q-48 80 -117 80q-58 0 -93 -59q-20 -35 -30 -87q-12 -58 -12 -137q0 -165 47 -263q43 -92 112 -92q27 0 49 11zM254 752h-58l170 167h84l171 -167h-60l-153 80zM619 921h-55l-165 82q-43 22 -59 36q-26 21 -26 47q0 55 57 55q25 0 50 -20q9 -8 21 -20z" />
    <glyph glyph-name="uni1ED3" unicode="&#x1ed3;" horiz-adv-x="658" 
d="M231 1q-50 14 -90 45q-47 35 -73 89q-30 61 -30 143q0 111 86 193q88 85 219 85q113 0 193 -75q84 -79 84 -199q0 -73 -30 -133q-27 -53 -75 -91q-44 -35 -99 -53q-51 -17 -102 -17q-40 0 -83 13zM372 30q22 11 37 34q19 28 29 74q11 53 11 127q0 64 -11 115
q-11 47 -32 80q-38 63 -92 63q-45 0 -73 -47q-15 -27 -23 -68q-10 -46 -10 -108q0 -129 37 -206q34 -72 88 -72q21 0 39 8zM208 588h-46l133 131h66l135 -131h-47l-121 63zM494 720h-43l-130 65q-33 17 -46 28q-20 17 -20 37q0 43 44 43q20 0 40 -16q7 -6 16 -15z" />
    <glyph glyph-name="uni1ED4" unicode="&#x1ed4;" horiz-adv-x="817" 
d="M284 4q-64 19 -115 58q-60 45 -93 113q-38 78 -38 183q0 141 109 245q113 109 279 109q144 0 246 -96q107 -100 107 -254q0 -93 -38 -169q-34 -67 -95 -116q-56 -44 -126 -67q-66 -22 -131 -22q-51 0 -105 16zM463 42q28 13 48 43q24 36 37 94q14 67 14 162q0 81 -15 146
q-14 60 -40 102q-48 80 -117 80q-58 0 -93 -59q-20 -35 -30 -87q-12 -58 -12 -137q0 -165 47 -263q43 -92 112 -92q27 0 49 11zM254 752h-58l170 167h84l171 -167h-60l-153 80zM553 844q-4 27 15 74q23 53 23 87q0 10 -6 26q-7 20 -16 20q-7 0 -17 -10l-13 -15l-14 -13
q-8 -4 -18 2l-6 4q-7 5 -5 12l15 27q17 11 72 11q43 0 71 -19q30 -21 30 -57q0 -13 -7 -27q-5 -11 -14 -23q-7 -9 -19 -21l-17 -19q-29 -35 -33 -59h-41z" />
    <glyph glyph-name="uni1ED5" unicode="&#x1ed5;" horiz-adv-x="658" 
d="M231 1q-50 14 -90 45q-47 35 -73 89q-30 61 -30 143q0 111 86 193q88 85 219 85q113 0 193 -75q84 -79 84 -199q0 -73 -30 -133q-27 -53 -75 -91q-44 -35 -99 -53q-51 -17 -102 -17q-40 0 -83 13zM372 30q22 11 37 34q19 28 29 74q11 53 11 127q0 64 -11 115
q-11 47 -32 80q-38 63 -92 63q-45 0 -73 -47q-15 -27 -23 -68q-10 -46 -10 -108q0 -129 37 -206q34 -72 88 -72q21 0 39 8zM208 588h-46l133 131h66l135 -131h-47l-121 63zM442 660q-3 21 12 58q18 42 18 68q0 8 -5 21q-5 15 -12 15q-6 0 -14 -7l-10 -12l-11 -10
q-6 -4 -14 1l-5 3q-5 4 -3 10l11 21q14 9 57 9q34 0 56 -15q23 -17 23 -45q0 -10 -5 -21q-4 -9 -11 -18q-6 -7 -15 -17l-14 -15q-22 -27 -26 -46h-32z" />
    <glyph glyph-name="uni1ED6" unicode="&#x1ed6;" horiz-adv-x="817" 
d="M254 752h-58l170 167h84l171 -167h-60l-153 80zM284 4q-64 19 -115 58q-60 45 -93 113q-38 78 -38 183q0 141 109 245q113 109 279 109q144 0 246 -96q107 -100 107 -254q0 -93 -38 -169q-34 -67 -95 -116q-56 -44 -126 -67q-66 -22 -131 -22q-51 0 -105 16zM463 42
q28 13 48 43q24 36 37 94q14 67 14 162q0 81 -15 146q-14 60 -40 102q-48 80 -117 80q-58 0 -93 -59q-20 -35 -30 -87q-12 -58 -12 -137q0 -165 47 -263q43 -92 112 -92q27 0 49 11zM647 1110q-5 -57 -45 -99q-42 -45 -98 -45q-37 0 -64 10q-20 6 -41 21q-33 22 -78 22
q-59 0 -84 -53h-41q14 61 48 97q36 40 86 40q66 0 95 -25l37 -16q24 -8 50 -8q76 0 96 56h39z" />
    <glyph glyph-name="uni1ED7" unicode="&#x1ed7;" horiz-adv-x="658" 
d="M208 588h-46l133 131h66l135 -131h-47l-121 63zM231 1q-50 14 -90 45q-47 35 -73 89q-30 61 -30 143q0 111 86 193q88 85 219 85q113 0 193 -75q84 -79 84 -199q0 -73 -30 -133q-27 -53 -75 -91q-44 -35 -99 -53q-51 -17 -102 -17q-40 0 -83 13zM372 30q22 11 37 34
q19 28 29 74q11 53 11 127q0 64 -11 115q-11 47 -32 80q-38 63 -92 63q-45 0 -73 -47q-15 -27 -23 -68q-10 -46 -10 -108q0 -129 37 -206q34 -72 88 -72q21 0 39 8zM516 869q-4 -45 -35 -78q-33 -35 -77 -35q-29 0 -50 8q-16 4 -33 16q-26 17 -61 17q-46 0 -66 -41h-32
q11 48 38 76q28 31 67 31q52 0 75 -19l29 -13q19 -6 39 -6q60 0 75 44h31z" />
    <glyph glyph-name="uni1ED8" unicode="&#x1ed8;" horiz-adv-x="817" 
d="M254 752h-58l170 167h84l171 -167h-60l-153 80zM284 4q-64 19 -115 58q-60 45 -93 113q-38 78 -38 183q0 141 109 245q113 109 279 109q144 0 246 -96q107 -100 107 -254q0 -93 -38 -169q-34 -67 -95 -116q-56 -44 -126 -67q-66 -22 -131 -22q-51 0 -105 16zM463 42
q28 13 48 43q24 36 37 94q14 67 14 162q0 81 -15 146q-14 60 -40 102q-48 80 -117 80q-58 0 -93 -59q-20 -35 -30 -87q-12 -58 -12 -137q0 -165 47 -263q43 -92 112 -92q27 0 49 11zM343 -106q0 25 20 46q20 20 45 20q66 0 66 -66q0 -65 -66 -65q-65 0 -65 65z" />
    <glyph glyph-name="uni1ED9" unicode="&#x1ed9;" horiz-adv-x="658" 
d="M208 588h-46l133 131h66l135 -131h-47l-121 63zM231 1q-50 14 -90 45q-47 35 -73 89q-30 61 -30 143q0 111 86 193q88 85 219 85q113 0 193 -75q84 -79 84 -199q0 -73 -30 -133q-27 -53 -75 -91q-44 -35 -99 -53q-51 -17 -102 -17q-40 0 -83 13zM372 30q22 11 37 34
q19 28 29 74q11 53 11 127q0 64 -11 115q-11 47 -32 80q-38 63 -92 63q-45 0 -73 -47q-15 -27 -23 -68q-10 -46 -10 -108q0 -129 37 -206q34 -72 88 -72q21 0 39 8zM277 -86q0 20 16 36t35 16q52 0 52 -52q0 -51 -52 -51q-51 0 -51 51z" />
    <glyph glyph-name="uni1EDA" unicode="&#x1eda;" horiz-adv-x="817" 
d="M284 4q-64 19 -115 58q-60 45 -93 113q-38 78 -38 183q0 141 109 245q113 109 279 109q144 0 246 -96q107 -100 107 -254q0 -93 -38 -169q-34 -67 -95 -116q-56 -44 -126 -67q-66 -22 -131 -22q-51 0 -105 16zM463 42q28 13 48 43q24 36 37 94q14 67 14 162q0 81 -15 146
q-14 60 -40 102q-48 80 -117 80q-58 0 -93 -59q-20 -35 -30 -87q-12 -58 -12 -137q0 -165 47 -263q43 -92 112 -92q27 0 49 11zM412 910q4 4 10 11q1 0 3 2l8 9q12 12 21 20q25 20 50 20q57 0 57 -55q0 -26 -26 -47q-16 -14 -59 -36l-165 -82h-55zM651 632q21 7 28 12l14 14
q-22 9 -35 28.5t-13 43.5q0 32 22 55t54 23q30 0 53 -23t23 -55q0 -9 -5.5 -27t-10.5 -25l-18 -22q-12 -12 -27.5 -21t-30.5 -16q-7 -3 -48 -19l-28 26q15 4 22 6z" />
    <glyph glyph-name="uni1EDB" unicode="&#x1edb;" horiz-adv-x="658" 
d="M231 1q-50 14 -90 45q-47 35 -73 89q-30 61 -30 143q0 111 86 193q88 85 219 85q113 0 193 -75q84 -79 84 -199q0 -73 -30 -133q-27 -53 -75 -91q-44 -35 -99 -53q-51 -17 -102 -17q-40 0 -83 13zM372 30q22 11 37 34q19 28 29 74q11 53 11 127q0 64 -11 115
q-11 47 -32 80q-38 63 -92 63q-45 0 -73 -47q-15 -27 -23 -68q-10 -46 -10 -108q0 -129 37 -206q34 -72 88 -72q21 0 39 8zM519 494q17 5 22 9l11 11q-17 7 -27.5 22.5t-10.5 33.5q0 26 17.5 44t42.5 18q24 0 42 -18t18 -44q0 -7 -4.5 -21t-8.5 -19l-14 -18q-9 -9 -21.5 -16
t-23.5 -13q-6 -2 -38 -15l-22 21q12 3 17 5zM332 712q3 3 7 8q1 0 3 2l6 7q9 9 17 16q19 15 39 15q45 0 45 -43q0 -20 -21 -37q-12 -11 -46 -28l-130 -64h-43z" />
    <glyph glyph-name="uni1EDC" unicode="&#x1edc;" horiz-adv-x="817" 
d="M284 4q-64 19 -115 58q-60 45 -93 113q-38 78 -38 183q0 141 109 245q113 109 279 109q144 0 246 -96q107 -100 107 -254q0 -93 -38 -169q-34 -67 -95 -116q-56 -44 -126 -67q-66 -22 -131 -22q-51 0 -105 16zM463 42q28 13 48 43q24 36 37 94q14 67 14 162q0 81 -15 146
q-14 60 -40 102q-48 80 -117 80q-58 0 -93 -59q-20 -35 -30 -87q-12 -58 -12 -137q0 -165 47 -263q43 -92 112 -92q27 0 49 11zM561 752h-55l-165 82q-43 22 -59 36q-26 21 -26 47q0 55 57 55q25 0 50 -20q9 -8 21 -20zM651 632q21 7 28 12l14 14q-22 9 -35 28.5t-13 43.5
q0 32 22 55t54 23q30 0 53 -23t23 -55q0 -9 -5.5 -27t-10.5 -25l-18 -22q-12 -12 -27.5 -21t-30.5 -16q-7 -3 -48 -19l-28 26q15 4 22 6z" />
    <glyph glyph-name="uni1EDD" unicode="&#x1edd;" horiz-adv-x="658" 
d="M231 1q-50 14 -90 45q-47 35 -73 89q-30 61 -30 143q0 111 86 193q88 85 219 85q113 0 193 -75q84 -79 84 -199q0 -73 -30 -133q-27 -53 -75 -91q-44 -35 -99 -53q-51 -17 -102 -17q-40 0 -83 13zM372 30q22 11 37 34q19 28 29 74q11 53 11 127q0 64 -11 115
q-11 47 -32 80q-38 63 -92 63q-45 0 -73 -47q-15 -27 -23 -68q-10 -46 -10 -108q0 -129 37 -206q34 -72 88 -72q21 0 39 8zM519 494q17 5 22 9l11 11q-17 7 -27.5 22.5t-10.5 33.5q0 26 17.5 44t42.5 18q24 0 42 -18t18 -44q0 -7 -4.5 -21t-8.5 -19l-14 -18q-9 -9 -21.5 -16
t-23.5 -13q-6 -2 -38 -15l-22 21q12 3 17 5zM449 588h-44l-129 64q-34 17 -46 28q-21 17 -21 37q0 43 45 43q20 0 39 -15q7 -7 17 -16z" />
    <glyph glyph-name="uni1EDE" unicode="&#x1ede;" horiz-adv-x="817" 
d="M284 4q-64 19 -115 58q-60 45 -93 113q-38 78 -38 183q0 141 109 245q113 109 279 109q144 0 246 -96q107 -100 107 -254q0 -93 -38 -169q-34 -67 -95 -116q-56 -44 -126 -67q-66 -22 -131 -22q-51 0 -105 16zM463 42q28 13 48 43q24 36 37 94q14 67 14 162q0 81 -15 146
q-14 60 -40 102q-48 80 -117 80q-58 0 -93 -59q-20 -35 -30 -87q-12 -58 -12 -137q0 -165 47 -263q43 -92 112 -92q27 0 49 11zM371 752q-4 27 15 74q23 53 23 87q0 10 -6 26q-7 20 -16 20q-7 0 -17 -10l-13 -15l-14 -13q-8 -4 -18 2l-6 4q-7 5 -5 12l15 27q17 11 72 11
q43 0 71 -19q30 -21 30 -57q0 -13 -7 -27q-5 -11 -14 -23q-7 -9 -19 -21l-17 -19q-29 -35 -33 -59h-41zM651 632q21 7 28 12l14 14q-22 9 -35 28.5t-13 43.5q0 32 22 55t54 23q30 0 53 -23t23 -55q0 -9 -5.5 -27t-10.5 -25l-18 -22q-12 -12 -27.5 -21t-30.5 -16
q-7 -3 -48 -19l-28 26q15 4 22 6z" />
    <glyph glyph-name="uni1EDF" unicode="&#x1edf;" horiz-adv-x="658" 
d="M231 1q-50 14 -90 45q-47 35 -73 89q-30 61 -30 143q0 111 86 193q88 85 219 85q113 0 193 -75q84 -79 84 -199q0 -73 -30 -133q-27 -53 -75 -91q-44 -35 -99 -53q-51 -17 -102 -17q-40 0 -83 13zM372 30q22 11 37 34q19 28 29 74q11 53 11 127q0 64 -11 115
q-11 47 -32 80q-38 63 -92 63q-45 0 -73 -47q-15 -27 -23 -68q-10 -46 -10 -108q0 -129 37 -206q34 -72 88 -72q21 0 39 8zM519 494q17 5 22 9l11 11q-17 7 -27.5 22.5t-10.5 33.5q0 26 17.5 44t42.5 18q24 0 42 -18t18 -44q0 -7 -4.5 -21t-8.5 -19l-14 -18q-9 -9 -21.5 -16
t-23.5 -13q-6 -2 -38 -15l-22 21q12 3 17 5zM299 588q-3 21 12 58q18 41 18 68q0 8 -4 21q-6 15 -13 15q-6 0 -13 -8l-11 -11l-11 -11q-6 -3 -14 2l-4 3q-6 4 -4 10l11 21q14 8 57 8q34 0 56 -15q23 -16 23 -44q0 -10 -5 -21q-4 -9 -11 -19q-6 -7 -15 -16l-14 -15
q-22 -27 -25 -46h-33z" />
    <glyph glyph-name="uni1EE0" unicode="&#x1ee0;" horiz-adv-x="817" 
d="M284 4q-64 19 -115 58q-60 45 -93 113q-38 78 -38 183q0 141 109 245q113 109 279 109q144 0 246 -96q107 -100 107 -254q0 -93 -38 -169q-34 -67 -95 -116q-56 -44 -126 -67q-66 -22 -131 -22q-51 0 -105 16zM463 42q28 13 48 43q24 36 37 94q14 67 14 162q0 81 -15 146
q-14 60 -40 102q-48 80 -117 80q-58 0 -93 -59q-20 -35 -30 -87q-12 -58 -12 -137q0 -165 47 -263q43 -92 112 -92q27 0 49 11zM634 896q-5 -57 -45 -99q-42 -45 -98 -45q-37 0 -64 10q-20 6 -41 21q-33 22 -78 22q-59 0 -84 -53h-41q14 61 48 97q36 40 86 40q66 0 95 -25
l37 -16q24 -8 50 -8q76 0 96 56h39zM651 632q21 7 28 12l14 14q-22 9 -35 28.5t-13 43.5q0 32 22 55t54 23q30 0 53 -23t23 -55q0 -9 -5.5 -27t-10.5 -25l-18 -22q-12 -12 -27.5 -21t-30.5 -16q-7 -3 -48 -19l-28 26q15 4 22 6z" />
    <glyph glyph-name="uni1EE1" unicode="&#x1ee1;" horiz-adv-x="658" 
d="M231 1q-50 14 -90 45q-47 35 -73 89q-30 61 -30 143q0 111 86 193q88 85 219 85q113 0 193 -75q84 -79 84 -199q0 -73 -30 -133q-27 -53 -75 -91q-44 -35 -99 -53q-51 -17 -102 -17q-40 0 -83 13zM372 30q22 11 37 34q19 28 29 74q11 53 11 127q0 64 -11 115
q-11 47 -32 80q-38 63 -92 63q-45 0 -73 -47q-15 -27 -23 -68q-10 -46 -10 -108q0 -129 37 -206q34 -72 88 -72q21 0 39 8zM519 494q17 5 22 9l11 11q-17 7 -27.5 22.5t-10.5 33.5q0 26 17.5 44t42.5 18q24 0 42 -18t18 -44q0 -7 -4.5 -21t-8.5 -19l-14 -18q-9 -9 -21.5 -16
t-23.5 -13q-6 -2 -38 -15l-22 21q12 3 17 5zM506 701q-4 -45 -35 -78q-33 -35 -77 -35q-29 0 -51 8q-15 4 -32 16q-26 17 -61 17q-46 0 -66 -41h-32q11 48 38 76q28 31 67 31q52 0 75 -19l29 -13q18 -6 39 -6q60 0 75 44h31z" />
    <glyph glyph-name="uni1EE2" unicode="&#x1ee2;" horiz-adv-x="817" 
d="M284 4q-64 19 -115 58q-60 45 -93 113q-38 78 -38 183q0 141 109 245q113 109 279 109q144 0 246 -96q107 -100 107 -254q0 -93 -38 -169q-34 -67 -95 -116q-56 -44 -126 -67q-66 -22 -131 -22q-51 0 -105 16zM463 42q28 13 48 43q24 36 37 94q14 67 14 162q0 81 -15 146
q-14 60 -40 102q-48 80 -117 80q-58 0 -93 -59q-20 -35 -30 -87q-12 -58 -12 -137q0 -165 47 -263q43 -92 112 -92q27 0 49 11zM651 632q21 7 28 12l14 14q-22 9 -35 28.5t-13 43.5q0 32 22 55t54 23q30 0 53 -23t23 -55q0 -9 -5.5 -27t-10.5 -25l-18 -22q-12 -12 -27.5 -21
t-30.5 -16q-7 -3 -48 -19l-28 26q15 4 22 6zM343 -106q0 25 20 46q20 20 45 20q66 0 66 -66q0 -65 -66 -65q-65 0 -65 65z" />
    <glyph glyph-name="uni1EE3" unicode="&#x1ee3;" horiz-adv-x="658" 
d="M231 1q-50 14 -90 45q-47 35 -73 89q-30 61 -30 143q0 111 86 193q88 85 219 85q113 0 193 -75q84 -79 84 -199q0 -73 -30 -133q-27 -53 -75 -91q-44 -35 -99 -53q-51 -17 -102 -17q-40 0 -83 13zM372 30q22 11 37 34q19 28 29 74q11 53 11 127q0 64 -11 115
q-11 47 -32 80q-38 63 -92 63q-45 0 -73 -47q-15 -27 -23 -68q-10 -46 -10 -108q0 -129 37 -206q34 -72 88 -72q21 0 39 8zM519 494q17 5 22 9l11 11q-17 7 -27.5 22.5t-10.5 33.5q0 26 17.5 44t42.5 18q24 0 42 -18t18 -44q0 -7 -4.5 -21t-8.5 -19l-14 -18q-9 -9 -21.5 -16
t-23.5 -13q-6 -2 -38 -15l-22 21q12 3 17 5zM277 -86q0 20 16 36t35 16q52 0 52 -52q0 -51 -52 -51q-51 0 -51 51z" />
    <glyph glyph-name="uni1EE4" unicode="&#x1ee4;" 
d="M328 240q0 -78 31 -119q34 -47 107 -47q82 0 118 36q44 44 44 154v315q-1 23 -3 40q-6 41 -84 43v38h231v-38q-66 -2 -78 -29q-6 -12 -7 -38v-350q0 -126 -78 -195q-70 -62 -179 -62q-173 0 -248 75q-65 66 -65 203v351q-1 13 -4 20q-6 22 -86 25v38h390v-38
q-79 -3 -85 -25q-3 -7 -3 -20q-1 -5 -1 -12v-365zM359 -106q0 25 20 46q20 20 45 20q66 0 66 -66q0 -65 -66 -65q-65 0 -65 65z" />
    <glyph glyph-name="uni1EE5" unicode="&#x1ee5;" horiz-adv-x="636" 
d="M263 189q0 -62 25 -94q26 -37 84 -37q64 0 92 29q35 34 35 120v248q-1 18 -3 31q-4 32 -66 34v30h182v-30q-52 -2 -61 -23q-5 -9 -6 -30v-274q0 -99 -61 -154q-55 -48 -141 -48q-135 0 -194 59q-51 52 -51 159v276q-1 10 -3 15q-5 18 -68 20v30h306v-30q-62 -2 -67 -20
q-2 -5 -2 -15q-1 -4 -1 -10v-286zM288 -83q0 20 15 36q16 16 36 16q51 0 51 -52q0 -51 -51 -51t-51 51z" />
    <glyph glyph-name="uni1EE6" unicode="&#x1ee6;" 
d="M328 240q0 -78 31 -119q34 -47 107 -47q82 0 118 36q44 44 44 154v315q-1 23 -3 40q-6 41 -84 43v38h231v-38q-66 -2 -78 -29q-6 -12 -7 -38v-350q0 -126 -78 -195q-70 -62 -179 -62q-173 0 -248 75q-65 66 -65 203v351q-1 13 -4 20q-6 22 -86 25v38h390v-38
q-79 -3 -85 -25q-3 -7 -3 -20q-1 -5 -1 -12v-365zM361 752q-4 27 15 74q23 53 23 87q0 10 -6 26q-7 20 -16 20q-7 0 -17 -10l-13 -15l-14 -13q-8 -4 -18 2l-6 4q-7 5 -5 12l15 27q17 11 72 11q43 0 71 -19q30 -21 30 -57q0 -13 -7 -27q-5 -11 -14 -23q-7 -9 -19 -21l-17 -19
q-29 -35 -33 -59h-41z" />
    <glyph glyph-name="uni1EE7" unicode="&#x1ee7;" horiz-adv-x="636" 
d="M263 189q0 -61 25 -94q26 -36 84 -36q64 0 92 28q35 34 35 121v247q-1 18 -3 31q-4 33 -66 34v30h182v-30q-52 -1 -61 -23q-5 -9 -6 -30v-274q0 -99 -61 -153q-55 -49 -141 -49q-135 0 -194 59q-51 52 -51 159v276q-1 10 -3 15q-5 18 -68 20v30h306v-30q-62 -2 -67 -20
q-2 -5 -2 -15q-1 -4 -1 -10v-286zM289 591q-3 21 12 58q18 41 18 68q0 8 -5 21q-5 15 -12 15q-6 0 -14 -8l-10 -11l-11 -11q-6 -3 -14 2l-5 3q-5 4 -4 10l12 21q14 8 57 8q33 0 55 -15q24 -16 24 -44q0 -10 -5 -21q-4 -9 -11 -19q-6 -7 -15 -16l-14 -15q-22 -27 -26 -46h-32
z" />
    <glyph glyph-name="uni1EE8" unicode="&#x1ee8;" 
d="M328 240q0 -78 31 -119q34 -47 107 -47q82 0 118 36q44 44 44 154v315q-1 23 -3 40q-6 41 -84 43v38h146v-23v-36v-46v-350q0 -126 -78 -195q-70 -62 -179 -62q-173 0 -248 75q-65 66 -65 203v351q-1 13 -4 20q-6 22 -86 25v38h390v-38q-79 -3 -85 -25q-3 -7 -3 -20
q-1 -5 -1 -12v-365zM401 910q4 4 10 11q1 0 3 2l8 9q12 12 21 20q25 20 50 20q57 0 57 -55q0 -26 -26 -47q-16 -14 -59 -36l-165 -82h-55zM673 684q5 1 8.5 2.5t11.5 7.5l14 14q-22 9 -35 28.5t-13 43.5q0 32 22 55t54 23q30 0 53 -23t23 -55q0 -9 -5.5 -27t-10.5 -25
l-18 -22q-12 -12 -31 -23t-37.5 -22t-35.5 -17v40z" />
    <glyph glyph-name="uni1EE9" unicode="&#x1ee9;" horiz-adv-x="569" 
d="M263 189q0 -61 25 -94q26 -36 84 -36q64 0 92 28q35 34 35 121v247q-1 18 -3 31q-4 33 -66 34v30h115v-18v-28v-37v-274q0 -99 -61 -153q-55 -49 -141 -49q-135 0 -194 59q-51 52 -51 159v276q-1 10 -3 15q-5 18 -68 20v30h306v-30q-62 -2 -67 -20q-2 -5 -2 -15
q-1 -4 -1 -10v-286zM534 537q4 1 7 2.5t9 5.5l11 11q-17 7 -27.5 22.5t-10.5 34.5q0 25 17.5 43t42.5 18q23 0 41 -18t18 -43q0 -7 -4 -21.5t-8 -19.5q-7 -9 -14 -17q-10 -10 -24.5 -18.5t-29.5 -17t-28 -13.5v31zM321 715q3 3 7 8q1 0 3 2l6 7q9 9 17 16q19 15 39 15
q45 0 45 -43q0 -20 -21 -37q-12 -11 -46 -28l-130 -64h-43z" />
    <glyph glyph-name="uni1EEA" unicode="&#x1eea;" 
d="M328 240q0 -78 31 -119q34 -47 107 -47q82 0 118 36q44 44 44 154v315q-1 23 -3 40q-6 41 -84 43v38h146v-23v-36v-46v-350q0 -126 -78 -195q-70 -62 -179 -62q-173 0 -248 75q-65 66 -65 203v351q-1 13 -4 20q-6 22 -86 25v38h390v-38q-79 -3 -85 -25q-3 -7 -3 -20
q-1 -5 -1 -12v-365zM550 752h-55l-165 82q-43 22 -59 36q-26 21 -26 47q0 55 57 55q25 0 50 -20q9 -8 21 -20zM673 684q5 1 8.5 2.5t11.5 7.5l14 14q-22 9 -35 28.5t-13 43.5q0 32 22 55t54 23q30 0 53 -23t23 -55q0 -9 -5.5 -27t-10.5 -25l-18 -22q-12 -12 -31 -23
t-37.5 -22t-35.5 -17v40z" />
    <glyph glyph-name="uni1EEB" unicode="&#x1eeb;" horiz-adv-x="569" 
d="M263 189q0 -61 25 -94q26 -36 84 -36q64 0 92 28q35 34 35 121v247q-1 18 -3 31q-4 33 -66 34v30h115v-18v-28v-37v-274q0 -99 -61 -153q-55 -49 -141 -49q-135 0 -194 59q-51 52 -51 159v276q-1 10 -3 15q-5 18 -68 20v30h306v-30q-62 -2 -67 -20q-2 -5 -2 -15
q-1 -4 -1 -10v-286zM534 537q4 1 7 2.5t9 5.5l11 11q-17 7 -27.5 22.5t-10.5 34.5q0 25 17.5 43t42.5 18q23 0 41 -18t18 -43q0 -7 -4 -21.5t-8 -19.5q-7 -9 -14 -17q-10 -10 -24.5 -18.5t-29.5 -17t-28 -13.5v31zM438 591h-44l-129 64q-34 17 -46 28q-21 17 -21 37
q0 43 45 43q20 0 39 -15q7 -7 17 -16z" />
    <glyph glyph-name="uni1EEC" unicode="&#x1eec;" 
d="M328 240q0 -78 31 -119q34 -47 107 -47q82 0 118 36q44 44 44 154v315q-1 23 -3 40q-6 41 -84 43v38h146v-23v-36v-46v-350q0 -126 -78 -195q-70 -62 -179 -62q-173 0 -248 75q-65 66 -65 203v351q-1 13 -4 20q-6 22 -86 25v38h390v-38q-79 -3 -85 -25q-3 -7 -3 -20
q-1 -5 -1 -12v-365zM361 752q-4 27 15 74q23 53 23 87q0 10 -6 26q-7 20 -16 20q-7 0 -17 -10l-13 -15l-14 -13q-8 -4 -18 2l-6 4q-7 5 -5 12l15 27q17 11 72 11q43 0 71 -19q30 -21 30 -57q0 -13 -7 -27q-5 -11 -14 -23q-7 -9 -19 -21l-17 -19q-29 -35 -33 -59h-41z
M673 684q5 1 8.5 2.5t11.5 7.5l14 14q-22 9 -35 28.5t-13 43.5q0 32 22 55t54 23q30 0 53 -23t23 -55q0 -9 -5.5 -27t-10.5 -25l-18 -22q-12 -12 -31 -23t-37.5 -22t-35.5 -17v40z" />
    <glyph glyph-name="uni1EED" unicode="&#x1eed;" horiz-adv-x="569" 
d="M263 189q0 -61 25 -94q26 -36 84 -36q64 0 92 28q35 34 35 121v247q-1 18 -3 31q-4 33 -66 34v30h115v-18v-28v-37v-274q0 -99 -61 -153q-55 -49 -141 -49q-135 0 -194 59q-51 52 -51 159v276q-1 10 -3 15q-5 18 -68 20v30h306v-30q-62 -2 -67 -20q-2 -5 -2 -15
q-1 -4 -1 -10v-286zM534 537q4 1 7 2.5t9 5.5l11 11q-17 7 -27.5 22.5t-10.5 34.5q0 25 17.5 43t42.5 18q23 0 41 -18t18 -43q0 -7 -4 -21.5t-8 -19.5q-7 -9 -14 -17q-10 -10 -24.5 -18.5t-29.5 -17t-28 -13.5v31zM289 591q-3 21 12 58q18 41 18 68q0 8 -5 21q-5 15 -12 15
q-6 0 -14 -8l-10 -11l-11 -11q-6 -3 -14 2l-5 3q-5 4 -4 10l12 21q14 8 57 8q33 0 55 -15q24 -16 24 -44q0 -10 -5 -21q-4 -9 -11 -19q-6 -7 -15 -16l-14 -15q-22 -27 -26 -46h-32z" />
    <glyph glyph-name="uni1EEE" unicode="&#x1eee;" 
d="M328 240q0 -78 31 -119q34 -47 107 -47q82 0 118 36q44 44 44 154v315q-1 23 -3 40q-6 41 -84 43v38h146v-23v-36v-46v-350q0 -126 -78 -195q-70 -62 -179 -62q-173 0 -248 75q-65 66 -65 203v351q-1 13 -4 20q-6 22 -86 25v38h390v-38q-79 -3 -85 -25q-3 -7 -3 -20
q-1 -5 -1 -12v-365zM623 896q-5 -57 -45 -99q-42 -45 -98 -45q-37 0 -64 10q-20 6 -41 21q-33 22 -78 22q-59 0 -84 -53h-41q14 61 48 97q36 40 86 40q66 0 95 -25l37 -16q24 -8 50 -8q76 0 96 56h39zM673 684q5 1 8.5 2.5t11.5 7.5l14 14q-22 9 -35 28.5t-13 43.5
q0 32 22 55t54 23q30 0 53 -23t23 -55q0 -9 -5.5 -27t-10.5 -25l-18 -22q-12 -12 -31 -23t-37.5 -22t-35.5 -17v40z" />
    <glyph glyph-name="uni1EEF" unicode="&#x1eef;" horiz-adv-x="569" 
d="M263 189q0 -61 25 -94q26 -36 84 -36q64 0 92 28q35 34 35 121v247q-1 18 -3 31q-4 33 -66 34v30h115v-18v-28v-37v-274q0 -99 -61 -153q-55 -49 -141 -49q-135 0 -194 59q-51 52 -51 159v276q-1 10 -3 15q-5 18 -68 20v30h306v-30q-62 -2 -67 -20q-2 -5 -2 -15
q-1 -4 -1 -10v-286zM534 537q4 1 7 2.5t9 5.5l11 11q-17 7 -27.5 22.5t-10.5 34.5q0 25 17.5 43t42.5 18q23 0 41 -18t18 -43q0 -7 -4 -21.5t-8 -19.5q-7 -9 -14 -17q-10 -10 -24.5 -18.5t-29.5 -17t-28 -13.5v31zM495 704q-4 -45 -35 -78q-33 -35 -77 -35q-29 0 -51 8
q-15 4 -32 16q-26 17 -61 17q-46 0 -66 -41h-32q11 48 38 76q28 31 67 31q52 0 75 -19l29 -13q18 -6 39 -6q60 0 75 44h31z" />
    <glyph glyph-name="uni1EF0" unicode="&#x1ef0;" 
d="M328 240q0 -78 31 -119q34 -47 107 -47q82 0 118 36q44 44 44 154v315q-1 23 -3 40q-6 41 -84 43v38h146v-23v-36v-46v-350q0 -126 -78 -195q-70 -62 -179 -62q-173 0 -248 75q-65 66 -65 203v351q-1 13 -4 20q-6 22 -86 25v38h390v-38q-79 -3 -85 -25q-3 -7 -3 -20
q-1 -5 -1 -12v-365zM673 684q5 1 8.5 2.5t11.5 7.5l14 14q-22 9 -35 28.5t-13 43.5q0 32 22 55t54 23q30 0 53 -23t23 -55q0 -9 -5.5 -27t-10.5 -25l-18 -22q-12 -12 -31 -23t-37.5 -22t-35.5 -17v40zM359 -106q0 25 20 46q20 20 45 20q66 0 66 -66q0 -65 -66 -65
q-65 0 -65 65z" />
    <glyph glyph-name="uni1EF1" unicode="&#x1ef1;" horiz-adv-x="569" 
d="M263 189q0 -61 25 -94q26 -36 84 -36q64 0 92 28q35 34 35 121v247q-1 18 -3 31q-4 33 -66 34v30h115v-18v-28v-37v-274q0 -99 -61 -153q-55 -49 -141 -49q-135 0 -194 59q-51 52 -51 159v276q-1 10 -3 15q-5 18 -68 20v30h306v-30q-62 -2 -67 -20q-2 -5 -2 -15
q-1 -4 -1 -10v-286zM534 537q4 1 7 2.5t9 5.5l11 11q-17 7 -27.5 22.5t-10.5 34.5q0 25 17.5 43t42.5 18q23 0 41 -18t18 -43q0 -7 -4 -21.5t-8 -19.5q-7 -9 -14 -17q-10 -10 -24.5 -18.5t-29.5 -17t-28 -13.5v31zM288 -83q0 20 15 36q16 16 36 16q51 0 51 -52
q0 -51 -51 -51t-51 51z" />
    <glyph glyph-name="Ygrave" unicode="&#x1ef2;" horiz-adv-x="778" 
d="M590 0h-390v38q79 3 85 25q3 7 4 20v173l-159 328q-20 44 -53 63q-26 15 -65 15v38h368v-38q-53 0 -60 -19q-5 -14 16 -59l128 -262l139 255q46 85 -65 85v38h228v-38q-26 0 -40 -7q-20 -11 -36 -42l-160 -291q-14 -27 -21 -47q-9 -26 -9 -51v-129q0 -7 1 -12
q0 -13 3 -20q6 -22 86 -25v-38zM570 752h-55l-165 82q-43 22 -59 36q-26 21 -26 47q0 55 57 55q25 0 50 -20q9 -8 21 -20z" />
    <glyph glyph-name="ygrave" unicode="&#x1ef3;" horiz-adv-x="616" 
d="M466 0h-306v30q62 2 66 19q3 6 3 16v136l-124 257q-16 35 -42 50q-20 12 -51 12v30h289v-30q-42 0 -47 -15q-4 -11 12 -47l101 -205l109 200q36 67 -51 67v30h179v-30q-21 0 -32 -6q-15 -8 -28 -33l-125 -228q-11 -21 -17 -37q-7 -21 -7 -40v-101q0 -6 1 -10q0 -10 2 -16
q5 -17 68 -19v-30zM450 590h-43l-130 65q-33 17 -46 28q-20 16 -20 37q0 43 44 43q20 0 40 -16q7 -6 16 -15z" />
    <glyph glyph-name="uni1EF4" unicode="&#x1ef4;" horiz-adv-x="778" 
d="M590 0h-390v38q79 3 85 25q3 7 4 20v173l-159 328q-20 44 -53 63q-26 15 -65 15v38h368v-38q-53 0 -60 -19q-5 -14 16 -59l128 -262l139 255q46 85 -65 85v38h228v-38q-26 0 -40 -7q-20 -11 -36 -42l-160 -291q-14 -27 -21 -47q-9 -26 -9 -51v-129q0 -7 1 -12
q0 -13 3 -20q6 -22 86 -25v-38zM328 -106q0 25 20 46q20 20 45 20q66 0 66 -66q0 -65 -66 -65q-65 0 -65 65z" />
    <glyph glyph-name="uni1EF5" unicode="&#x1ef5;" horiz-adv-x="616" 
d="M466 0h-306v30q62 2 66 20q3 5 3 15v136l-124 258q-16 34 -42 49q-20 12 -51 12v30h289v-30q-42 0 -47 -15q-4 -11 12 -46l101 -206l109 200q36 67 -51 67v30h179v-30q-21 0 -32 -6q-15 -8 -28 -33l-125 -228q-11 -21 -17 -37q-7 -20 -7 -40v-101q0 -6 1 -10q0 -10 2 -15
q5 -18 68 -20v-30zM260 -83q0 20 16 36q15 16 35 16q52 0 52 -52q0 -51 -52 -51q-51 0 -51 51z" />
    <glyph glyph-name="uni1EF6" unicode="&#x1ef6;" horiz-adv-x="778" 
d="M590 0h-390v38q79 3 85 25q3 7 4 20v173l-159 328q-20 44 -53 63q-26 15 -65 15v38h368v-38q-53 0 -60 -19q-5 -14 16 -59l128 -262l139 255q46 85 -65 85v38h228v-38q-26 0 -40 -7q-20 -11 -36 -42l-160 -291q-14 -27 -21 -47q-9 -26 -9 -51v-129q0 -7 1 -12
q0 -13 3 -20q6 -22 86 -25v-38zM381 752q-4 27 15 74q23 53 23 87q0 10 -6 26q-7 20 -16 20q-7 0 -17 -10l-13 -15l-14 -13q-8 -4 -18 2l-6 4q-7 5 -5 12l15 27q17 11 72 11q43 0 71 -19q30 -21 30 -57q0 -13 -7 -27q-5 -11 -14 -23q-7 -9 -19 -21l-17 -19q-29 -35 -33 -59
h-41z" />
    <glyph glyph-name="uni1EF7" unicode="&#x1ef7;" horiz-adv-x="616" 
d="M466 0h-306v30q62 2 66 19q3 6 3 16v136l-124 257q-16 35 -42 50q-20 12 -51 12v30h289v-30q-42 0 -47 -15q-4 -11 12 -47l101 -205l109 200q36 67 -51 67v30h179v-30q-21 0 -32 -6q-15 -8 -28 -33l-125 -228q-11 -21 -17 -37q-7 -21 -7 -40v-101q0 -6 1 -10q0 -10 2 -16
q5 -17 68 -19v-30zM302 590q-3 22 11 58q18 42 18 69q0 8 -4 20q-6 16 -13 16q-5 0 -13 -8l-10 -12l-11 -10q-7 -3 -14 2l-5 3q-6 4 -4 9l12 21q13 9 56 9q34 0 56 -15q24 -16 24 -45q0 -10 -6 -21q-4 -9 -11 -18q-5 -7 -15 -16l-13 -15q-23 -28 -26 -47h-32z" />
    <glyph glyph-name="uni1EF8" unicode="&#x1ef8;" horiz-adv-x="778" 
d="M590 0h-390v38q79 3 85 25q3 7 4 20v173l-159 328q-20 44 -53 63q-26 15 -65 15v38h368v-38q-53 0 -60 -19q-5 -14 16 -59l128 -262l139 255q46 85 -65 85v38h228v-38q-26 0 -40 -7q-20 -11 -36 -42l-160 -291q-14 -27 -21 -47q-9 -26 -9 -51v-129q0 -7 1 -12
q0 -13 3 -20q6 -22 86 -25v-38zM643 896q-5 -57 -45 -99q-42 -45 -98 -45q-37 0 -64 10q-20 6 -41 21q-33 22 -78 22q-59 0 -84 -53h-41q14 61 48 97q36 40 86 40q66 0 95 -25l37 -16q24 -8 50 -8q76 0 96 56h39z" />
    <glyph glyph-name="uni1EF9" unicode="&#x1ef9;" horiz-adv-x="616" 
d="M466 0h-306v30q62 2 66 19q3 6 3 16v136l-124 257q-16 35 -42 50q-20 12 -51 12v30h289v-30q-42 0 -47 -15q-4 -11 12 -47l101 -205l109 200q36 67 -51 67v30h179v-30q-21 0 -32 -6q-15 -8 -28 -33l-125 -228q-11 -21 -17 -37q-7 -21 -7 -40v-101q0 -6 1 -10q0 -10 2 -16
q5 -17 68 -19v-30zM507 703q-4 -44 -35 -77q-33 -36 -77 -36q-29 0 -50 8q-16 5 -32 17q-26 17 -62 17q-46 0 -66 -42h-32q11 48 38 76q28 32 67 32q52 0 75 -20l29 -12q19 -7 39 -7q60 0 76 44h30z" />
    <glyph glyph-name="endash" unicode="&#x2013;" horiz-adv-x="500" 
d="M0 190v96h500v-96h-500z" />
    <glyph glyph-name="emdash" unicode="&#x2014;" horiz-adv-x="1000" 
d="M0 190v96h1000v-96h-1000z" />
    <glyph glyph-name="quoteleft" unicode="&#x2018;" horiz-adv-x="333" 
d="M264 707q-40 -41 -61 -81q-18 -33 -22 -67q-4 -26 1 -55q0 -6 1 -12l6 -32q1 -6 -11 -18q-11 -10 -28 -23q-16 -12 -31 -20q-14 -9 -18 -9q-16 0 -37 34q-22 33 -22 58q0 13 21 48q17 29 49 74q25 35 58 78l48 61z" />
    <glyph glyph-name="quoteright" unicode="&#x2019;" horiz-adv-x="333" 
d="M69 418q40 41 61 81q18 33 22 67q4 26 -1 55q0 6 -1 12l-6 32q-1 6 12 18q10 10 28 23q15 12 30 20q14 9 18 9q16 0 37 -34q22 -33 22 -58q0 -13 -21 -48q-17 -29 -49 -73q-25 -36 -58 -79l-48 -61z" />
    <glyph glyph-name="quotesinglbase" unicode="&#x201a;" horiz-adv-x="333" 
d="M42 -161q40 41 61 81q18 33 22 67q4 26 -1 55q0 6 -1 12l-6 32q-1 6 12 18q10 10 28 23q15 12 30 20q14 9 18 9q16 0 37 -34q22 -33 22 -58q0 -13 -21 -48q-17 -29 -49 -73q-25 -36 -58 -79l-48 -61z" />
    <glyph glyph-name="quotedblleft" unicode="&#x201c;" horiz-adv-x="611" 
d="M296 707q-40 -41 -61 -81q-18 -33 -22 -67q-4 -26 1 -55q0 -6 1 -12l6 -32q1 -6 -11 -18q-11 -10 -28 -23q-16 -12 -31 -20q-14 -9 -18 -9q-16 0 -37 34q-22 33 -22 58q0 13 21 48q17 29 49 74q25 35 58 78l48 61zM537 707q-40 -41 -61 -81q-18 -33 -22 -67q-4 -26 1 -55
q0 -6 1 -12l6 -32q1 -6 -11 -18q-11 -10 -28 -23q-16 -12 -31 -20q-14 -9 -18 -9q-16 0 -37 34q-22 33 -22 58q0 13 21 48q17 29 49 74q25 35 58 78l48 61z" />
    <glyph glyph-name="quotedblright" unicode="&#x201d;" horiz-adv-x="611" 
d="M74 418q40 41 61 81q18 33 22 67q4 26 -1 55q0 6 -1 12l-6 32q-1 6 12 18q10 10 28 23q15 12 30 20q14 9 18 9q16 0 37 -34q22 -33 22 -58q0 -13 -21 -48q-17 -29 -49 -73q-25 -36 -58 -79l-48 -61zM315 418q40 41 61 81q18 33 22 67q4 26 -1 55q0 6 -1 12l-6 32
q-1 6 12 18q10 10 28 23q15 12 30 20q14 9 18 9q16 0 37 -34q22 -33 22 -58q0 -13 -21 -48q-17 -29 -49 -73q-25 -36 -58 -79l-48 -61z" />
    <glyph glyph-name="quotedblbase" unicode="&#x201e;" horiz-adv-x="611" 
d="M74 -161q40 41 61 81q18 33 22 67q4 26 -1 55q0 6 -1 12l-6 32q-1 6 12 18q10 10 28 23q15 12 30 20q14 9 18 9q16 0 37 -34q22 -33 22 -58q0 -13 -21 -48q-17 -29 -49 -73q-25 -36 -58 -79l-48 -61zM315 -161q40 41 61 81q18 33 22 67q4 26 -1 55q0 6 -1 12l-6 32
q-1 6 12 18q10 10 28 23q15 12 30 20q14 9 18 9q16 0 37 -34q22 -33 22 -58q0 -13 -21 -48q-17 -29 -49 -73q-25 -36 -58 -79l-48 -61z" />
    <glyph glyph-name="dagger" unicode="&#x2020;" horiz-adv-x="593" 
d="M260 -172v186q0 67 -20 123q-24 66 -77 127q70 36 95 91q9 21 13 46q2 17 2 44q-26 0 -57 -12q-36 -15 -66 -42q-30 -30 -50 -30h-25q-11 1 -17 9q-13 18 -13 99q0 80 13 97q6 8 17 9h25q20 0 50 -30q30 -27 66 -42q31 -12 57 -12q0 25 -12 54q-14 33 -41 62
q-31 33 -31 51v24q2 12 10 17q18 13 99 13q79 0 97 -13q7 -5 9 -17v-24q0 -20 -31 -51q-27 -29 -41 -62q-12 -29 -12 -54q26 0 57 12q36 15 66 42q30 30 50 30h25q11 -1 17 -9q13 -18 13 -99q0 -80 -13 -97q-6 -8 -17 -9h-25q-20 0 -50 30q-30 27 -66 42q-31 12 -57 12
q0 -27 2 -44q4 -25 13 -46q25 -55 95 -91q-53 -61 -77 -127q-20 -56 -20 -123v-186h-73z" />
    <glyph glyph-name="daggerdbl" unicode="&#x2021;" horiz-adv-x="593" 
d="M200 -172q-8 5 -10 17v24q0 20 31 51q53 59 53 117q-26 0 -57 -12q-36 -15 -66 -42q-32 -30 -50 -30h-25q-12 1 -18 9q-13 18 -13 99q0 80 13 97q6 8 18 9h25q18 0 50 -30q30 -27 66 -42q31 -12 57 -12q0 26 -2 44q-4 25 -14 47q-25 53 -95 90q70 36 95 90q10 21 14 47
q2 18 2 44q-26 0 -57 -12q-36 -15 -66 -42q-32 -30 -50 -30h-25q-12 1 -18 9q-13 18 -13 99q0 80 13 97q6 8 18 9h25q18 0 50 -30q30 -27 66 -42q31 -12 57 -12q0 57 -53 116q-31 31 -31 51v24q2 12 10 17q18 13 98 13q79 0 97 -13q7 -5 9 -17v-24q0 -20 -31 -51
q-52 -57 -52 -116q25 0 56 12q36 15 66 42q32 30 50 30h25q12 -1 18 -9q13 -18 13 -99q0 -80 -13 -97q-6 -8 -18 -9h-25q-18 0 -50 30q-30 27 -66 42q-31 12 -56 12q0 -26 2 -44q3 -26 13 -47q25 -54 95 -90q-71 -37 -95 -90q-10 -22 -13 -47q-2 -18 -2 -44q25 0 56 12
q36 15 66 42q32 30 50 30h25q12 -1 18 -9q13 -18 13 -99q0 -80 -13 -97q-6 -8 -18 -9h-25q-18 0 -50 30q-30 27 -66 42q-31 12 -56 12q0 -60 52 -117q31 -31 31 -51v-24q-2 -12 -10 -17q-18 -13 -98 -13q-79 0 -96 13z" />
    <glyph glyph-name="bullet" unicode="&#x2022;" horiz-adv-x="519" 
d="M384 226q-51 -51 -124 -51t-124 51t-51 124q-1 73 50 124t125 51q73 0 124 -51t51 -124t-51 -124z" />
    <glyph glyph-name="ellipsis" unicode="&#x2026;" horiz-adv-x="1000" 
d="M232 146q28 -28 28 -66q0 -36 -28 -64t-65 -28t-65 27t-28 65t28 66t65 28t65 -28zM565 146q28 -28 28 -66q0 -36 -28 -64t-65 -28t-65 27t-28 65t28 66t65 28t65 -28zM898 146q28 -28 28 -66q0 -36 -28 -64t-65 -28t-65 27t-28 65t28 66t65 28t65 -28z" />
    <glyph glyph-name="perthousand" unicode="&#x2030;" horiz-adv-x="1500" 
d="M843 53q4 19 5 62q1 18 1 48v62q0 122 -6 146q-7 29 -42 29t-42 -29q-6 -24 -6 -146v-62q0 -30 1 -48q1 -43 5 -62q7 -33 42 -33t42 33zM659 55q-56 63 -56 169q0 77 47 135q56 68 151 68t151 -68q47 -58 47 -135q0 -106 -55 -169q-55 -62 -143 -62t-142 62zM291 0
l365 700h83l-364 -700h-84zM276 338q4 19 5 62q1 18 1 47v62q0 123 -6 147q-7 29 -42 29t-42 -29q-6 -24 -6 -147v-62q0 -29 1 -47q1 -43 5 -62q7 -33 42 -33t42 33zM92 340q-56 63 -56 168q0 78 47 136q55 68 151 68t151 -68q47 -58 47 -136q0 -105 -55 -168
q-55 -62 -143 -62t-142 62zM1124 55q-56 63 -56 169q0 77 47 135q56 68 151 68t151 -68q47 -58 47 -135q0 -106 -55 -169q-55 -62 -143 -62t-142 62zM1308 53q4 19 5 62q1 18 1 48v62q0 122 -6 146q-7 29 -42 29t-42 -29q-6 -24 -6 -146v-62q0 -30 1 -48q1 -43 5 -62
q7 -33 42 -33t42 33z" />
    <glyph glyph-name="guilsinglleft" unicode="&#x2039;" horiz-adv-x="296" 
d="M201 392q2 2 5 4l15 13q11 9 22 9q14 0 14 -19q0 -5 -9 -27l-22 -48q-13 -28 -26 -51q-13 -25 -19 -34q13 -21 40 -79q13 -27 22 -48q10 -23 14 -34v-6q0 -4 -2 -6q-3 -7 -15 -7q-8 0 -20 10l-181 170z" />
    <glyph glyph-name="guilsinglright" unicode="&#x203a;" horiz-adv-x="296" 
d="M95 85q-2 -2 -5 -4l-14 -13q-12 -9 -23 -9q-14 0 -14 19q0 5 9 27l22 48q13 28 26 51q13 25 19 34q-13 21 -40 79q-13 27 -22 48q-10 23 -14 34v6q0 4 2 6q3 7 15 7q9 0 21 -10l180 -170z" />
    <glyph glyph-name="fraction" unicode="&#x2044;" horiz-adv-x="148" 
d="M-150 0l365 700h83l-364 -700h-84z" />
    <glyph glyph-name="trademark" unicode="&#x2122;" horiz-adv-x="1060" 
d="M281 372q0 -36 6 -43q8 -10 43 -10v-23h-212v23q32 0 41 10q7 8 7 43v300h-18q-67 0 -93 -71h-27l21 99h350l20 -99h-27q-25 71 -92 71h-19v-300zM746 426l151 274h135v-23q-57 0 -57 -50v-270q0 -24 5 -29q9 -9 47 -9v-23h-220v23q39 0 48 9q5 5 5 30v196h-2l-139 -258
h-20l-130 278h-2v-216q0 -15 4 -22q7 -17 46 -17v-23h-134v23q40 0 48 15q3 7 3 23v254q-9 22 -31 43q-24 23 -43 23v23h158z" />
    <glyph glyph-name="minus" unicode="&#x2212;" horiz-adv-x="630" 
d="M63 205v96h504v-96h-504z" />
    <glyph glyph-name="uniFB01" unicode="&#xfb01;" horiz-adv-x="783" 
d="M485 352q0 43 -16 57q-15 13 -62 13h-93v-327q0 -7 1 -12q0 -13 3 -20q6 -22 77 -25v-38h-355v38q27 2 46 8q21 7 24 17q3 7 4 20v339h-90v61h90v52q0 73 70 127q57 46 141 64q54 9 98 9q45 0 101 -7q26 -4 43 -8q18 -4 21 -8l32 -70q1 -3 0 -5q-2 -4 -9 -8l-59 -38
q-15 -7 -28 6l-86 67q-21 13 -45 13q-26 0 -49 -25q-30 -32 -30 -91v-78h167q42 0 74 3q85 5 128 26l2 -2v-415q0 -7 1 -12q0 -13 3 -20q3 -10 24 -17q19 -6 46 -8v-38h-324v38l11 3q8 2 14 5l14 7q6 5 7 10q3 7 4 20v269z" />
    <glyph glyph-name="uniFB02" unicode="&#xfb02;" horiz-adv-x="783" 
d="M759 0h-324v38l11 3q8 2 14 5l14 7q6 5 7 10q3 7 4 20v543q-7 23 -42 40q-32 16 -60 16q-69 0 -69 -65v-134h161v-37l-52 -24h-109v-326q0 -7 1 -12q0 -12 3 -21q6 -22 77 -25v-38h-355v38q27 2 46 8q21 7 24 17q3 9 4 21v338h-90v61h90v54q0 81 83 138q87 60 223 60
q28 0 51 -1q17 -1 34 -4l27 -3q15 -2 29 -2q24 -1 61 4l61 6l2 -2v-638q0 -7 1 -12q0 -13 3 -20q3 -10 24 -17q19 -6 46 -8v-38z" />
    </font>
</defs>
</svg>
